<svg width="181" height="216" viewBox="0 0 181 216" fill="none" xmlns="http://www.w3.org/2000/svg">
<path d="M90 48C90 57.9411 98.0589 66 108 66L135 66C137.761 66 140 63.7614 140 61L140 27C140 21.4772 135.523 17 130 17L95 17C92.2386 17 90 19.2386 90 22L90 48Z" fill="#FFF1DA"/>
<path d="M113 27.8482V22.1518C113 21.0351 112.095 20.1299 110.978 20.1299H108.799C107.928 20.1299 107.155 19.5717 106.881 18.7448C106.576 17.8235 106.206 16.9322 105.775 16.0763C105.383 15.2967 105.533 14.3542 106.15 13.7371L107.692 12.1957C108.481 11.406 108.481 10.1259 107.692 9.33622L103.664 5.30825C102.874 4.51861 101.594 4.51861 100.804 5.30825L99.2628 6.8497C98.6457 7.4668 97.7032 7.6168 96.9236 7.22465C96.0677 6.79406 95.1763 6.42344 94.2551 6.11841C93.4282 5.84457 92.87 5.07163 92.87 4.2005V2.02193C92.87 0.905231 91.9648 0 90.8481 0H85.1517C84.035 0 83.1298 0.905231 83.1298 2.02193V4.2006C83.1298 5.07173 82.5716 5.84467 81.7446 6.11851C80.8234 6.42354 79.9321 6.79417 79.0761 7.22475C78.2966 7.6169 77.3541 7.4668 76.737 6.8498L75.1956 5.30835C74.4059 4.51871 73.1257 4.51871 72.3361 5.30835L68.3083 9.33632C67.5187 10.126 67.5187 11.4061 68.3083 12.1958L69.8498 13.7372C70.4668 14.3543 70.6169 15.2968 70.2247 16.0764C69.7941 16.9323 69.4235 17.8236 69.1185 18.7449C68.9249 19.3293 68.4822 19.7794 67.9317 19.9932C67.7032 20.0819 67.5567 20.2305 67.3012 20.2305H65.1225C64.0058 20.2305 63.1006 21.1357 63.1006 22.2524V27.7476C63.1006 28.8643 64.0058 29.7695 65.1225 29.7695H67.3012C68.1723 29.7695 68.9453 30.4283 69.2191 31.2552C69.5241 32.1765 69.8948 33.0677 70.3253 33.9237C70.7175 34.7033 70.5674 35.6458 69.9504 36.2629L68.5095 37.8043C67.7199 38.594 67.7199 39.8741 68.5095 40.6638L72.3363 44.4905C73.1259 45.2802 74.4061 45.2802 75.1958 44.4905L76.7372 42.9491C77.3542 42.332 78.2968 42.182 79.0763 42.5741C79.9323 43.0047 81.0248 43.476 81.9461 43.781C82.773 44.0548 83.3312 44.8278 83.3312 45.6989V47.8776C83.3312 48.9943 84.2364 49.8995 85.3531 49.8995H90.7477C91.8644 49.8995 92.7696 48.9943 92.7696 47.8776V45.6989C92.7696 45.4434 92.9182 45.2969 93.0069 45.0684C93.2207 44.5179 93.6709 44.0751 94.2552 43.8816C95.1764 43.5766 96.0678 43.2059 96.9237 42.7754C97.7033 42.3832 98.6458 42.5333 99.2629 43.1503L100.804 44.6917C101.594 45.4814 102.874 45.4814 103.664 44.6917L107.692 40.6638C108.481 39.8741 108.481 38.594 107.692 37.8043L106.15 36.2629C105.533 35.6458 105.383 34.7033 105.775 33.9237C106.206 33.0678 106.577 32.1765 106.882 31.2552C107.155 30.4283 107.928 29.8701 108.799 29.8701H110.978C112.095 29.8701 113 28.9649 113 27.8482Z" fill="#B6C4CF"/>
<path d="M93.007 45.0684C92.9185 45.2967 92.8702 45.5442 92.8702 45.7998V47.9778C92.8702 49.0945 91.9648 50 90.8481 50H85.1519C84.0352 50 83.1298 49.0945 83.1298 47.9778V45.7998C83.1298 44.9285 82.5714 44.1549 81.7445 43.8812C80.8239 43.5764 79.9326 43.2062 79.0765 42.7756C78.2968 42.3833 77.3541 42.5332 76.7374 43.1499L75.1962 44.6911C74.4064 45.4808 73.1258 45.4808 72.336 44.6911L68.3078 40.6639C67.5191 39.8742 67.5191 38.5935 68.3078 37.8038L69.8501 36.2625C70.4668 35.6458 70.6167 34.7032 70.2243 33.9235C69.7938 33.0674 69.4235 32.176 69.1187 31.2555C68.8451 30.4285 68.0714 29.8702 67.2002 29.8702H65.0221C63.9054 29.8702 63 28.9648 63 27.8481V22.1519C63 21.0352 63.9054 20.1297 65.0221 20.1297H67.2002C67.4557 20.1297 67.7032 20.0815 67.9316 19.9929C67.9296 20.1187 67.9286 20.2454 67.9286 20.3722C67.9286 34.013 78.9869 45.0714 92.6278 45.0714C92.7545 45.0714 92.8813 45.0704 93.007 45.0684Z" fill="#9FACBA"/>
<path d="M88 41.5996C97.1677 41.5996 104.6 34.1677 104.6 25C104.6 15.8323 97.1677 8.40039 88 8.40039C78.8323 8.40039 71.4004 15.8323 71.4004 25C71.4004 34.1677 78.8323 41.5996 88 41.5996Z" fill="#9FACBA"/>
<path d="M87.9999 38.0784C95.2229 38.0784 101.078 32.223 101.078 25C101.078 17.7769 95.2229 11.9215 87.9999 11.9215C80.7768 11.9215 74.9214 17.7769 74.9214 25C74.9214 32.223 80.7768 38.0784 87.9999 38.0784Z" fill="#F8F7F7"/>
<path d="M3.60444 157.016L5.65244 157L8.13244 148.584L10.4684 157H12.5324L15.8284 145.88H13.8764L11.5564 154.888L9.23644 145.88H7.18844L4.69244 154.936L2.38844 145.88H0.452438L3.60444 157.016ZM21.0448 149.576C22.4048 149.576 23.4768 150.44 23.5088 151.8H18.6288C18.8208 150.408 19.8128 149.576 21.0448 149.576ZM25.1728 154.376H23.2048C22.8688 155.064 22.2448 155.608 21.1248 155.608C19.7808 155.608 18.7408 154.728 18.6128 153.272H25.3488C25.3968 152.968 25.4128 152.68 25.4128 152.376C25.4128 149.784 23.6368 148.04 21.1248 148.04C18.5168 148.04 16.7248 149.816 16.7248 152.584C16.7248 155.352 18.5968 157.144 21.1248 157.144C23.2848 157.144 24.6768 155.912 25.1728 154.376ZM30.7561 152.552C30.7561 155.272 32.5961 157.144 34.9161 157.144C36.3561 157.144 37.4121 156.472 37.9721 155.672V157H39.8121V145.16H37.9721V149.416C37.3001 148.584 36.0841 148.04 34.9321 148.04C32.5961 148.04 30.7561 149.832 30.7561 152.552ZM37.9721 152.584C37.9721 154.488 36.6761 155.56 35.3001 155.56C33.9401 155.56 32.6281 154.456 32.6281 152.552C32.6281 150.648 33.9401 149.624 35.3001 149.624C36.6761 149.624 37.9721 150.696 37.9721 152.584ZM45.9198 149.576C47.2798 149.576 48.3518 150.44 48.3838 151.8H43.5038C43.6958 150.408 44.6878 149.576 45.9198 149.576ZM50.0478 154.376H48.0798C47.7438 155.064 47.1198 155.608 45.9998 155.608C44.6558 155.608 43.6158 154.728 43.4878 153.272H50.2238C50.2718 152.968 50.2878 152.68 50.2878 152.376C50.2878 149.784 48.5118 148.04 45.9998 148.04C43.3918 148.04 41.5998 149.816 41.5998 152.584C41.5998 155.352 43.4718 157.144 45.9998 157.144C48.1598 157.144 49.5518 155.912 50.0478 154.376ZM52.0828 157H53.9068V145.16H52.0828V157ZM56.3016 157H58.1256V148.184H56.3016V157ZM57.2296 147.016C57.8696 147.016 58.3816 146.504 58.3816 145.848C58.3816 145.192 57.8696 144.68 57.2296 144.68C56.5736 144.68 56.0616 145.192 56.0616 145.848C56.0616 146.504 56.5736 147.016 57.2296 147.016ZM59.4803 148.184L62.8243 157H65.0003L68.3603 148.184H66.4243L63.9283 155.368L61.4323 148.184H59.4803ZM73.4511 149.576C74.8111 149.576 75.8831 150.44 75.9151 151.8H71.0351C71.2271 150.408 72.2191 149.576 73.4511 149.576ZM77.5791 154.376H75.6111C75.2751 155.064 74.6511 155.608 73.5311 155.608C72.1871 155.608 71.1471 154.728 71.0191 153.272H77.7551C77.8031 152.968 77.8191 152.68 77.8191 152.376C77.8191 149.784 76.0431 148.04 73.5311 148.04C70.9231 148.04 69.1311 149.816 69.1311 152.584C69.1311 155.352 71.0031 157.144 73.5311 157.144C75.6911 157.144 77.0831 155.912 77.5791 154.376ZM81.4381 152.36C81.4381 150.488 82.2701 149.928 83.6141 149.928H84.0781V148.04C82.8301 148.04 81.9501 148.584 81.4381 149.464V148.184H79.6141V157H81.4381V152.36ZM98.3109 152.584C98.3109 149.816 96.3269 148.04 93.8149 148.04C91.3029 148.04 89.3189 149.816 89.3189 152.584C89.3189 155.352 91.2229 157.144 93.7349 157.144C96.2629 157.144 98.3109 155.352 98.3109 152.584ZM91.1749 152.584C91.1749 150.584 92.4069 149.624 93.7829 149.624C95.1429 149.624 96.4389 150.584 96.4389 152.584C96.4389 154.584 95.0949 155.56 93.7349 155.56C92.3589 155.56 91.1749 154.584 91.1749 152.584ZM108.098 148.184H106.274V153.096C106.274 154.712 105.394 155.544 104.05 155.544C102.722 155.544 101.842 154.712 101.842 153.096V148.184H100.034V153.368C100.034 155.832 101.602 157.128 103.666 157.128C104.706 157.128 105.698 156.696 106.274 155.944V157H108.098V148.184ZM110.793 154.552C110.793 156.344 111.769 157 113.337 157H114.777V155.48H113.657C112.889 155.48 112.633 155.208 112.633 154.552V149.672H114.777V148.184H112.633V145.992H110.793V148.184H109.753V149.672H110.793V154.552ZM123.034 154.536C122.938 151.352 117.962 152.344 117.962 150.568C117.962 149.976 118.474 149.576 119.45 149.576C120.442 149.576 121.034 150.104 121.098 150.872H122.922C122.826 149.112 121.514 148.04 119.514 148.04C117.434 148.04 116.122 149.176 116.122 150.584C116.122 153.816 121.242 152.824 121.242 154.552C121.242 155.16 120.682 155.608 119.626 155.608C118.618 155.608 117.93 155.016 117.866 154.296H115.978C116.058 155.896 117.546 157.144 119.658 157.144C121.738 157.144 123.034 156.024 123.034 154.536ZM133.405 152.584C133.405 149.816 131.421 148.04 128.909 148.04C126.397 148.04 124.413 149.816 124.413 152.584C124.413 155.352 126.317 157.144 128.829 157.144C131.357 157.144 133.405 155.352 133.405 152.584ZM126.269 152.584C126.269 150.584 127.501 149.624 128.877 149.624C130.237 149.624 131.533 150.584 131.533 152.584C131.533 154.584 130.189 155.56 128.829 155.56C127.453 155.56 126.269 154.584 126.269 152.584ZM143.192 148.184H141.368V153.096C141.368 154.712 140.488 155.544 139.144 155.544C137.816 155.544 136.936 154.712 136.936 153.096V148.184H135.128V153.368C135.128 155.832 136.696 157.128 138.76 157.128C139.8 157.128 140.792 156.696 141.368 155.944V157H143.192V148.184ZM147.422 152.36C147.422 150.488 148.254 149.928 149.598 149.928H150.062V148.04C148.814 148.04 147.934 148.584 147.422 149.464V148.184H145.598V157H147.422V152.36ZM151.131 152.584C151.131 155.352 152.923 157.144 155.451 157.144C157.611 157.144 159.019 155.944 159.515 154.216H157.547C157.211 155.128 156.539 155.608 155.451 155.608C153.979 155.608 153.003 154.52 153.003 152.584C153.003 150.664 153.979 149.576 155.451 149.576C156.539 149.576 157.243 150.12 157.547 150.968H159.515C159.019 149.112 157.611 148.04 155.451 148.04C152.923 148.04 151.131 149.832 151.131 152.584ZM165.045 149.576C166.405 149.576 167.477 150.44 167.509 151.8H162.629C162.821 150.408 163.813 149.576 165.045 149.576ZM169.173 154.376H167.205C166.869 155.064 166.245 155.608 165.125 155.608C163.781 155.608 162.741 154.728 162.613 153.272H169.349C169.397 152.968 169.413 152.68 169.413 152.376C169.413 149.784 167.637 148.04 165.125 148.04C162.517 148.04 160.725 149.816 160.725 152.584C160.725 155.352 162.597 157.144 165.125 157.144C167.285 157.144 168.677 155.912 169.173 154.376ZM170.6 152.552C170.6 155.272 172.44 157.144 174.76 157.144C176.2 157.144 177.256 156.472 177.816 155.672V157H179.656V145.16H177.816V149.416C177.144 148.584 175.928 148.04 174.776 148.04C172.44 148.04 170.6 149.832 170.6 152.552ZM177.816 152.584C177.816 154.488 176.52 155.56 175.144 155.56C173.784 155.56 172.472 154.456 172.472 152.552C172.472 150.648 173.784 149.624 175.144 149.624C176.52 149.624 177.816 150.696 177.816 152.584ZM10.1545 178.552C10.1545 181.272 11.9945 183.144 14.2825 183.144C15.7545 183.144 16.8105 182.44 17.3705 181.688V183H19.2105V174.184H17.3705V175.464C16.8265 174.744 15.8025 174.04 14.3145 174.04C11.9945 174.04 10.1545 175.832 10.1545 178.552ZM17.3705 178.584C17.3705 180.488 16.0745 181.56 14.6985 181.56C13.3385 181.56 12.0265 180.456 12.0265 178.552C12.0265 176.648 13.3385 175.624 14.6985 175.624C16.0745 175.624 17.3705 176.696 17.3705 178.584ZM20.5663 174.184L23.9103 183H26.0863L29.4462 174.184H27.5103L25.0143 181.368L22.5182 174.184H20.5663ZM30.825 183H32.649V174.184H30.825V183ZM31.753 173.016C32.393 173.016 32.905 172.504 32.905 171.848C32.905 171.192 32.393 170.68 31.753 170.68C31.097 170.68 30.585 171.192 30.585 171.848C30.585 172.504 31.097 173.016 31.753 173.016ZM34.4358 178.552C34.4358 181.272 36.2758 183.144 38.5638 183.144C40.0358 183.144 41.0918 182.44 41.6518 181.688V183H43.4918V174.184H41.6518V175.464C41.1078 174.744 40.0838 174.04 38.5958 174.04C36.2758 174.04 34.4358 175.832 34.4358 178.552ZM41.6518 178.584C41.6518 180.488 40.3558 181.56 38.9798 181.56C37.6198 181.56 36.3078 180.456 36.3078 178.552C36.3078 176.648 37.6198 175.624 38.9798 175.624C40.3558 175.624 41.6518 176.696 41.6518 178.584ZM46.1755 180.552C46.1755 182.344 47.1515 183 48.7195 183H50.1595V181.48H49.0395C48.2715 181.48 48.0155 181.208 48.0155 180.552V175.672H50.1595V174.184H48.0155V171.992H46.1755V174.184H45.1355V175.672H46.1755V180.552ZM51.8406 183H53.6646V174.184H51.8406V183ZM52.7686 173.016C53.4086 173.016 53.9206 172.504 53.9206 171.848C53.9206 171.192 53.4086 170.68 52.7686 170.68C52.1126 170.68 51.6006 171.192 51.6006 171.848C51.6006 172.504 52.1126 173.016 52.7686 173.016ZM64.4594 178.584C64.4594 175.816 62.4754 174.04 59.9634 174.04C57.4514 174.04 55.4674 175.816 55.4674 178.584C55.4674 181.352 57.3714 183.144 59.8834 183.144C62.4114 183.144 64.4594 181.352 64.4594 178.584ZM57.3234 178.584C57.3234 176.584 58.5554 175.624 59.9314 175.624C61.2914 175.624 62.5874 176.584 62.5874 178.584C62.5874 180.584 61.2434 181.56 59.8834 181.56C58.5074 181.56 57.3234 180.584 57.3234 178.584ZM72.5185 183H74.3265V177.8C74.3265 175.336 72.7745 174.04 70.7105 174.04C69.6545 174.04 68.6785 174.472 68.0865 175.192V174.184H66.2625V183H68.0865V178.072C68.0865 176.456 68.9665 175.624 70.3105 175.624C71.6385 175.624 72.5185 176.456 72.5185 178.072V183ZM87.3854 180.536C87.2894 177.352 82.3134 178.344 82.3134 176.568C82.3134 175.976 82.8254 175.576 83.8014 175.576C84.7934 175.576 85.3854 176.104 85.4494 176.872H87.2734C87.1774 175.112 85.8654 174.04 83.8654 174.04C81.7854 174.04 80.4734 175.176 80.4734 176.584C80.4734 179.816 85.5934 178.824 85.5934 180.552C85.5934 181.16 85.0334 181.608 83.9774 181.608C82.9694 181.608 82.2814 181.016 82.2174 180.296H80.3294C80.4094 181.896 81.8974 183.144 84.0094 183.144C86.0894 183.144 87.3854 182.024 87.3854 180.536ZM93.0683 175.576C94.4283 175.576 95.5003 176.44 95.5323 177.8H90.6523C90.8443 176.408 91.8363 175.576 93.0683 175.576ZM97.1962 180.376H95.2283C94.8923 181.064 94.2683 181.608 93.1483 181.608C91.8043 181.608 90.7643 180.728 90.6363 179.272H97.3723C97.4203 178.968 97.4363 178.68 97.4363 178.376C97.4363 175.784 95.6603 174.04 93.1483 174.04C90.5403 174.04 88.7483 175.816 88.7483 178.584C88.7483 181.352 90.6203 183.144 93.1483 183.144C95.3083 183.144 96.7003 181.912 97.1962 180.376ZM101.055 178.36C101.055 176.488 101.887 175.928 103.231 175.928H103.695V174.04C102.447 174.04 101.567 174.584 101.055 175.464V174.184H99.2313V183H101.055V178.36ZM104.332 174.184L107.676 183H109.852L113.212 174.184H111.276L108.78 181.368L106.284 174.184H104.332ZM114.591 183H116.415V174.184H114.591V183ZM115.519 173.016C116.159 173.016 116.671 172.504 116.671 171.848C116.671 171.192 116.159 170.68 115.519 170.68C114.863 170.68 114.351 171.192 114.351 171.848C114.351 172.504 114.863 173.016 115.519 173.016ZM118.201 178.584C118.201 181.352 119.993 183.144 122.521 183.144C124.681 183.144 126.089 181.944 126.585 180.216H124.617C124.281 181.128 123.609 181.608 122.521 181.608C121.049 181.608 120.073 180.52 120.073 178.584C120.073 176.664 121.049 175.576 122.521 175.576C123.609 175.576 124.313 176.12 124.617 176.968H126.585C126.089 175.112 124.681 174.04 122.521 174.04C119.993 174.04 118.201 175.832 118.201 178.584ZM132.115 175.576C133.475 175.576 134.547 176.44 134.579 177.8H129.699C129.891 176.408 130.883 175.576 132.115 175.576ZM136.243 180.376H134.275C133.939 181.064 133.315 181.608 132.195 181.608C130.851 181.608 129.811 180.728 129.683 179.272H136.419C136.467 178.968 136.483 178.68 136.483 178.376C136.483 175.784 134.707 174.04 132.195 174.04C129.587 174.04 127.795 175.816 127.795 178.584C127.795 181.352 129.667 183.144 132.195 183.144C134.355 183.144 135.747 181.912 136.243 180.376ZM144.854 180.536C144.758 177.352 139.782 178.344 139.782 176.568C139.782 175.976 140.294 175.576 141.27 175.576C142.262 175.576 142.854 176.104 142.918 176.872H144.742C144.646 175.112 143.334 174.04 141.334 174.04C139.254 174.04 137.942 175.176 137.942 176.584C137.942 179.816 143.062 178.824 143.062 180.552C143.062 181.16 142.502 181.608 141.446 181.608C140.438 181.608 139.75 181.016 139.686 180.296H137.798C137.878 181.896 139.366 183.144 141.478 183.144C143.558 183.144 144.854 182.024 144.854 180.536ZM151.205 183H153.045V175.672H154.677V174.184H153.045V173.56C153.045 172.552 153.429 172.168 154.549 172.168V170.648C152.245 170.648 151.205 171.528 151.205 173.56V174.184H150.165V175.672H151.205V183ZM164.694 178.584C164.694 175.816 162.71 174.04 160.198 174.04C157.686 174.04 155.702 175.816 155.702 178.584C155.702 181.352 157.606 183.144 160.118 183.144C162.646 183.144 164.694 181.352 164.694 178.584ZM157.558 178.584C157.558 176.584 158.79 175.624 160.166 175.624C161.526 175.624 162.822 176.584 162.822 178.584C162.822 180.584 161.478 181.56 160.118 181.56C158.742 181.56 157.558 180.584 157.558 178.584ZM168.321 178.36C168.321 176.488 169.153 175.928 170.497 175.928H170.961V174.04C169.713 174.04 168.833 174.584 168.321 175.464V174.184H166.497V183H168.321V178.36ZM28.4148 209H30.2228V203.8C30.2228 201.336 28.6548 200.04 26.5908 200.04C25.3108 200.04 24.0628 200.712 23.5188 201.784C22.9108 200.632 21.7428 200.04 20.3508 200.04C19.2948 200.04 18.3348 200.472 17.7428 201.192V200.184H15.9188V209H17.7428V204.072C17.7428 202.456 18.6228 201.624 19.9668 201.624C21.2948 201.624 22.1748 202.456 22.1748 204.072V209H23.9828V204.072C23.9828 202.456 24.8628 201.624 26.2068 201.624C27.5348 201.624 28.4148 202.456 28.4148 204.072V209ZM32.5438 209H34.3678V200.184H32.5438V209ZM33.4718 199.016C34.1118 199.016 34.6238 198.504 34.6238 197.848C34.6238 197.192 34.1118 196.68 33.4718 196.68C32.8158 196.68 32.3038 197.192 32.3038 197.848C32.3038 198.504 32.8158 199.016 33.4718 199.016ZM36.7625 209H38.5865V197.16H36.7625V209ZM40.9813 209H42.8053V200.184H40.9813V209ZM41.9093 199.016C42.5493 199.016 43.0613 198.504 43.0613 197.848C43.0613 197.192 42.5493 196.68 41.9093 196.68C41.2533 196.68 40.7413 197.192 40.7413 197.848C40.7413 198.504 41.2533 199.016 41.9093 199.016ZM45.488 206.552C45.488 208.344 46.464 209 48.032 209H49.472V207.48H48.352C47.584 207.48 47.328 207.208 47.328 206.552V201.672H49.472V200.184H47.328V197.992H45.488V200.184H44.448V201.672H45.488V206.552ZM50.5451 204.552C50.5451 207.272 52.3851 209.144 54.6731 209.144C56.1451 209.144 57.2011 208.44 57.7611 207.688V209H59.6011V200.184H57.7611V201.464C57.2171 200.744 56.1931 200.04 54.7051 200.04C52.3851 200.04 50.5451 201.832 50.5451 204.552ZM57.7611 204.584C57.7611 206.488 56.4651 207.56 55.0891 207.56C53.7291 207.56 52.4171 206.456 52.4171 204.552C52.4171 202.648 53.7291 201.624 55.0891 201.624C56.4651 201.624 57.7611 202.696 57.7611 204.584ZM63.8209 204.36C63.8209 202.488 64.6529 201.928 65.9969 201.928H66.4609V200.04C65.2129 200.04 64.3329 200.584 63.8209 201.464V200.184H61.9969V209H63.8209V204.36ZM71.6095 206.904L69.1295 200.184H67.0975L70.5695 208.856L68.7775 213.144H70.6655L76.0735 200.184H74.1855L71.6095 206.904ZM80.9983 204.584C80.9983 207.352 82.7903 209.144 85.3183 209.144C87.4783 209.144 88.8863 207.944 89.3823 206.216H87.4143C87.0783 207.128 86.4063 207.608 85.3183 207.608C83.8463 207.608 82.8703 206.52 82.8703 204.584C82.8703 202.664 83.8463 201.576 85.3183 201.576C86.4063 201.576 87.1103 202.12 87.4143 202.968H89.3823C88.8863 201.112 87.4783 200.04 85.3183 200.04C82.7903 200.04 80.9983 201.832 80.9983 204.584ZM99.184 200.184H97.36V205.096C97.36 206.712 96.48 207.544 95.136 207.544C93.808 207.544 92.928 206.712 92.928 205.096V200.184H91.12V205.368C91.12 207.832 92.688 209.128 94.752 209.128C95.792 209.128 96.784 208.696 97.36 207.944V209H99.184V200.184ZM108.167 206.536C108.071 203.352 103.095 204.344 103.095 202.568C103.095 201.976 103.607 201.576 104.583 201.576C105.575 201.576 106.167 202.104 106.231 202.872H108.055C107.959 201.112 106.647 200.04 104.647 200.04C102.567 200.04 101.255 201.176 101.255 202.584C101.255 205.816 106.375 204.824 106.375 206.552C106.375 207.16 105.815 207.608 104.759 207.608C103.751 207.608 103.063 207.016 102.999 206.296H101.111C101.191 207.896 102.679 209.144 104.791 209.144C106.871 209.144 108.167 208.024 108.167 206.536ZM110.426 206.552C110.426 208.344 111.402 209 112.97 209H114.41V207.48H113.29C112.522 207.48 112.266 207.208 112.266 206.552V201.672H114.41V200.184H112.266V197.992H110.426V200.184H109.386V201.672H110.426V206.552ZM124.491 204.584C124.491 201.816 122.507 200.04 119.995 200.04C117.483 200.04 115.499 201.816 115.499 204.584C115.499 207.352 117.403 209.144 119.915 209.144C122.443 209.144 124.491 207.352 124.491 204.584ZM117.355 204.584C117.355 202.584 118.587 201.624 119.963 201.624C121.323 201.624 122.619 202.584 122.619 204.584C122.619 206.584 121.275 207.56 119.915 207.56C118.539 207.56 117.355 206.584 117.355 204.584ZM138.79 209H140.598V203.8C140.598 201.336 139.03 200.04 136.966 200.04C135.686 200.04 134.438 200.712 133.894 201.784C133.286 200.632 132.118 200.04 130.726 200.04C129.67 200.04 128.71 200.472 128.118 201.192V200.184H126.294V209H128.118V204.072C128.118 202.456 128.998 201.624 130.342 201.624C131.67 201.624 132.55 202.456 132.55 204.072V209H134.358V204.072C134.358 202.456 135.238 201.624 136.582 201.624C137.91 201.624 138.79 202.456 138.79 204.072V209ZM146.631 201.576C147.991 201.576 149.063 202.44 149.095 203.8H144.215C144.407 202.408 145.399 201.576 146.631 201.576ZM150.759 206.376H148.791C148.455 207.064 147.831 207.608 146.711 207.608C145.367 207.608 144.327 206.728 144.199 205.272H150.935C150.983 204.968 150.999 204.68 150.999 204.376C150.999 201.784 149.223 200.04 146.711 200.04C144.103 200.04 142.311 201.816 142.311 204.584C142.311 207.352 144.183 209.144 146.711 209.144C148.871 209.144 150.263 207.912 150.759 206.376ZM154.618 204.36C154.618 202.488 155.45 201.928 156.794 201.928H157.258V200.04C156.01 200.04 155.13 200.584 154.618 201.464V200.184H152.794V209H154.618V204.36ZM165.51 206.536C165.414 203.352 160.438 204.344 160.438 202.568C160.438 201.976 160.95 201.576 161.926 201.576C162.918 201.576 163.51 202.104 163.574 202.872H165.398C165.302 201.112 163.99 200.04 161.99 200.04C159.91 200.04 158.598 201.176 158.598 202.584C158.598 205.816 163.718 204.824 163.718 206.552C163.718 207.16 163.158 207.608 162.102 207.608C161.094 207.608 160.406 207.016 160.342 206.296H158.454C158.534 207.896 160.022 209.144 162.134 209.144C164.214 209.144 165.51 208.024 165.51 206.536Z" fill="#5E6282"/>
<path d="M28.2227 104.52C26.8815 104.52 25.8268 104.995 25.0586 105.945C24.2904 106.896 23.9062 108.208 23.9062 109.881C23.9062 111.632 24.2741 112.957 25.0098 113.855C25.752 114.754 26.8229 115.203 28.2227 115.203C28.8281 115.203 29.4141 115.145 29.9805 115.027C30.5469 114.904 31.1361 114.747 31.748 114.559V116.561C30.6283 116.984 29.3587 117.195 27.9395 117.195C25.8496 117.195 24.2448 116.564 23.125 115.301C22.0052 114.031 21.4453 112.218 21.4453 109.861C21.4453 108.377 21.7155 107.078 22.2559 105.965C22.8027 104.852 23.5905 103.999 24.6191 103.406C25.6478 102.814 26.8555 102.518 28.2422 102.518C29.7005 102.518 31.0482 102.824 32.2852 103.436L31.4453 105.379C30.9635 105.151 30.4525 104.952 29.9121 104.783C29.3783 104.607 28.8151 104.52 28.2227 104.52ZM42.1973 117L41.875 115.584H41.7578C41.4388 116.085 40.9831 116.479 40.3906 116.766C39.8047 117.052 39.1341 117.195 38.3789 117.195C37.0703 117.195 36.0938 116.87 35.4492 116.219C34.8047 115.568 34.4824 114.581 34.4824 113.26V106.199H36.7969V112.859C36.7969 113.686 36.9661 114.308 37.3047 114.725C37.6432 115.135 38.1738 115.34 38.8965 115.34C39.86 115.34 40.5664 115.053 41.0156 114.48C41.4714 113.901 41.6992 112.934 41.6992 111.58V106.199H44.0039V117H42.1973ZM54.5312 113.924C54.5312 114.979 54.1471 115.789 53.3789 116.355C52.6107 116.915 51.5104 117.195 50.0781 117.195C48.6393 117.195 47.4837 116.977 46.6113 116.541V114.559C47.8809 115.145 49.0625 115.438 50.1562 115.438C51.569 115.438 52.2754 115.011 52.2754 114.158C52.2754 113.885 52.1973 113.657 52.041 113.475C51.8848 113.292 51.6276 113.104 51.2695 112.908C50.9115 112.713 50.4134 112.492 49.7754 112.244C48.5319 111.762 47.6888 111.281 47.2461 110.799C46.8099 110.317 46.5918 109.692 46.5918 108.924C46.5918 107.999 46.9629 107.283 47.7051 106.775C48.4538 106.261 49.4694 106.004 50.752 106.004C52.0215 106.004 53.2227 106.261 54.3555 106.775L53.6133 108.504C52.4479 108.022 51.4681 107.781 50.6738 107.781C49.4629 107.781 48.8574 108.126 48.8574 108.816C48.8574 109.155 49.0137 109.441 49.3262 109.676C49.6452 109.91 50.3353 110.232 51.3965 110.643C52.2884 110.988 52.9362 111.303 53.3398 111.59C53.7435 111.876 54.043 112.208 54.2383 112.586C54.4336 112.957 54.5312 113.403 54.5312 113.924ZM61.0449 115.34C61.6048 115.34 62.1647 115.252 62.7246 115.076V116.805C62.4707 116.915 62.1419 117.007 61.7383 117.078C61.3411 117.156 60.9277 117.195 60.498 117.195C58.3236 117.195 57.2363 116.049 57.2363 113.758V107.938H55.7617V106.922L57.3438 106.082L58.125 103.797H59.541V106.199H62.6172V107.938H59.541V113.719C59.541 114.272 59.6777 114.682 59.9512 114.949C60.2311 115.21 60.5957 115.34 61.0449 115.34ZM74.4727 111.58C74.4727 113.344 74.0202 114.721 73.1152 115.711C72.2103 116.701 70.9505 117.195 69.3359 117.195C68.3268 117.195 67.4349 116.967 66.6602 116.512C65.8854 116.056 65.2897 115.402 64.873 114.549C64.4564 113.696 64.248 112.706 64.248 111.58C64.248 109.829 64.6973 108.462 65.5957 107.479C66.4941 106.495 67.7604 106.004 69.3945 106.004C70.957 106.004 72.194 106.508 73.1055 107.518C74.0169 108.52 74.4727 109.874 74.4727 111.58ZM66.6113 111.58C66.6113 114.074 67.5326 115.32 69.375 115.32C71.1979 115.32 72.1094 114.074 72.1094 111.58C72.1094 109.113 71.1914 107.879 69.3555 107.879C68.3919 107.879 67.6921 108.198 67.2559 108.836C66.8262 109.474 66.6113 110.389 66.6113 111.58ZM86.2207 117H83.916V110.34C83.916 109.513 83.7598 108.898 83.4473 108.494C83.1348 108.084 82.6465 107.879 81.9824 107.879C81.097 107.879 80.446 108.169 80.0293 108.748C79.6191 109.321 79.4141 110.278 79.4141 111.619V117H77.1191V106.199H78.916L79.2383 107.615H79.3555C79.6549 107.101 80.0879 106.704 80.6543 106.424C81.2272 106.144 81.8555 106.004 82.5391 106.004C84.1992 106.004 85.2995 106.57 85.8398 107.703H85.9961C86.3151 107.169 86.7643 106.753 87.3438 106.453C87.9232 106.154 88.5872 106.004 89.3359 106.004C90.625 106.004 91.5625 106.329 92.1484 106.98C92.7409 107.632 93.0371 108.624 93.0371 109.959V117H90.7422V110.34C90.7422 109.513 90.5827 108.898 90.2637 108.494C89.9512 108.084 89.4629 107.879 88.7988 107.879C87.9069 107.879 87.2526 108.159 86.8359 108.719C86.4258 109.272 86.2207 110.125 86.2207 111.277V117ZM98.5352 117H96.2402V106.199H98.5352V117ZM96.1035 103.338C96.1035 102.928 96.2142 102.612 96.4355 102.391C96.6634 102.169 96.9857 102.059 97.4023 102.059C97.806 102.059 98.1185 102.169 98.3398 102.391C98.5677 102.612 98.6816 102.928 98.6816 103.338C98.6816 103.729 98.5677 104.038 98.3398 104.266C98.1185 104.487 97.806 104.598 97.4023 104.598C96.9857 104.598 96.6634 104.487 96.4355 104.266C96.2142 104.038 96.1035 103.729 96.1035 103.338ZM109.043 117H100.85V115.584L106.309 107.957H101.182V106.199H108.887V107.801L103.545 115.242H109.043V117ZM118.154 117L117.695 115.496H117.617C117.096 116.154 116.572 116.603 116.045 116.844C115.518 117.078 114.84 117.195 114.014 117.195C112.952 117.195 112.122 116.909 111.523 116.336C110.931 115.763 110.635 114.952 110.635 113.904C110.635 112.791 111.048 111.951 111.875 111.385C112.702 110.818 113.962 110.509 115.654 110.457L117.52 110.398V109.822C117.52 109.132 117.357 108.618 117.031 108.279C116.712 107.934 116.214 107.762 115.537 107.762C114.984 107.762 114.453 107.843 113.945 108.006C113.438 108.169 112.949 108.361 112.48 108.582L111.738 106.941C112.324 106.635 112.965 106.404 113.662 106.248C114.359 106.085 115.016 106.004 115.635 106.004C117.008 106.004 118.044 106.303 118.74 106.902C119.443 107.501 119.795 108.442 119.795 109.725V117H118.154ZM114.736 115.438C115.57 115.438 116.237 115.206 116.738 114.744C117.246 114.275 117.5 113.621 117.5 112.781V111.844L116.113 111.902C115.033 111.941 114.245 112.124 113.75 112.449C113.262 112.768 113.018 113.26 113.018 113.924C113.018 114.406 113.161 114.78 113.447 115.047C113.734 115.307 114.163 115.438 114.736 115.438ZM127.021 115.34C127.581 115.34 128.141 115.252 128.701 115.076V116.805C128.447 116.915 128.118 117.007 127.715 117.078C127.318 117.156 126.904 117.195 126.475 117.195C124.3 117.195 123.213 116.049 123.213 113.758V107.938H121.738V106.922L123.32 106.082L124.102 103.797H125.518V106.199H128.594V107.938H125.518V113.719C125.518 114.272 125.654 114.682 125.928 114.949C126.208 115.21 126.572 115.34 127.021 115.34ZM133.164 117H130.869V106.199H133.164V117ZM130.732 103.338C130.732 102.928 130.843 102.612 131.064 102.391C131.292 102.169 131.615 102.059 132.031 102.059C132.435 102.059 132.747 102.169 132.969 102.391C133.197 102.612 133.311 102.928 133.311 103.338C133.311 103.729 133.197 104.038 132.969 104.266C132.747 104.487 132.435 104.598 132.031 104.598C131.615 104.598 131.292 104.487 131.064 104.266C130.843 104.038 130.732 103.729 130.732 103.338ZM146.035 111.58C146.035 113.344 145.583 114.721 144.678 115.711C143.773 116.701 142.513 117.195 140.898 117.195C139.889 117.195 138.997 116.967 138.223 116.512C137.448 116.056 136.852 115.402 136.436 114.549C136.019 113.696 135.811 112.706 135.811 111.58C135.811 109.829 136.26 108.462 137.158 107.479C138.057 106.495 139.323 106.004 140.957 106.004C142.52 106.004 143.757 106.508 144.668 107.518C145.579 108.52 146.035 109.874 146.035 111.58ZM138.174 111.58C138.174 114.074 139.095 115.32 140.938 115.32C142.76 115.32 143.672 114.074 143.672 111.58C143.672 109.113 142.754 107.879 140.918 107.879C139.954 107.879 139.255 108.198 138.818 108.836C138.389 109.474 138.174 110.389 138.174 111.58ZM158.184 117H155.879V110.359C155.879 109.526 155.71 108.904 155.371 108.494C155.039 108.084 154.508 107.879 153.779 107.879C152.809 107.879 152.1 108.165 151.65 108.738C151.201 109.311 150.977 110.271 150.977 111.619V117H148.682V106.199H150.479L150.801 107.615H150.918C151.243 107.101 151.706 106.704 152.305 106.424C152.904 106.144 153.568 106.004 154.297 106.004C156.888 106.004 158.184 107.322 158.184 109.959V117Z" fill="#1E1D4C"/>
</svg>
