<svg width="190" height="227" viewBox="0 0 190 227" fill="none" xmlns="http://www.w3.org/2000/svg">
<path d="M145 60C145 69.9411 136.941 78 127 78L100 78C97.2386 78 95 75.7614 95 73L95 39C95 33.4772 99.4772 29 105 29L140 29C142.761 29 145 31.2386 145 34L145 60Z" fill="#FFF1DA"/>
<path d="M76.527 50.6574L74.6389 49.7535L63.4222 66.3382H75.9402L77.1464 65.5516V51.225L76.527 50.6574Z" fill="#407093"/>
<path d="M74.8095 49.8353L70.5644 47.803H69.7644L57.7606 65.5516L58.4752 66.3382H63.6483L74.8095 49.8353Z" fill="#365E7D"/>
<path d="M79.4 65.5515H62.8475C62.0956 65.5515 61.486 66.161 61.486 66.9131V68.6385C61.486 69.3903 62.0955 69.9998 62.8473 69.9999H79.4C80.152 69.9999 80.7616 69.3904 80.7616 68.6385V66.9131C80.7616 66.161 80.152 65.5515 79.4 65.5515Z" fill="#4A80AA"/>
<path d="M61.7677 68.6385V66.9131C61.7677 66.1611 62.3774 65.5515 63.1293 65.5515H54.3616C53.6096 65.5515 53 66.161 53 66.9131V68.6385C53 69.3904 53.6096 69.9999 54.3616 69.9999H63.1292C62.3772 69.9999 61.7677 69.3904 61.7677 68.6385Z" fill="#407093"/>
<path d="M74.2397 39.9827C73.7302 41.0338 73.4423 42.2123 73.4423 43.459C73.4423 46.8659 75.5756 49.7721 78.5782 50.9218C79.8673 50.5179 81.0128 49.7893 81.9176 48.8301V47.0893L74.2397 39.9827Z" fill="#4A80AA"/>
<path d="M73.5767 43.4863C73.5767 42.2684 73.8583 41.1173 74.357 40.0909L71.9027 37.8192H70.9069C69.4009 39.2399 68.4595 41.2525 68.4595 43.4862C68.4595 47.7893 71.9477 51.2775 76.2508 51.2775C77.1471 51.2775 78.0067 51.1237 78.8078 50.8449C75.7628 49.7856 73.5767 46.8921 73.5767 43.4863Z" fill="#407093"/>
<path d="M118.812 0.924695C117.579 -0.308232 115.58 -0.308232 114.347 0.924695L111.334 3.93756V4.31941L115.095 8.23954L115.799 8.40223L118.812 5.38937C120.045 4.15658 120.045 2.15762 118.812 0.924695Z" fill="#FFD086"/>
<path d="M119.645 2.41492C119.513 1.86915 119.238 1.35085 118.812 0.924695C117.579 -0.308232 115.58 -0.308232 114.347 0.924695L111.334 3.93756V4.31941L113.328 6.3978C114.517 5.16091 115.697 3.94029 116.304 3.3334C117.316 2.32182 118.793 2.31403 119.645 2.41492Z" fill="#FFC365"/>
<path d="M108.497 8.95026C108.463 8.95026 108.428 8.94848 108.393 8.94507L73.5763 5.51808C72.9957 5.46094 72.5714 4.944 72.6286 4.36336C72.6857 3.78272 73.2029 3.35875 73.7833 3.41549L108.6 6.84234C109.18 6.89949 109.605 7.41642 109.547 7.99706C109.494 8.5427 109.034 8.95026 108.497 8.95026Z" fill="#365E7D"/>
<path d="M83.6459 15.4681C83.1774 15.4681 82.7493 15.1539 82.6249 14.6795C82.4769 14.1151 82.8144 13.5377 83.3787 13.3896L108.229 6.87154C108.793 6.72374 109.371 7.06103 109.519 7.6254C109.667 8.18964 109.329 8.76714 108.765 8.9152L83.9147 15.4333C83.8248 15.4568 83.7345 15.4681 83.6459 15.4681Z" fill="#407093"/>
<path d="M115.247 47.136C114.709 47.136 114.25 46.7281 114.196 46.1823L110.791 11.3445C110.734 10.764 111.159 10.2472 111.739 10.1903C112.32 10.1362 112.837 10.5584 112.893 11.139L116.299 45.9768C116.356 46.5573 115.931 47.0741 115.35 47.131C115.316 47.1342 115.281 47.136 115.247 47.136Z" fill="#365E7D"/>
<path d="M105.225 37.2475C105.136 37.2475 105.045 37.2359 104.954 37.212C104.39 37.0624 104.054 36.4841 104.204 35.9201L110.818 10.9741C110.967 10.41 111.545 10.0746 112.109 10.2236C112.673 10.3732 113.009 10.9515 112.86 11.5155L106.246 36.4615C106.12 36.9348 105.693 37.2475 105.225 37.2475Z" fill="#407093"/>
<path d="M108.307 6.96429L111.327 3.94376L115.791 8.40782L112.771 11.4284L108.307 6.96429Z" fill="#FFC365"/>
<path d="M110.601 9.24573C111.327 8.48557 112.461 7.29995 113.557 6.15999L111.335 3.9375L108.314 6.95843L110.601 9.24573Z" fill="#FFA90F"/>
<path d="M113.451 13.1519C113.181 13.1519 112.91 13.0487 112.704 12.8425L106.894 7.03305C106.482 6.62044 106.482 5.95175 106.894 5.53899C107.307 5.12665 107.976 5.12665 108.388 5.53899L114.198 11.3484C114.611 11.761 114.611 12.4297 114.198 12.8425C113.992 13.0488 113.721 13.1519 113.451 13.1519Z" fill="#4A80AA"/>
<path d="M114.133 49.0376L78.7619 13.36C74.0724 23.9466 73.2581 35.3114 76.7688 45.1115C86.4643 53.8573 100.948 55.2003 114.281 49.7026L114.133 49.0376Z" fill="#B5DCFF"/>
<path d="M78.9502 13.55L70.8463 5.37573L70.0341 5.45585C64.3245 19.3031 65.9917 34.3917 75.6683 44.0684C76.2544 44.6545 76.8609 45.2107 77.4853 45.7383C73.4062 35.9498 74.0691 24.3077 78.9502 13.55Z" fill="#8BCAFF"/>
<path d="M117.365 46.5017L81.4914 10.6282C81.1384 10.6826 80.7985 10.8431 80.5267 11.1149L78.9664 12.6754C78.6313 13.0105 78.4646 13.4481 78.4598 13.8874L114.22 49.647C114.751 50.1787 115.613 50.1787 116.145 49.647L117.365 48.4271C117.897 47.8955 117.897 47.0334 117.365 46.5017Z" fill="#DBEDFF"/>
<path d="M79.0203 12.7021L80.5481 11.1743C80.8295 10.8929 81.1848 10.7318 81.5515 10.6882L73.2352 2.37192C72.7035 1.84022 71.8415 1.84022 71.3096 2.37192L70.0896 3.59199C69.5579 4.12369 69.5579 4.9857 70.0896 5.5174L78.5228 13.9506C78.5117 13.5 78.6764 13.0459 79.0203 12.7021Z" fill="#B5DCFF"/>
<path d="M28.3079 164.816C28.3079 165.888 27.5559 166.512 26.3239 166.512H23.8599V163.04H26.2599C27.4759 163.04 28.3079 163.712 28.3079 164.816ZM28.0199 159.968C28.0199 160.992 27.2999 161.552 26.1159 161.552H23.8599V158.368H26.1159C27.2999 158.368 28.0199 158.96 28.0199 159.968ZM30.1319 165.008C30.1319 163.68 29.1719 162.496 27.9879 162.288C29.0599 161.904 29.8759 161.088 29.8759 159.744C29.8759 158.176 28.6279 156.88 26.2759 156.88H22.0359V168H26.4839C28.7559 168 30.1319 166.704 30.1319 165.008ZM40.0981 159.184H38.2741V164.096C38.2741 165.712 37.3941 166.544 36.0501 166.544C34.7221 166.544 33.8421 165.712 33.8421 164.096V159.184H32.0341V164.368C32.0341 166.832 33.6021 168.128 35.6661 168.128C36.7061 168.128 37.6981 167.696 38.2741 166.944V168H40.0981V159.184ZM42.5047 168H44.3287V159.184H42.5047V168ZM43.4327 158.016C44.0727 158.016 44.5847 157.504 44.5847 156.848C44.5847 156.192 44.0727 155.68 43.4327 155.68C42.7767 155.68 42.2647 156.192 42.2647 156.848C42.2647 157.504 42.7767 158.016 43.4327 158.016ZM46.7234 168H48.5474V156.16H46.7234V168ZM51.2302 165.552C51.2302 167.344 52.2062 168 53.7742 168H55.2142V166.48H54.0942C53.3262 166.48 53.0702 166.208 53.0702 165.552V160.672H55.2142V159.184H53.0702V156.992H51.2302V159.184H50.1902V160.672H51.2302V165.552ZM63.3076 168.016L65.3556 168L67.8356 159.584L70.1716 168H72.2356L75.5316 156.88H73.5796L71.2596 165.888L68.9396 156.88H66.8916L64.3956 165.936L62.0916 156.88H60.1556L63.3076 168.016ZM77.0359 168H78.8599V159.184H77.0359V168ZM77.9639 158.016C78.6039 158.016 79.1159 157.504 79.1159 156.848C79.1159 156.192 78.6039 155.68 77.9639 155.68C77.3079 155.68 76.7959 156.192 76.7959 156.848C76.7959 157.504 77.3079 158.016 77.9639 158.016ZM80.6467 163.584C80.6467 166.352 82.4387 168.144 84.9667 168.144C87.1267 168.144 88.5347 166.944 89.0307 165.216H87.0627C86.7267 166.128 86.0547 166.608 84.9667 166.608C83.4947 166.608 82.5187 165.52 82.5187 163.584C82.5187 161.664 83.4947 160.576 84.9667 160.576C86.0547 160.576 86.7587 161.12 87.0627 161.968H89.0307C88.5347 160.112 87.1267 159.04 84.9667 159.04C82.4387 159.04 80.6467 160.832 80.6467 163.584ZM90.8484 168H92.6724V164.208L95.9364 168H98.4004L94.3364 163.6L98.4004 159.184H95.8724L92.6724 163.04V156.16H90.8484V168ZM103.42 160.576C104.78 160.576 105.852 161.44 105.884 162.8H101.004C101.196 161.408 102.188 160.576 103.42 160.576ZM107.548 165.376H105.58C105.244 166.064 104.62 166.608 103.5 166.608C102.156 166.608 101.116 165.728 100.988 164.272H107.724C107.772 163.968 107.788 163.68 107.788 163.376C107.788 160.784 106.012 159.04 103.5 159.04C100.892 159.04 99.0998 160.816 99.0998 163.584C99.0998 166.352 100.972 168.144 103.5 168.144C105.66 168.144 107.052 166.912 107.548 165.376ZM109.871 165.552C109.871 167.344 110.847 168 112.415 168H113.855V166.48H112.735C111.967 166.48 111.711 166.208 111.711 165.552V160.672H113.855V159.184H111.711V156.992H109.871V159.184H108.831V160.672H109.871V165.552ZM119.692 168H121.516V156.16H119.692V168ZM132.311 163.584C132.311 160.816 130.327 159.04 127.815 159.04C125.303 159.04 123.319 160.816 123.319 163.584C123.319 166.352 125.223 168.144 127.735 168.144C130.263 168.144 132.311 166.352 132.311 163.584ZM125.175 163.584C125.175 161.584 126.407 160.624 127.783 160.624C129.143 160.624 130.439 161.584 130.439 163.584C130.439 165.584 129.095 166.56 127.735 166.56C126.359 166.56 125.175 165.584 125.175 163.584ZM140.37 168H142.178V162.8C142.178 160.336 140.626 159.04 138.562 159.04C137.506 159.04 136.53 159.472 135.938 160.192V159.184H134.114V168H135.938V163.072C135.938 161.456 136.818 160.624 138.162 160.624C139.49 160.624 140.37 161.456 140.37 163.072V168ZM143.897 163.552C143.897 166.272 145.737 168.144 148.057 168.144C149.497 168.144 150.553 167.424 151.113 166.672V168.144C151.113 169.904 150.057 170.768 148.649 170.768C147.385 170.768 146.409 170.144 146.137 169.232H144.329C144.553 171.184 146.297 172.352 148.649 172.352C151.401 172.352 152.953 170.544 152.953 168.144V159.184H151.113V160.464C150.569 159.712 149.497 159.04 148.057 159.04C145.737 159.04 143.897 160.832 143.897 163.552ZM151.113 163.584C151.113 165.488 149.817 166.56 148.441 166.56C147.081 166.56 145.769 165.456 145.769 163.552C145.769 161.648 147.081 160.624 148.441 160.624C149.817 160.624 151.113 161.696 151.113 163.584ZM159.06 160.576C160.42 160.576 161.492 161.44 161.524 162.8H156.644C156.836 161.408 157.828 160.576 159.06 160.576ZM163.188 165.376H161.22C160.884 166.064 160.26 166.608 159.14 166.608C157.796 166.608 156.756 165.728 156.628 164.272H163.364C163.412 163.968 163.428 163.68 163.428 163.376C163.428 160.784 161.652 159.04 159.14 159.04C156.532 159.04 154.74 160.816 154.74 163.584C154.74 166.352 156.612 168.144 159.14 168.144C161.3 168.144 162.692 166.912 163.188 165.376ZM167.047 163.36C167.047 161.488 167.879 160.928 169.223 160.928H169.687V159.04C168.439 159.04 167.559 159.584 167.047 160.464V159.184H165.223V168H167.047V163.36ZM24.9514 189.552C24.9514 192.272 26.7914 194.144 29.0794 194.144C30.5514 194.144 31.6074 193.44 32.1674 192.688V194H34.0074V185.184H32.1674V186.464C31.6234 185.744 30.5994 185.04 29.1114 185.04C26.7914 185.04 24.9514 186.832 24.9514 189.552ZM32.1674 189.584C32.1674 191.488 30.8714 192.56 29.4954 192.56C28.1354 192.56 26.8234 191.456 26.8234 189.552C26.8234 187.648 28.1354 186.624 29.4954 186.624C30.8714 186.624 32.1674 187.696 32.1674 189.584ZM35.7951 189.552C35.7951 192.272 37.6351 194.144 39.9551 194.144C41.3951 194.144 42.4511 193.472 43.0111 192.672V194H44.8511V182.16H43.0111V186.416C42.3391 185.584 41.1231 185.04 39.9711 185.04C37.6351 185.04 35.7951 186.832 35.7951 189.552ZM43.0111 189.584C43.0111 191.488 41.7151 192.56 40.3391 192.56C38.9791 192.56 37.6671 191.456 37.6671 189.552C37.6671 187.648 38.9791 186.624 40.3391 186.624C41.7151 186.624 43.0111 187.696 43.0111 189.584ZM59.7429 194H61.5509V188.8C61.5509 186.336 59.9829 185.04 57.9189 185.04C56.6389 185.04 55.3909 185.712 54.8469 186.784C54.2389 185.632 53.0709 185.04 51.6789 185.04C50.6229 185.04 49.6629 185.472 49.0709 186.192V185.184H47.2469V194H49.0709V189.072C49.0709 187.456 49.9509 186.624 51.2949 186.624C52.6229 186.624 53.5029 187.456 53.5029 189.072V194H55.3109V189.072C55.3109 187.456 56.1909 186.624 57.5349 186.624C58.8629 186.624 59.7429 187.456 59.7429 189.072V194ZM63.8719 194H65.6959V185.184H63.8719V194ZM64.7999 184.016C65.4399 184.016 65.9519 183.504 65.9519 182.848C65.9519 182.192 65.4399 181.68 64.7999 181.68C64.1439 181.68 63.6319 182.192 63.6319 182.848C63.6319 183.504 64.1439 184.016 64.7999 184.016ZM69.9146 189.36C69.9146 187.488 70.7466 186.928 72.0906 186.928H72.5546V185.04C71.3066 185.04 70.4266 185.584 69.9146 186.464V185.184H68.0906V194H69.9146V189.36ZM77.9433 186.576C79.3033 186.576 80.3753 187.44 80.4073 188.8H75.5273C75.7193 187.408 76.7113 186.576 77.9433 186.576ZM82.0712 191.376H80.1033C79.7673 192.064 79.1433 192.608 78.0233 192.608C76.6793 192.608 75.6393 191.728 75.5113 190.272H82.2473C82.2953 189.968 82.3113 189.68 82.3113 189.376C82.3113 186.784 80.5353 185.04 78.0233 185.04C75.4153 185.04 73.6233 186.816 73.6233 189.584C73.6233 192.352 75.4953 194.144 78.0233 194.144C80.1833 194.144 81.5753 192.912 82.0712 191.376ZM87.6545 189.552C87.6545 192.272 89.4945 194.144 91.8145 194.144C93.2545 194.144 94.3105 193.472 94.8705 192.672V194H96.7105V182.16H94.8705V186.416C94.1985 185.584 92.9825 185.04 91.8305 185.04C89.4945 185.04 87.6545 186.832 87.6545 189.552ZM94.8705 189.584C94.8705 191.488 93.5745 192.56 92.1985 192.56C90.8385 192.56 89.5265 191.456 89.5265 189.552C89.5265 187.648 90.8385 186.624 92.1985 186.624C93.5745 186.624 94.8705 187.696 94.8705 189.584ZM107.506 189.584C107.506 186.816 105.522 185.04 103.01 185.04C100.498 185.04 98.5143 186.816 98.5143 189.584C98.5143 192.352 100.418 194.144 102.93 194.144C105.458 194.144 107.506 192.352 107.506 189.584ZM100.37 189.584C100.37 187.584 101.602 186.624 102.978 186.624C104.338 186.624 105.634 187.584 105.634 189.584C105.634 191.584 104.29 192.56 102.93 192.56C101.554 192.56 100.37 191.584 100.37 189.584ZM115.29 186.496V182.16H113.466V194H115.29V192.72C115.866 193.488 116.906 194.144 118.362 194.144C120.682 194.144 122.506 192.272 122.506 189.552C122.506 186.832 120.698 185.04 118.362 185.04C116.97 185.04 115.866 185.696 115.29 186.496ZM120.65 189.552C120.65 191.456 119.338 192.56 117.962 192.56C116.602 192.56 115.29 191.488 115.29 189.584C115.29 187.696 116.602 186.624 117.962 186.624C119.338 186.624 120.65 187.648 120.65 189.552ZM123.701 189.552C123.701 192.272 125.541 194.144 127.829 194.144C129.301 194.144 130.357 193.44 130.917 192.688V194H132.757V185.184H130.917V186.464C130.373 185.744 129.349 185.04 127.861 185.04C125.541 185.04 123.701 186.832 123.701 189.552ZM130.917 189.584C130.917 191.488 129.621 192.56 128.245 192.56C126.885 192.56 125.573 191.456 125.573 189.552C125.573 187.648 126.885 186.624 128.245 186.624C129.621 186.624 130.917 187.696 130.917 189.584ZM136.977 189.36C136.977 187.488 137.809 186.928 139.153 186.928H139.617V185.04C138.369 185.04 137.489 185.584 136.977 186.464V185.184H135.153V194H136.977V189.36ZM141.582 191.552C141.582 193.344 142.558 194 144.126 194H145.566V192.48H144.446C143.678 192.48 143.422 192.208 143.422 191.552V186.672H145.566V185.184H143.422V182.992H141.582V185.184H140.542V186.672H141.582V191.552ZM155.647 189.584C155.647 186.816 153.663 185.04 151.151 185.04C148.639 185.04 146.655 186.816 146.655 189.584C146.655 192.352 148.559 194.144 151.071 194.144C153.599 194.144 155.647 192.352 155.647 189.584ZM148.511 189.584C148.511 187.584 149.743 186.624 151.119 186.624C152.479 186.624 153.775 187.584 153.775 189.584C153.775 191.584 152.431 192.56 151.071 192.56C149.695 192.56 148.511 191.584 148.511 189.584ZM163.706 194H165.514V188.8C165.514 186.336 163.962 185.04 161.898 185.04C160.842 185.04 159.866 185.472 159.274 186.192V185.184H157.45V194H159.274V189.072C159.274 187.456 160.154 186.624 161.498 186.624C162.826 186.624 163.706 187.456 163.706 189.072V194ZM18.4725 211.184L21.8165 220H23.9925L27.3525 211.184H25.4165L22.9205 218.368L20.4245 211.184H18.4725ZM28.1233 215.552C28.1233 218.272 29.9633 220.144 32.2513 220.144C33.7233 220.144 34.7793 219.44 35.3393 218.688V220H37.1793V211.184H35.3393V212.464C34.7953 211.744 33.7713 211.04 32.2833 211.04C29.9633 211.04 28.1233 212.832 28.1233 215.552ZM35.3393 215.584C35.3393 217.488 34.0433 218.56 32.6673 218.56C31.3073 218.56 29.9953 217.456 29.9953 215.552C29.9953 213.648 31.3073 212.624 32.6673 212.624C34.0433 212.624 35.3393 213.696 35.3393 215.584ZM45.831 220H47.639V214.8C47.639 212.336 46.087 211.04 44.023 211.04C42.967 211.04 41.991 211.472 41.399 212.192V211.184H39.575V220H41.399V215.072C41.399 213.456 42.279 212.624 43.623 212.624C44.951 212.624 45.831 213.456 45.831 215.072V220ZM49.9656 220H51.7896V211.184H49.9656V220ZM50.8936 210.016C51.5336 210.016 52.0456 209.504 52.0456 208.848C52.0456 208.192 51.5336 207.68 50.8936 207.68C50.2376 207.68 49.7256 208.192 49.7256 208.848C49.7256 209.504 50.2376 210.016 50.8936 210.016ZM54.4724 217.552C54.4724 219.344 55.4484 220 57.0164 220H58.4564V218.48H57.3364C56.5684 218.48 56.3124 218.208 56.3124 217.552V212.672H58.4564V211.184H56.3124V208.992H54.4724V211.184H53.4324V212.672H54.4724V217.552ZM63.6095 217.904L61.1295 211.184H59.0975L62.5695 219.856L60.7775 224.144H62.6655L68.0735 211.184H66.1855L63.6095 217.904ZM73.6063 220H75.4303V211.184H73.6063V220ZM74.5343 210.016C75.1743 210.016 75.6863 209.504 75.6863 208.848C75.6863 208.192 75.1743 207.68 74.5343 207.68C73.8783 207.68 73.3663 208.192 73.3663 208.848C73.3663 209.504 73.8783 210.016 74.5343 210.016ZM78.113 217.552C78.113 219.344 79.089 220 80.657 220H82.097V218.48H80.977C80.209 218.48 79.953 218.208 79.953 217.552V212.672H82.097V211.184H79.953V208.992H78.113V211.184H77.073V212.672H78.113V217.552ZM90.3541 217.536C90.2581 214.352 85.2821 215.344 85.2821 213.568C85.2821 212.976 85.7941 212.576 86.7701 212.576C87.7621 212.576 88.3541 213.104 88.4181 213.872H90.2421C90.1461 212.112 88.8341 211.04 86.8341 211.04C84.7541 211.04 83.4421 212.176 83.4421 213.584C83.4421 216.816 88.5621 215.824 88.5621 217.552C88.5621 218.16 88.0021 218.608 86.9461 218.608C85.9381 218.608 85.2501 218.016 85.1861 217.296H83.2981C83.3781 218.896 84.8661 220.144 86.9781 220.144C89.0581 220.144 90.3541 219.024 90.3541 217.536ZM96.037 212.576C97.397 212.576 98.469 213.44 98.501 214.8H93.621C93.813 213.408 94.805 212.576 96.037 212.576ZM100.165 217.376H98.197C97.861 218.064 97.237 218.608 96.117 218.608C94.773 218.608 93.733 217.728 93.605 216.272H100.341C100.389 215.968 100.405 215.68 100.405 215.376C100.405 212.784 98.629 211.04 96.117 211.04C93.509 211.04 91.717 212.816 91.717 215.584C91.717 218.352 93.589 220.144 96.117 220.144C98.277 220.144 99.669 218.912 100.165 217.376ZM102.2 220H104.024V208.16H102.2V220ZM106.643 220H108.483V212.672H110.115V211.184H108.483V210.56C108.483 209.552 108.867 209.168 109.987 209.168V207.648C107.683 207.648 106.643 208.528 106.643 210.56V211.184H105.603V212.672H106.643V220ZM115.28 215.552C115.28 218.272 117.12 220.144 119.44 220.144C120.88 220.144 121.936 219.472 122.496 218.672V220H124.336V208.16H122.496V212.416C121.824 211.584 120.608 211.04 119.456 211.04C117.12 211.04 115.28 212.832 115.28 215.552ZM122.496 215.584C122.496 217.488 121.2 218.56 119.824 218.56C118.464 218.56 117.152 217.456 117.152 215.552C117.152 213.648 118.464 212.624 119.824 212.624C121.2 212.624 122.496 213.696 122.496 215.584ZM135.131 215.584C135.131 212.816 133.147 211.04 130.635 211.04C128.123 211.04 126.139 212.816 126.139 215.584C126.139 218.352 128.043 220.144 130.555 220.144C133.083 220.144 135.131 218.352 135.131 215.584ZM127.995 215.584C127.995 213.584 129.227 212.624 130.603 212.624C131.963 212.624 133.259 213.584 133.259 215.584C133.259 217.584 131.915 218.56 130.555 218.56C129.179 218.56 127.995 217.584 127.995 215.584ZM141.091 220H142.915V211.184H141.091V220ZM142.019 210.016C142.659 210.016 143.171 209.504 143.171 208.848C143.171 208.192 142.659 207.68 142.019 207.68C141.363 207.68 140.851 208.192 140.851 208.848C140.851 209.504 141.363 210.016 142.019 210.016ZM151.565 220H153.373V214.8C153.373 212.336 151.821 211.04 149.757 211.04C148.701 211.04 147.725 211.472 147.133 212.192V211.184H145.309V220H147.133V215.072C147.133 213.456 148.013 212.624 149.357 212.624C150.685 212.624 151.565 213.456 151.565 215.072V220ZM159.856 220H161.68V211.184H159.856V220ZM160.784 210.016C161.424 210.016 161.936 209.504 161.936 208.848C161.936 208.192 161.424 207.68 160.784 207.68C160.128 207.68 159.616 208.192 159.616 208.848C159.616 209.504 160.128 210.016 160.784 210.016ZM164.363 217.552C164.363 219.344 165.339 220 166.907 220H168.347V218.48H167.227C166.459 218.48 166.203 218.208 166.203 217.552V212.672H168.347V211.184H166.203V208.992H164.363V211.184H163.323V212.672H164.363V217.552ZM171.916 218.944C171.916 218.288 171.404 217.776 170.764 217.776C170.108 217.776 169.596 218.288 169.596 218.944C169.596 219.6 170.108 220.112 170.764 220.112C171.404 220.112 171.916 219.6 171.916 218.944Z" fill="#5E6282"/>
<path d="M8.22266 115.52C6.88151 115.52 5.82682 115.995 5.05859 116.945C4.29036 117.896 3.90625 119.208 3.90625 120.881C3.90625 122.632 4.27409 123.957 5.00977 124.855C5.75195 125.754 6.82292 126.203 8.22266 126.203C8.82812 126.203 9.41406 126.145 9.98047 126.027C10.5469 125.904 11.1361 125.747 11.748 125.559V127.561C10.6283 127.984 9.35872 128.195 7.93945 128.195C5.84961 128.195 4.24479 127.564 3.125 126.301C2.00521 125.031 1.44531 123.218 1.44531 120.861C1.44531 119.377 1.71549 118.078 2.25586 116.965C2.80273 115.852 3.59049 114.999 4.61914 114.406C5.64779 113.814 6.85547 113.518 8.24219 113.518C9.70052 113.518 11.0482 113.824 12.2852 114.436L11.4453 116.379C10.9635 116.151 10.4525 115.952 9.91211 115.783C9.37826 115.607 8.8151 115.52 8.22266 115.52ZM21.3379 128L20.8789 126.496H20.8008C20.2799 127.154 19.7559 127.603 19.2285 127.844C18.7012 128.078 18.0241 128.195 17.1973 128.195C16.1361 128.195 15.306 127.909 14.707 127.336C14.1146 126.763 13.8184 125.952 13.8184 124.904C13.8184 123.791 14.2318 122.951 15.0586 122.385C15.8854 121.818 17.1452 121.509 18.8379 121.457L20.7031 121.398V120.822C20.7031 120.132 20.5404 119.618 20.2148 119.279C19.8958 118.934 19.3978 118.762 18.7207 118.762C18.1673 118.762 17.6367 118.843 17.1289 119.006C16.6211 119.169 16.1328 119.361 15.6641 119.582L14.9219 117.941C15.5078 117.635 16.1491 117.404 16.8457 117.248C17.5423 117.085 18.1999 117.004 18.8184 117.004C20.1921 117.004 21.2272 117.303 21.9238 117.902C22.627 118.501 22.9785 119.442 22.9785 120.725V128H21.3379ZM17.9199 126.438C18.7533 126.438 19.4206 126.206 19.9219 125.744C20.4297 125.275 20.6836 124.621 20.6836 123.781V122.844L19.2969 122.902C18.2161 122.941 17.4284 123.124 16.9336 123.449C16.4453 123.768 16.2012 124.26 16.2012 124.924C16.2012 125.406 16.3444 125.78 16.6309 126.047C16.9173 126.307 17.347 126.438 17.9199 126.438ZM28.4766 128H26.1816V112.805H28.4766V128ZM36.123 128.195C34.4889 128.195 33.2454 127.72 32.3926 126.77C31.5462 125.812 31.123 124.442 31.123 122.658C31.123 120.842 31.5658 119.445 32.4512 118.469C33.3431 117.492 34.6289 117.004 36.3086 117.004C37.4479 117.004 38.4733 117.215 39.3848 117.639L38.6914 119.484C37.7214 119.107 36.9206 118.918 36.2891 118.918C34.4206 118.918 33.4863 120.158 33.4863 122.639C33.4863 123.85 33.7174 124.761 34.1797 125.373C34.6484 125.979 35.332 126.281 36.2305 126.281C37.2526 126.281 38.2194 126.027 39.1309 125.52V127.521C38.7207 127.762 38.2812 127.935 37.8125 128.039C37.3503 128.143 36.7871 128.195 36.123 128.195ZM49.2871 128L48.9648 126.584H48.8477C48.5286 127.085 48.0729 127.479 47.4805 127.766C46.8945 128.052 46.224 128.195 45.4688 128.195C44.1602 128.195 43.1836 127.87 42.5391 127.219C41.8945 126.568 41.5723 125.581 41.5723 124.26V117.199H43.8867V123.859C43.8867 124.686 44.056 125.308 44.3945 125.725C44.7331 126.135 45.2637 126.34 45.9863 126.34C46.9499 126.34 47.6562 126.053 48.1055 125.48C48.5612 124.901 48.7891 123.934 48.7891 122.58V117.199H51.0938V128H49.2871ZM56.6602 128H54.3652V112.805H56.6602V128ZM66.709 128L66.25 126.496H66.1719C65.651 127.154 65.127 127.603 64.5996 127.844C64.0723 128.078 63.3952 128.195 62.5684 128.195C61.5072 128.195 60.6771 127.909 60.0781 127.336C59.4857 126.763 59.1895 125.952 59.1895 124.904C59.1895 123.791 59.6029 122.951 60.4297 122.385C61.2565 121.818 62.5163 121.509 64.209 121.457L66.0742 121.398V120.822C66.0742 120.132 65.9115 119.618 65.5859 119.279C65.2669 118.934 64.7689 118.762 64.0918 118.762C63.5384 118.762 63.0078 118.843 62.5 119.006C61.9922 119.169 61.5039 119.361 61.0352 119.582L60.293 117.941C60.8789 117.635 61.5202 117.404 62.2168 117.248C62.9134 117.085 63.571 117.004 64.1895 117.004C65.5632 117.004 66.5983 117.303 67.2949 117.902C67.998 118.501 68.3496 119.442 68.3496 120.725V128H66.709ZM63.291 126.438C64.1243 126.438 64.7917 126.206 65.293 125.744C65.8008 125.275 66.0547 124.621 66.0547 123.781V122.844L64.668 122.902C63.5872 122.941 62.7995 123.124 62.3047 123.449C61.8164 123.768 61.5723 124.26 61.5723 124.924C61.5723 125.406 61.7155 125.78 62.002 126.047C62.2884 126.307 62.7181 126.438 63.291 126.438ZM75.5762 126.34C76.1361 126.34 76.696 126.252 77.2559 126.076V127.805C77.002 127.915 76.6732 128.007 76.2695 128.078C75.8724 128.156 75.459 128.195 75.0293 128.195C72.8548 128.195 71.7676 127.049 71.7676 124.758V118.938H70.293V117.922L71.875 117.082L72.6562 114.797H74.0723V117.199H77.1484V118.938H74.0723V124.719C74.0723 125.272 74.209 125.682 74.4824 125.949C74.7624 126.21 75.127 126.34 75.5762 126.34ZM84.1406 128.195C82.4609 128.195 81.1458 127.707 80.1953 126.73C79.2513 125.747 78.7793 124.396 78.7793 122.678C78.7793 120.913 79.2188 119.527 80.0977 118.518C80.9766 117.508 82.1842 117.004 83.7207 117.004C85.1465 117.004 86.2728 117.437 87.0996 118.303C87.9264 119.169 88.3398 120.36 88.3398 121.877V123.117H81.1426C81.1751 124.165 81.4583 124.973 81.9922 125.539C82.526 126.099 83.278 126.379 84.248 126.379C84.8861 126.379 85.4785 126.32 86.0254 126.203C86.5788 126.079 87.1712 125.878 87.8027 125.598V127.463C87.2428 127.73 86.6764 127.919 86.1035 128.029C85.5306 128.14 84.8763 128.195 84.1406 128.195ZM83.7207 118.742C82.9915 118.742 82.4056 118.973 81.9629 119.436C81.5267 119.898 81.2663 120.572 81.1816 121.457H86.084C86.071 120.565 85.8561 119.891 85.4395 119.436C85.0228 118.973 84.4499 118.742 83.7207 118.742ZM94.5898 128.195C93.2422 128.195 92.1908 127.707 91.4355 126.73C90.6803 125.754 90.3027 124.383 90.3027 122.619C90.3027 120.848 90.6836 119.471 91.4453 118.488C92.2135 117.499 93.2747 117.004 94.6289 117.004C96.0482 117.004 97.1289 117.528 97.8711 118.576H97.9883C97.8776 117.801 97.8223 117.189 97.8223 116.74V112.805H100.127V128H98.3301L97.9297 126.584H97.8223C97.0866 127.658 96.0091 128.195 94.5898 128.195ZM95.2051 126.34C96.1491 126.34 96.8359 126.076 97.2656 125.549C97.6953 125.015 97.9167 124.152 97.9297 122.961V122.639C97.9297 121.278 97.7083 120.311 97.2656 119.738C96.8229 119.165 96.1296 118.879 95.1855 118.879C94.3783 118.879 93.7565 119.208 93.3203 119.865C92.8841 120.516 92.666 121.447 92.666 122.658C92.666 123.856 92.8776 124.771 93.3008 125.402C93.724 126.027 94.3587 126.34 95.2051 126.34ZM122.021 128H119.482L117.061 119.484C116.956 119.113 116.826 118.579 116.67 117.883C116.514 117.18 116.419 116.691 116.387 116.418C116.322 116.835 116.214 117.375 116.064 118.039C115.921 118.703 115.801 119.198 115.703 119.523L113.34 128H110.801L108.955 120.852L107.08 113.723H109.463L111.504 122.043C111.823 123.378 112.051 124.556 112.188 125.578C112.259 125.025 112.367 124.406 112.51 123.723C112.653 123.039 112.783 122.486 112.9 122.062L115.225 113.723H117.539L119.922 122.102C120.15 122.876 120.391 124.035 120.645 125.578C120.742 124.647 120.977 123.462 121.348 122.023L123.379 113.723H125.742L122.021 128ZM132.246 128.195C130.566 128.195 129.251 127.707 128.301 126.73C127.357 125.747 126.885 124.396 126.885 122.678C126.885 120.913 127.324 119.527 128.203 118.518C129.082 117.508 130.29 117.004 131.826 117.004C133.252 117.004 134.378 117.437 135.205 118.303C136.032 119.169 136.445 120.36 136.445 121.877V123.117H129.248C129.281 124.165 129.564 124.973 130.098 125.539C130.632 126.099 131.383 126.379 132.354 126.379C132.992 126.379 133.584 126.32 134.131 126.203C134.684 126.079 135.277 125.878 135.908 125.598V127.463C135.348 127.73 134.782 127.919 134.209 128.029C133.636 128.14 132.982 128.195 132.246 128.195ZM131.826 118.742C131.097 118.742 130.511 118.973 130.068 119.436C129.632 119.898 129.372 120.572 129.287 121.457H134.189C134.176 120.565 133.962 119.891 133.545 119.436C133.128 118.973 132.555 118.742 131.826 118.742ZM145.811 128L145.352 126.496H145.273C144.753 127.154 144.229 127.603 143.701 127.844C143.174 128.078 142.497 128.195 141.67 128.195C140.609 128.195 139.779 127.909 139.18 127.336C138.587 126.763 138.291 125.952 138.291 124.904C138.291 123.791 138.704 122.951 139.531 122.385C140.358 121.818 141.618 121.509 143.311 121.457L145.176 121.398V120.822C145.176 120.132 145.013 119.618 144.688 119.279C144.368 118.934 143.87 118.762 143.193 118.762C142.64 118.762 142.109 118.843 141.602 119.006C141.094 119.169 140.605 119.361 140.137 119.582L139.395 117.941C139.98 117.635 140.622 117.404 141.318 117.248C142.015 117.085 142.673 117.004 143.291 117.004C144.665 117.004 145.7 117.303 146.396 117.902C147.1 118.501 147.451 119.442 147.451 120.725V128H145.811ZM142.393 126.438C143.226 126.438 143.893 126.206 144.395 125.744C144.902 125.275 145.156 124.621 145.156 123.781V122.844L143.77 122.902C142.689 122.941 141.901 123.124 141.406 123.449C140.918 123.768 140.674 124.26 140.674 124.924C140.674 125.406 140.817 125.78 141.104 126.047C141.39 126.307 141.82 126.438 142.393 126.438ZM154.678 126.34C155.238 126.34 155.798 126.252 156.357 126.076V127.805C156.104 127.915 155.775 128.007 155.371 128.078C154.974 128.156 154.561 128.195 154.131 128.195C151.956 128.195 150.869 127.049 150.869 124.758V118.938H149.395V117.922L150.977 117.082L151.758 114.797H153.174V117.199H156.25V118.938H153.174V124.719C153.174 125.272 153.311 125.682 153.584 125.949C153.864 126.21 154.229 126.34 154.678 126.34ZM168.027 128H165.723V121.359C165.723 120.526 165.553 119.904 165.215 119.494C164.883 119.084 164.352 118.879 163.623 118.879C162.66 118.879 161.95 119.169 161.494 119.748C161.045 120.321 160.82 121.285 160.82 122.639V128H158.525V112.805H160.82V116.662C160.82 117.281 160.781 117.941 160.703 118.645H160.85C161.162 118.124 161.595 117.72 162.148 117.434C162.708 117.147 163.359 117.004 164.102 117.004C166.719 117.004 168.027 118.322 168.027 120.959V128ZM175.938 128.195C174.258 128.195 172.943 127.707 171.992 126.73C171.048 125.747 170.576 124.396 170.576 122.678C170.576 120.913 171.016 119.527 171.895 118.518C172.773 117.508 173.981 117.004 175.518 117.004C176.943 117.004 178.07 117.437 178.896 118.303C179.723 119.169 180.137 120.36 180.137 121.877V123.117H172.939C172.972 124.165 173.255 124.973 173.789 125.539C174.323 126.099 175.075 126.379 176.045 126.379C176.683 126.379 177.275 126.32 177.822 126.203C178.376 126.079 178.968 125.878 179.6 125.598V127.463C179.04 127.73 178.473 127.919 177.9 128.029C177.327 128.14 176.673 128.195 175.938 128.195ZM175.518 118.742C174.788 118.742 174.202 118.973 173.76 119.436C173.324 119.898 173.063 120.572 172.979 121.457H177.881C177.868 120.565 177.653 119.891 177.236 119.436C176.82 118.973 176.247 118.742 175.518 118.742ZM188.223 117.004C188.685 117.004 189.066 117.036 189.365 117.102L189.141 119.24C188.815 119.162 188.477 119.123 188.125 119.123C187.207 119.123 186.462 119.423 185.889 120.021C185.322 120.62 185.039 121.398 185.039 122.355V128H182.744V117.199H184.541L184.844 119.104H184.961C185.319 118.459 185.785 117.948 186.357 117.57C186.937 117.193 187.559 117.004 188.223 117.004Z" fill="#1E1D4C"/>
</svg>
