<svg width="427" height="496" viewBox="0 0 427 496" fill="none" xmlns="http://www.w3.org/2000/svg">
<path d="M45 279C45 262.431 58.4315 249 75 249H145V339C145 344.523 140.523 349 135 349H45V279Z" fill="#DF6951"/>
<g filter="url(#filter0_dddddd_1_326)">
<rect x="80" y="2" width="267" height="314" rx="36" fill="white"/>
</g>
<path d="M141.617 200.864H135.473V212H141.617V210.512H137.297V207.104H141.137V205.616H137.297V202.352H141.617V200.864ZM150.12 212H151.928V206.8C151.928 204.336 150.376 203.04 148.312 203.04C147.256 203.04 146.28 203.472 145.688 204.192V203.184H143.864V212H145.688V207.072C145.688 205.456 146.568 204.624 147.912 204.624C149.24 204.624 150.12 205.456 150.12 207.072V212ZM153.647 207.552C153.647 210.272 155.487 212.144 157.807 212.144C159.247 212.144 160.303 211.424 160.863 210.672V212.144C160.863 213.904 159.807 214.768 158.399 214.768C157.135 214.768 156.159 214.144 155.887 213.232H154.079C154.303 215.184 156.047 216.352 158.399 216.352C161.151 216.352 162.703 214.544 162.703 212.144V203.184H160.863V204.464C160.319 203.712 159.247 203.04 157.807 203.04C155.487 203.04 153.647 204.832 153.647 207.552ZM160.863 207.584C160.863 209.488 159.567 210.56 158.191 210.56C156.831 210.56 155.519 209.456 155.519 207.552C155.519 205.648 156.831 204.624 158.191 204.624C159.567 204.624 160.863 205.696 160.863 207.584ZM166.922 207.36C166.922 205.488 167.754 204.928 169.098 204.928H169.562V203.04C168.314 203.04 167.434 203.584 166.922 204.464V203.184H165.098V212H166.922V207.36ZM179.639 207.584C179.639 204.816 177.655 203.04 175.143 203.04C172.631 203.04 170.647 204.816 170.647 207.584C170.647 210.352 172.551 212.144 175.063 212.144C177.591 212.144 179.639 210.352 179.639 207.584ZM172.503 207.584C172.503 205.584 173.735 204.624 175.111 204.624C176.471 204.624 177.767 205.584 177.767 207.584C177.767 209.584 176.423 210.56 175.063 210.56C173.687 210.56 172.503 209.584 172.503 207.584ZM188.018 209.536C187.922 206.352 182.946 207.344 182.946 205.568C182.946 204.976 183.458 204.576 184.434 204.576C185.426 204.576 186.018 205.104 186.082 205.872H187.906C187.81 204.112 186.498 203.04 184.498 203.04C182.418 203.04 181.106 204.176 181.106 205.584C181.106 208.816 186.226 207.824 186.226 209.552C186.226 210.16 185.666 210.608 184.61 210.608C183.602 210.608 182.914 210.016 182.85 209.296H180.962C181.042 210.896 182.53 212.144 184.642 212.144C186.722 212.144 188.018 211.024 188.018 209.536ZM196.565 209.536C196.469 206.352 191.493 207.344 191.493 205.568C191.493 204.976 192.005 204.576 192.981 204.576C193.973 204.576 194.565 205.104 194.629 205.872H196.453C196.357 204.112 195.045 203.04 193.045 203.04C190.965 203.04 189.653 204.176 189.653 205.584C189.653 208.816 194.773 207.824 194.773 209.552C194.773 210.16 194.213 210.608 193.157 210.608C192.149 210.608 191.461 210.016 191.397 209.296H189.509C189.589 210.896 191.077 212.144 193.189 212.144C195.269 212.144 196.565 211.024 196.565 209.536ZM202.248 204.576C203.608 204.576 204.68 205.44 204.712 206.8H199.832C200.024 205.408 201.016 204.576 202.248 204.576ZM206.376 209.376H204.408C204.072 210.064 203.448 210.608 202.328 210.608C200.984 210.608 199.944 209.728 199.816 208.272H206.552C206.6 207.968 206.616 207.68 206.616 207.376C206.616 204.784 204.84 203.04 202.328 203.04C199.72 203.04 197.928 204.816 197.928 207.584C197.928 210.352 199.8 212.144 202.328 212.144C204.488 212.144 205.88 210.912 206.376 209.376ZM207.803 207.552C207.803 210.272 209.643 212.144 211.963 212.144C213.403 212.144 214.459 211.472 215.019 210.672V212H216.859V200.16H215.019V204.416C214.347 203.584 213.131 203.04 211.979 203.04C209.643 203.04 207.803 204.832 207.803 207.552ZM215.019 207.584C215.019 209.488 213.723 210.56 212.347 210.56C210.987 210.56 209.675 209.456 209.675 207.552C209.675 205.648 210.987 204.624 212.347 204.624C213.723 204.624 215.019 205.696 215.019 207.584ZM223.411 212H225.235V200.16H223.411V212ZM227.63 212H229.454V203.184H227.63V212ZM228.558 202.016C229.198 202.016 229.71 201.504 229.71 200.848C229.71 200.192 229.198 199.68 228.558 199.68C227.902 199.68 227.39 200.192 227.39 200.848C227.39 201.504 227.902 202.016 228.558 202.016ZM238.424 209.536C238.328 206.352 233.352 207.344 233.352 205.568C233.352 204.976 233.864 204.576 234.84 204.576C235.832 204.576 236.424 205.104 236.488 205.872H238.312C238.216 204.112 236.904 203.04 234.904 203.04C232.824 203.04 231.512 204.176 231.512 205.584C231.512 208.816 236.632 207.824 236.632 209.552C236.632 210.16 236.072 210.608 235.016 210.608C234.008 210.608 233.32 210.016 233.256 209.296H231.368C231.448 210.896 232.936 212.144 235.048 212.144C237.128 212.144 238.424 211.024 238.424 209.536ZM240.683 209.552C240.683 211.344 241.659 212 243.227 212H244.667V210.48H243.547C242.779 210.48 242.523 210.208 242.523 209.552V204.672H244.667V203.184H242.523V200.992H240.683V203.184H239.643V204.672H240.683V209.552ZM250.06 204.576C251.42 204.576 252.492 205.44 252.524 206.8H247.644C247.836 205.408 248.828 204.576 250.06 204.576ZM254.188 209.376H252.22C251.884 210.064 251.26 210.608 250.14 210.608C248.796 210.608 247.756 209.728 247.628 208.272H254.364C254.412 207.968 254.428 207.68 254.428 207.376C254.428 204.784 252.652 203.04 250.14 203.04C247.532 203.04 245.74 204.816 245.74 207.584C245.74 210.352 247.612 212.144 250.14 212.144C252.3 212.144 253.692 210.912 254.188 209.376ZM262.479 212H264.287V206.8C264.287 204.336 262.735 203.04 260.671 203.04C259.615 203.04 258.639 203.472 258.047 204.192V203.184H256.223V212H258.047V207.072C258.047 205.456 258.927 204.624 260.271 204.624C261.599 204.624 262.479 205.456 262.479 207.072V212ZM266.614 212H268.438V203.184H266.614V212ZM267.542 202.016C268.182 202.016 268.694 201.504 268.694 200.848C268.694 200.192 268.182 199.68 267.542 199.68C266.886 199.68 266.374 200.192 266.374 200.848C266.374 201.504 266.886 202.016 267.542 202.016ZM277.089 212H278.897V206.8C278.897 204.336 277.345 203.04 275.281 203.04C274.225 203.04 273.249 203.472 272.657 204.192V203.184H270.833V212H272.657V207.072C272.657 205.456 273.537 204.624 274.881 204.624C276.209 204.624 277.089 205.456 277.089 207.072V212ZM280.615 207.552C280.615 210.272 282.455 212.144 284.775 212.144C286.215 212.144 287.271 211.424 287.831 210.672V212.144C287.831 213.904 286.775 214.768 285.367 214.768C284.103 214.768 283.127 214.144 282.855 213.232H281.047C281.271 215.184 283.015 216.352 285.367 216.352C288.119 216.352 289.671 214.544 289.671 212.144V203.184H287.831V204.464C287.287 203.712 286.215 203.04 284.775 203.04C282.455 203.04 280.615 204.832 280.615 207.552ZM287.831 207.584C287.831 209.488 286.535 210.56 285.159 210.56C283.799 210.56 282.487 209.456 282.487 207.552C282.487 205.648 283.799 204.624 285.159 204.624C286.535 204.624 287.831 205.696 287.831 207.584ZM293.955 210.944C293.955 210.288 293.443 209.776 292.803 209.776C292.147 209.776 291.635 210.288 291.635 210.944C291.635 211.6 292.147 212.112 292.803 212.112C293.443 212.112 293.955 211.6 293.955 210.944ZM143.657 232V228.368H145.673C147.097 228.368 147.737 229.04 147.737 230.192C147.737 231.312 147.097 232 145.673 232H143.657ZM149.609 230.192C149.609 228.384 148.313 226.88 145.673 226.88H141.833V238H143.657V233.488H145.673C148.569 233.488 149.609 231.776 149.609 230.192ZM150.74 233.552C150.74 236.272 152.58 238.144 154.868 238.144C156.34 238.144 157.396 237.44 157.956 236.688V238H159.796V229.184H157.956V230.464C157.412 229.744 156.388 229.04 154.9 229.04C152.58 229.04 150.74 230.832 150.74 233.552ZM157.956 233.584C157.956 235.488 156.66 236.56 155.284 236.56C153.924 236.56 152.612 235.456 152.612 233.552C152.612 231.648 153.924 230.624 155.284 230.624C156.66 230.624 157.956 231.696 157.956 233.584ZM164.016 233.36C164.016 231.488 164.848 230.928 166.192 230.928H166.656V229.04C165.408 229.04 164.528 229.584 164.016 230.464V229.184H162.192V238H164.016V233.36ZM168.333 238H170.157V234.208L173.421 238H175.885L171.821 233.6L175.885 229.184H173.357L170.157 233.04V226.16H168.333V238ZM180.74 233.552C180.74 236.272 182.58 238.144 184.9 238.144C186.34 238.144 187.396 237.424 187.956 236.672V238.144C187.956 239.904 186.9 240.768 185.492 240.768C184.228 240.768 183.252 240.144 182.98 239.232H181.172C181.396 241.184 183.14 242.352 185.492 242.352C188.244 242.352 189.796 240.544 189.796 238.144V229.184H187.956V230.464C187.412 229.712 186.34 229.04 184.9 229.04C182.58 229.04 180.74 230.832 180.74 233.552ZM187.956 233.584C187.956 235.488 186.66 236.56 185.284 236.56C183.924 236.56 182.612 235.456 182.612 233.552C182.612 231.648 183.924 230.624 185.284 230.624C186.66 230.624 187.956 231.696 187.956 233.584ZM191.584 233.552C191.584 236.272 193.424 238.144 195.712 238.144C197.184 238.144 198.24 237.44 198.8 236.688V238H200.64V229.184H198.8V230.464C198.256 229.744 197.232 229.04 195.744 229.04C193.424 229.04 191.584 230.832 191.584 233.552ZM198.8 233.584C198.8 235.488 197.504 236.56 196.128 236.56C194.768 236.56 193.456 235.456 193.456 233.552C193.456 231.648 194.768 230.624 196.128 230.624C197.504 230.624 198.8 231.696 198.8 233.584ZM203.324 235.552C203.324 237.344 204.3 238 205.868 238H207.308V236.48H206.188C205.42 236.48 205.164 236.208 205.164 235.552V230.672H207.308V229.184H205.164V226.992H203.324V229.184H202.284V230.672H203.324V235.552ZM212.701 230.576C214.061 230.576 215.133 231.44 215.165 232.8H210.285C210.477 231.408 211.469 230.576 212.701 230.576ZM216.829 235.376H214.861C214.525 236.064 213.901 236.608 212.781 236.608C211.437 236.608 210.397 235.728 210.269 234.272H217.005C217.053 233.968 217.069 233.68 217.069 233.376C217.069 230.784 215.293 229.04 212.781 229.04C210.173 229.04 208.381 230.816 208.381 233.584C208.381 236.352 210.253 238.144 212.781 238.144C214.941 238.144 216.333 236.912 216.829 235.376ZM229.596 235.536C229.5 232.352 224.524 233.344 224.524 231.568C224.524 230.976 225.036 230.576 226.012 230.576C227.004 230.576 227.596 231.104 227.66 231.872H229.484C229.388 230.112 228.076 229.04 226.076 229.04C223.996 229.04 222.684 230.176 222.684 231.584C222.684 234.816 227.804 233.824 227.804 235.552C227.804 236.16 227.244 236.608 226.188 236.608C225.18 236.608 224.492 236.016 224.428 235.296H222.54C222.62 236.896 224.108 238.144 226.22 238.144C228.3 238.144 229.596 237.024 229.596 235.536ZM235.279 230.576C236.639 230.576 237.711 231.44 237.743 232.8H232.863C233.055 231.408 234.047 230.576 235.279 230.576ZM239.407 235.376H237.439C237.103 236.064 236.479 236.608 235.359 236.608C234.015 236.608 232.975 235.728 232.847 234.272H239.583C239.631 233.968 239.647 233.68 239.647 233.376C239.647 230.784 237.871 229.04 235.359 229.04C232.751 229.04 230.959 230.816 230.959 233.584C230.959 236.352 232.831 238.144 235.359 238.144C237.519 238.144 238.911 236.912 239.407 235.376ZM241.442 238H243.266V226.16H241.442V238ZM245.661 238H247.485V226.16H245.661V238ZM254.324 235.552C254.324 237.344 255.3 238 256.868 238H258.308V236.48H257.188C256.42 236.48 256.164 236.208 256.164 235.552V230.672H258.308V229.184H256.164V226.992H254.324V229.184H253.284V230.672H254.324V235.552ZM259.989 238H261.813V233.072C261.813 231.456 262.693 230.624 264.037 230.624C265.365 230.624 266.245 231.456 266.245 233.072V238H268.053V232.8C268.053 230.336 266.517 229.04 264.549 229.04C263.413 229.04 262.421 229.472 261.813 230.208V226.16H259.989V238ZM274.092 230.576C275.452 230.576 276.524 231.44 276.556 232.8H271.676C271.868 231.408 272.86 230.576 274.092 230.576ZM278.22 235.376H276.252C275.916 236.064 275.292 236.608 274.172 236.608C272.828 236.608 271.788 235.728 271.66 234.272H278.396C278.444 233.968 278.46 233.68 278.46 233.376C278.46 230.784 276.684 229.04 274.172 229.04C271.564 229.04 269.772 230.816 269.772 233.584C269.772 236.352 271.644 238.144 274.172 238.144C276.332 238.144 277.724 236.912 278.22 235.376ZM283.727 235.904L281.247 229.184H279.215L282.687 237.856L280.895 242.144H282.783L288.191 229.184H286.303L283.727 235.904ZM147.412 264H149.332L151.108 257.488L152.884 264H154.804L157.54 255.184H155.748L153.924 262.24L152.132 255.184H150.228L148.356 262.272L146.516 255.184H144.66L147.412 264ZM162.615 256.576C163.975 256.576 165.047 257.44 165.079 258.8H160.199C160.391 257.408 161.383 256.576 162.615 256.576ZM166.743 261.376H164.775C164.439 262.064 163.815 262.608 162.695 262.608C161.351 262.608 160.311 261.728 160.183 260.272H166.919C166.967 259.968 166.983 259.68 166.983 259.376C166.983 256.784 165.207 255.04 162.695 255.04C160.087 255.04 158.295 256.816 158.295 259.584C158.295 262.352 160.167 264.144 162.695 264.144C164.855 264.144 166.247 262.912 166.743 261.376ZM175.354 261.536C175.258 258.352 170.282 259.344 170.282 257.568C170.282 256.976 170.794 256.576 171.77 256.576C172.762 256.576 173.354 257.104 173.418 257.872H175.242C175.146 256.112 173.834 255.04 171.834 255.04C169.754 255.04 168.442 256.176 168.442 257.584C168.442 260.816 173.562 259.824 173.562 261.552C173.562 262.16 173.002 262.608 171.946 262.608C170.938 262.608 170.25 262.016 170.186 261.296H168.298C168.378 262.896 169.866 264.144 171.978 264.144C174.058 264.144 175.354 263.024 175.354 261.536ZM177.613 261.552C177.613 263.344 178.589 264 180.157 264H181.597V262.48H180.477C179.709 262.48 179.453 262.208 179.453 261.552V256.672H181.597V255.184H179.453V252.992H177.613V255.184H176.573V256.672H177.613V261.552ZM187.434 264H189.258V259.072C189.258 257.456 190.138 256.624 191.482 256.624C192.81 256.624 193.69 257.456 193.69 259.072V264H195.498V258.8C195.498 256.336 193.962 255.04 191.994 255.04C190.858 255.04 189.866 255.472 189.258 256.208V252.16H187.434V264ZM197.217 259.552C197.217 262.272 199.057 264.144 201.345 264.144C202.817 264.144 203.873 263.44 204.433 262.688V264H206.273V255.184H204.433V256.464C203.889 255.744 202.865 255.04 201.377 255.04C199.057 255.04 197.217 256.832 197.217 259.552ZM204.433 259.584C204.433 261.488 203.137 262.56 201.761 262.56C200.401 262.56 199.089 261.456 199.089 259.552C199.089 257.648 200.401 256.624 201.761 256.624C203.137 256.624 204.433 257.696 204.433 259.584ZM210.493 259.36C210.493 257.488 211.325 256.928 212.669 256.928H213.133V255.04C211.885 255.04 211.005 255.584 210.493 256.464V255.184H208.669V264H210.493V259.36ZM214.201 259.552C214.201 262.272 216.041 264.144 218.361 264.144C219.801 264.144 220.857 263.472 221.417 262.672V264H223.257V252.16H221.417V256.416C220.745 255.584 219.529 255.04 218.377 255.04C216.041 255.04 214.201 256.832 214.201 259.552ZM221.417 259.584C221.417 261.488 220.121 262.56 218.745 262.56C217.385 262.56 216.073 261.456 216.073 259.552C216.073 257.648 217.385 256.624 218.745 256.624C220.121 256.624 221.417 257.696 221.417 259.584ZM230.033 264H231.873V256.672H233.505V255.184H231.873V254.56C231.873 253.552 232.257 253.168 233.377 253.168V251.648C231.073 251.648 230.033 252.528 230.033 254.56V255.184H228.993V256.672H230.033V264ZM243.522 259.584C243.522 256.816 241.538 255.04 239.026 255.04C236.514 255.04 234.53 256.816 234.53 259.584C234.53 262.352 236.434 264.144 238.946 264.144C241.474 264.144 243.522 262.352 243.522 259.584ZM236.386 259.584C236.386 257.584 237.618 256.624 238.994 256.624C240.354 256.624 241.65 257.584 241.65 259.584C241.65 261.584 240.306 262.56 238.946 262.56C237.57 262.56 236.386 261.584 236.386 259.584ZM247.149 259.36C247.149 257.488 247.981 256.928 249.325 256.928H249.789V255.04C248.541 255.04 247.661 255.584 247.149 256.464V255.184H245.325V264H247.149V259.36ZM255.91 261.552C255.91 263.344 256.886 264 258.454 264H259.894V262.48H258.774C258.006 262.48 257.75 262.208 257.75 261.552V256.672H259.894V255.184H257.75V252.992H255.91V255.184H254.87V256.672H255.91V261.552ZM261.575 264H263.399V259.072C263.399 257.456 264.279 256.624 265.623 256.624C266.951 256.624 267.831 257.456 267.831 259.072V264H269.639V258.8C269.639 256.336 268.103 255.04 266.135 255.04C264.999 255.04 264.007 255.472 263.399 256.208V252.16H261.575V264ZM275.678 256.576C277.038 256.576 278.11 257.44 278.142 258.8H273.262C273.454 257.408 274.446 256.576 275.678 256.576ZM279.806 261.376H277.838C277.502 262.064 276.878 262.608 275.758 262.608C274.414 262.608 273.374 261.728 273.246 260.272H279.982C280.03 259.968 280.046 259.68 280.046 259.376C280.046 256.784 278.27 255.04 275.758 255.04C273.15 255.04 271.358 256.816 271.358 259.584C271.358 262.352 273.23 264.144 275.758 264.144C277.918 264.144 279.31 262.912 279.806 261.376ZM283.729 262.944C283.729 262.288 283.217 261.776 282.577 261.776C281.921 261.776 281.409 262.288 281.409 262.944C281.409 263.6 281.921 264.112 282.577 264.112C283.217 264.112 283.729 263.6 283.729 262.944Z" fill="#5E6282"/>
<path d="M155.885 157.723H160.123C162.089 157.723 163.508 158.009 164.381 158.582C165.26 159.155 165.699 160.06 165.699 161.297C165.699 162.13 165.484 162.824 165.055 163.377C164.625 163.93 164.007 164.279 163.199 164.422V164.52C164.202 164.708 164.938 165.083 165.406 165.643C165.882 166.196 166.119 166.948 166.119 167.898C166.119 169.181 165.67 170.187 164.771 170.916C163.88 171.639 162.636 172 161.041 172H155.885V157.723ZM158.219 163.621H160.465C161.441 163.621 162.154 163.468 162.604 163.162C163.053 162.85 163.277 162.322 163.277 161.58C163.277 160.91 163.033 160.424 162.545 160.125C162.063 159.826 161.295 159.676 160.24 159.676H158.219V163.621ZM158.219 165.516V170.037H160.699C161.676 170.037 162.411 169.852 162.906 169.48C163.408 169.103 163.658 168.51 163.658 167.703C163.658 166.961 163.404 166.411 162.896 166.053C162.389 165.695 161.617 165.516 160.582 165.516H158.219ZM173.561 172.195C171.881 172.195 170.566 171.707 169.615 170.73C168.671 169.747 168.199 168.396 168.199 166.678C168.199 164.913 168.639 163.527 169.518 162.518C170.396 161.508 171.604 161.004 173.141 161.004C174.566 161.004 175.693 161.437 176.52 162.303C177.346 163.169 177.76 164.36 177.76 165.877V167.117H170.562C170.595 168.165 170.878 168.973 171.412 169.539C171.946 170.099 172.698 170.379 173.668 170.379C174.306 170.379 174.898 170.32 175.445 170.203C175.999 170.079 176.591 169.878 177.223 169.598V171.463C176.663 171.73 176.096 171.919 175.523 172.029C174.951 172.14 174.296 172.195 173.561 172.195ZM173.141 162.742C172.411 162.742 171.826 162.973 171.383 163.436C170.947 163.898 170.686 164.572 170.602 165.457H175.504C175.491 164.565 175.276 163.891 174.859 163.436C174.443 162.973 173.87 162.742 173.141 162.742ZM187.623 168.924C187.623 169.979 187.239 170.789 186.471 171.355C185.702 171.915 184.602 172.195 183.17 172.195C181.731 172.195 180.576 171.977 179.703 171.541V169.559C180.973 170.145 182.154 170.438 183.248 170.438C184.661 170.438 185.367 170.011 185.367 169.158C185.367 168.885 185.289 168.657 185.133 168.475C184.977 168.292 184.719 168.104 184.361 167.908C184.003 167.713 183.505 167.492 182.867 167.244C181.624 166.762 180.781 166.281 180.338 165.799C179.902 165.317 179.684 164.692 179.684 163.924C179.684 162.999 180.055 162.283 180.797 161.775C181.546 161.261 182.561 161.004 183.844 161.004C185.113 161.004 186.314 161.261 187.447 161.775L186.705 163.504C185.54 163.022 184.56 162.781 183.766 162.781C182.555 162.781 181.949 163.126 181.949 163.816C181.949 164.155 182.105 164.441 182.418 164.676C182.737 164.91 183.427 165.232 184.488 165.643C185.38 165.988 186.028 166.303 186.432 166.59C186.835 166.876 187.135 167.208 187.33 167.586C187.525 167.957 187.623 168.403 187.623 168.924ZM194.137 170.34C194.697 170.34 195.257 170.252 195.816 170.076V171.805C195.562 171.915 195.234 172.007 194.83 172.078C194.433 172.156 194.02 172.195 193.59 172.195C191.415 172.195 190.328 171.049 190.328 168.758V162.938H188.854V161.922L190.436 161.082L191.217 158.797H192.633V161.199H195.709V162.938H192.633V168.719C192.633 169.272 192.77 169.682 193.043 169.949C193.323 170.21 193.688 170.34 194.137 170.34ZM205.738 172H203.424V157.723H211.48V159.695H205.738V164.158H211.119V166.141H205.738V172ZM216.119 172H213.824V156.805H216.119V172ZM221.705 172H219.41V161.199H221.705V172ZM219.273 158.338C219.273 157.928 219.384 157.612 219.605 157.391C219.833 157.169 220.156 157.059 220.572 157.059C220.976 157.059 221.288 157.169 221.51 157.391C221.738 157.612 221.852 157.928 221.852 158.338C221.852 158.729 221.738 159.038 221.51 159.266C221.288 159.487 220.976 159.598 220.572 159.598C220.156 159.598 219.833 159.487 219.605 159.266C219.384 159.038 219.273 158.729 219.273 158.338ZM234.117 161.199V162.459L232.271 162.801C232.441 163.029 232.581 163.309 232.691 163.641C232.802 163.973 232.857 164.324 232.857 164.695C232.857 165.809 232.473 166.684 231.705 167.322C230.937 167.96 229.879 168.279 228.531 168.279C228.186 168.279 227.874 168.253 227.594 168.201C227.099 168.507 226.852 168.865 226.852 169.275C226.852 169.523 226.965 169.708 227.193 169.832C227.428 169.956 227.854 170.018 228.473 170.018H230.357C231.549 170.018 232.454 170.271 233.072 170.779C233.691 171.287 234 172.02 234 172.977C234 174.201 233.495 175.145 232.486 175.809C231.477 176.473 230.019 176.805 228.111 176.805C226.64 176.805 225.517 176.544 224.742 176.023C223.967 175.503 223.58 174.76 223.58 173.797C223.58 173.133 223.788 172.573 224.205 172.117C224.628 171.668 225.217 171.355 225.973 171.18C225.667 171.049 225.413 170.841 225.211 170.555C225.016 170.262 224.918 169.956 224.918 169.637C224.918 169.233 225.032 168.891 225.26 168.611C225.488 168.331 225.826 168.055 226.275 167.781C225.715 167.54 225.26 167.15 224.908 166.609C224.563 166.062 224.391 165.424 224.391 164.695C224.391 163.523 224.758 162.615 225.494 161.971C226.236 161.326 227.291 161.004 228.658 161.004C228.964 161.004 229.283 161.027 229.615 161.072C229.954 161.111 230.208 161.154 230.377 161.199H234.117ZM225.631 173.68C225.631 174.174 225.852 174.555 226.295 174.822C226.744 175.089 227.372 175.223 228.18 175.223C229.43 175.223 230.361 175.044 230.973 174.686C231.585 174.327 231.891 173.852 231.891 173.26C231.891 172.791 231.721 172.456 231.383 172.254C231.051 172.059 230.429 171.961 229.518 171.961H227.779C227.122 171.961 226.598 172.114 226.207 172.42C225.823 172.732 225.631 173.152 225.631 173.68ZM226.617 164.695C226.617 165.372 226.79 165.893 227.135 166.258C227.486 166.622 227.988 166.805 228.639 166.805C229.967 166.805 230.631 166.095 230.631 164.676C230.631 163.973 230.465 163.432 230.133 163.055C229.807 162.671 229.309 162.479 228.639 162.479C227.975 162.479 227.47 162.667 227.125 163.045C226.786 163.423 226.617 163.973 226.617 164.695ZM245.631 172H243.326V165.359C243.326 164.526 243.157 163.904 242.818 163.494C242.486 163.084 241.956 162.879 241.227 162.879C240.263 162.879 239.553 163.169 239.098 163.748C238.648 164.321 238.424 165.285 238.424 166.639V172H236.129V156.805H238.424V160.662C238.424 161.281 238.385 161.941 238.307 162.645H238.453C238.766 162.124 239.199 161.72 239.752 161.434C240.312 161.147 240.963 161.004 241.705 161.004C244.322 161.004 245.631 162.322 245.631 164.959V172ZM252.848 170.34C253.408 170.34 253.967 170.252 254.527 170.076V171.805C254.273 171.915 253.945 172.007 253.541 172.078C253.144 172.156 252.73 172.195 252.301 172.195C250.126 172.195 249.039 171.049 249.039 168.758V162.938H247.564V161.922L249.146 161.082L249.928 158.797H251.344V161.199H254.42V162.938H251.344V168.719C251.344 169.272 251.48 169.682 251.754 169.949C252.034 170.21 252.398 170.34 252.848 170.34ZM263.951 168.924C263.951 169.979 263.567 170.789 262.799 171.355C262.031 171.915 260.93 172.195 259.498 172.195C258.059 172.195 256.904 171.977 256.031 171.541V169.559C257.301 170.145 258.482 170.438 259.576 170.438C260.989 170.438 261.695 170.011 261.695 169.158C261.695 168.885 261.617 168.657 261.461 168.475C261.305 168.292 261.048 168.104 260.689 167.908C260.331 167.713 259.833 167.492 259.195 167.244C257.952 166.762 257.109 166.281 256.666 165.799C256.23 165.317 256.012 164.692 256.012 163.924C256.012 162.999 256.383 162.283 257.125 161.775C257.874 161.261 258.889 161.004 260.172 161.004C261.441 161.004 262.643 161.261 263.775 161.775L263.033 163.504C261.868 163.022 260.888 162.781 260.094 162.781C258.883 162.781 258.277 163.126 258.277 163.816C258.277 164.155 258.434 164.441 258.746 164.676C259.065 164.91 259.755 165.232 260.816 165.643C261.708 165.988 262.356 166.303 262.76 166.59C263.163 166.876 263.463 167.208 263.658 167.586C263.854 167.957 263.951 168.403 263.951 168.924Z" fill="#1E1D4C"/>
<path d="M176.805 72.9999C176.805 82.9411 184.864 90.9999 194.805 90.9999L221.805 90.9999C224.567 90.9999 226.805 88.7614 226.805 85.9999L226.805 51.9999C226.805 46.4771 222.328 41.9999 216.805 41.9999L181.805 41.9999C179.044 41.9999 176.805 44.2385 176.805 46.9999L176.805 72.9999Z" fill="#FFF1DA"/>
<path d="M225.389 86.9413C224.031 87.2456 222.708 87.8091 221.502 88.5965C218.361 90.5978 216.534 93.4546 217.421 94.9767C218.308 96.4988 221.573 96.1095 224.714 94.1082C225.936 93.3486 227.021 92.3779 227.903 91.2559C228.313 90.7138 228.386 90.0383 228.091 89.5334L226.939 87.556C226.645 87.0495 226.037 86.8086 225.389 86.9413Z" fill="#D5D6DB"/>
<path d="M217.502 59.9482C216.517 60.169 215.558 60.5778 214.683 61.1488C212.407 62.5996 211.081 64.671 211.723 65.7738C212.366 66.8766 214.734 66.5941 217.011 65.1434C217.897 64.5923 218.684 63.8881 219.324 63.0744C219.62 62.6815 219.673 62.1922 219.459 61.8261L218.625 60.3943C218.413 60.0271 217.972 59.8521 217.502 59.9482Z" fill="#D5D6DB"/>
<path d="M204.688 61.0787C204.469 61.0542 204.235 61.1126 204.032 61.2421L198.684 64.6503C198.237 64.9346 198.058 65.4819 198.285 65.8731C198.336 65.9627 198.407 66.0393 198.494 66.0983L211.675 75.1832L229.509 63.8185L204.688 61.0787Z" fill="#029BC5"/>
<path d="M261.065 59.794L212.533 90.3461L183.82 101.772L169.177 104.682L167.566 101.945L248.461 51.9985C250.872 50.5036 253.558 49.586 256.246 49.3389C257.424 49.237 258.587 49.2762 259.708 49.455C260.702 49.6057 261.645 49.8964 262.508 50.3185C263.472 50.7967 265.307 50.8519 265.901 51.8047C265.903 51.8032 267.305 56.1776 261.065 59.794Z" fill="#E1E6E9"/>
<path d="M213.176 86.3036L192.181 119.774C191.919 120.244 192.074 120.77 192.528 120.949C192.807 121.059 193.148 121.016 193.434 120.834L198.778 117.444C199.806 116.791 200.716 115.963 201.452 115.009L242.169 67.1404L213.176 86.3036Z" fill="#029BC5"/>
<path d="M160.197 85.1861C159.846 85.0664 159.43 85.1285 159.078 85.3525L154.66 88.1659C154.058 88.549 153.819 89.2854 154.124 89.8111C154.183 89.911 154.258 89.999 154.349 90.0714L166.726 99.9838L179.739 91.8557L160.197 85.1861Z" fill="#029BC5"/>
<path d="M170.874 101.771L164.213 111.1C164.115 111.234 164.138 111.403 164.264 111.476C164.355 111.529 164.479 111.519 164.58 111.452L168.708 108.836C168.74 108.815 168.769 108.79 168.793 108.761L178.527 96.9261L170.874 101.771Z" fill="#029BC5"/>
<path d="M258.911 49.8572C257.757 49.6718 256.559 49.6322 255.346 49.7388C254.165 51.3899 253.411 53.2446 253.157 55.118C253.139 55.4943 253.442 55.7652 253.835 55.723C253.957 55.7098 254.079 55.6669 254.188 55.5981L261.796 50.7538C260.906 50.3152 259.935 50.0134 258.911 49.8572Z" fill="#029BC5"/>
<path d="M242.332 58.7653L247.299 55.6284L251.926 63.4974L246.959 66.6343L242.332 58.7653Z" fill="#D5D6DB"/>
<path d="M239.207 61.8775C238.608 62.2567 238.369 62.9855 238.673 63.5052L239.165 64.3472C239.489 64.8536 240.228 64.9427 240.816 64.546C241.376 64.1682 241.602 63.4815 241.332 62.9745L240.84 62.1325C240.536 61.6132 239.805 61.499 239.207 61.8775Z" fill="#3A556A"/>
<path d="M234.742 64.65C234.144 65.0291 233.904 65.7579 234.208 66.2777L234.701 67.1196C235.025 67.6261 235.764 67.7152 236.352 67.3185C236.912 66.9407 237.137 66.254 236.868 65.747L236.375 64.905C236.071 64.3859 235.341 64.2716 234.742 64.65Z" fill="#3A556A"/>
<path d="M230.276 67.4233C229.679 67.803 229.44 68.5309 229.744 69.0501L230.236 69.8921C230.56 70.3986 231.299 70.4876 231.887 70.0909C232.447 69.7131 232.673 69.0265 232.403 68.5195L231.911 67.6775C231.607 67.1578 230.875 67.044 230.276 67.4233Z" fill="#3A556A"/>
<path d="M225.812 70.1957C225.214 70.5754 224.976 71.3033 225.279 71.8226L225.772 72.6646C226.096 73.171 226.835 73.2601 227.423 72.8634C227.983 72.4856 228.208 71.7989 227.939 71.2919L227.446 70.4499C227.142 69.9304 226.411 69.8166 225.812 70.1957Z" fill="#3A556A"/>
<path d="M221.348 72.9684C220.75 73.3482 220.511 74.0764 220.815 74.5959L221.308 75.4383C221.611 75.9575 222.343 76.0712 222.941 75.6923C223.539 75.3133 223.778 74.5851 223.475 74.0658L222.982 73.2235C222.679 72.7037 221.948 72.5892 221.349 72.9676C221.349 72.9679 221.349 72.9681 221.348 72.9684Z" fill="#3A556A"/>
<path d="M216.884 75.7408C216.285 76.1207 216.047 76.8489 216.351 77.3684L216.843 78.2107C217.147 78.73 217.878 78.8437 218.477 78.4647C219.075 78.0857 219.314 77.3575 219.01 76.8383L218.518 75.9959C218.215 75.4762 217.484 75.3617 216.885 75.74C216.884 75.7404 216.884 75.7407 216.884 75.7408Z" fill="#3A556A"/>
<path d="M212.419 78.5134C211.821 78.8932 211.582 79.6214 211.886 80.1409L212.379 80.9832C212.683 81.502 213.415 81.6145 214.013 81.2351C214.609 80.8562 214.848 80.1296 214.545 79.6109L214.053 78.7686C213.749 78.249 213.018 78.1347 212.419 78.5134Z" fill="#3A556A"/>
<path d="M207.955 81.2859C207.356 81.6657 207.118 82.3939 207.422 82.9134L207.914 83.7558C208.219 84.2746 208.95 84.3871 209.548 84.0076C210.145 83.6288 210.383 82.9021 210.081 82.3835L209.588 81.5411C209.285 81.0215 208.553 80.9072 207.955 81.2859Z" fill="#3A556A"/>
<path d="M203.49 84.0583C202.892 84.4381 202.654 85.1663 202.957 85.6858L203.45 86.5281C203.754 87.0469 204.486 87.1595 205.084 86.78C205.68 86.4011 205.919 85.6745 205.617 85.1559L205.124 84.3136C204.82 83.7941 204.089 83.6798 203.49 84.0583Z" fill="#3A556A"/>
<path d="M199.024 86.8315C198.426 87.2105 198.187 87.9387 198.491 88.458L198.492 88.4591L198.984 89.3014C199.289 89.8202 200.02 89.9328 200.618 89.5533C201.215 89.1744 201.453 88.4478 201.151 87.9291L200.658 87.0868C200.355 86.5671 199.623 86.4528 199.024 86.8315Z" fill="#3A556A"/>
<path d="M194.561 89.6032C193.963 89.9822 193.724 90.7104 194.028 91.2296L194.028 91.2307L194.521 92.073C194.825 92.5918 195.557 92.7044 196.155 92.3249C196.751 91.9461 196.99 91.2194 196.688 90.7008L196.195 89.8585C195.891 89.339 195.16 89.2247 194.561 89.6032Z" fill="#3A556A"/>
<defs>
<filter id="filter0_dddddd_1_326" x="0" y="0.703704" width="427" height="495.296" filterUnits="userSpaceOnUse" color-interpolation-filters="sRGB">
<feFlood flood-opacity="0" result="BackgroundImageFix"/>
<feColorMatrix in="SourceAlpha" type="matrix" values="0 0 0 0 0 0 0 0 0 0 0 0 0 0 0 0 0 0 127 0" result="hardAlpha"/>
<feOffset dy="1.85185"/>
<feGaussianBlur stdDeviation="1.57407"/>
<feColorMatrix type="matrix" values="0 0 0 0 0 0 0 0 0 0 0 0 0 0 0 0 0 0 0.01 0"/>
<feBlend mode="normal" in2="BackgroundImageFix" result="effect1_dropShadow_1_326"/>
<feColorMatrix in="SourceAlpha" type="matrix" values="0 0 0 0 0 0 0 0 0 0 0 0 0 0 0 0 0 0 127 0" result="hardAlpha"/>
<feOffset dy="8.14815"/>
<feGaussianBlur stdDeviation="3.25926"/>
<feColorMatrix type="matrix" values="0 0 0 0 0 0 0 0 0 0 0 0 0 0 0 0 0 0 0.01 0"/>
<feBlend mode="normal" in2="effect1_dropShadow_1_326" result="effect2_dropShadow_1_326"/>
<feColorMatrix in="SourceAlpha" type="matrix" values="0 0 0 0 0 0 0 0 0 0 0 0 0 0 0 0 0 0 127 0" result="hardAlpha"/>
<feOffset dy="20"/>
<feGaussianBlur stdDeviation="6.5"/>
<feColorMatrix type="matrix" values="0 0 0 0 0 0 0 0 0 0 0 0 0 0 0 0 0 0 0.01 0"/>
<feBlend mode="normal" in2="effect2_dropShadow_1_326" result="effect3_dropShadow_1_326"/>
<feColorMatrix in="SourceAlpha" type="matrix" values="0 0 0 0 0 0 0 0 0 0 0 0 0 0 0 0 0 0 127 0" result="hardAlpha"/>
<feOffset dy="38.5185"/>
<feGaussianBlur stdDeviation="12.7407"/>
<feColorMatrix type="matrix" values="0 0 0 0 0 0 0 0 0 0 0 0 0 0 0 0 0 0 0.0121481 0"/>
<feBlend mode="normal" in2="effect3_dropShadow_1_326" result="effect4_dropShadow_1_326"/>
<feColorMatrix in="SourceAlpha" type="matrix" values="0 0 0 0 0 0 0 0 0 0 0 0 0 0 0 0 0 0 127 0" result="hardAlpha"/>
<feOffset dy="64.8148"/>
<feGaussianBlur stdDeviation="23.4259"/>
<feColorMatrix type="matrix" values="0 0 0 0 0 0 0 0 0 0 0 0 0 0 0 0 0 0 0.0151852 0"/>
<feBlend mode="normal" in2="effect4_dropShadow_1_326" result="effect5_dropShadow_1_326"/>
<feColorMatrix in="SourceAlpha" type="matrix" values="0 0 0 0 0 0 0 0 0 0 0 0 0 0 0 0 0 0 127 0" result="hardAlpha"/>
<feOffset dy="100"/>
<feGaussianBlur stdDeviation="40"/>
<feColorMatrix type="matrix" values="0 0 0 0 0 0 0 0 0 0 0 0 0 0 0 0 0 0 0.02 0"/>
<feBlend mode="normal" in2="effect5_dropShadow_1_326" result="effect6_dropShadow_1_326"/>
<feBlend mode="normal" in="SourceGraphic" in2="effect6_dropShadow_1_326" result="shape"/>
</filter>
</defs>
</svg>
