<svg width="395" height="290" viewBox="0 0 395 290" fill="none" xmlns="http://www.w3.org/2000/svg">
<rect y="4" width="47" height="48" rx="13" fill="#F0BB1F"/>
<path d="M13.5446 21.4755C13.248 21.4755 13.0054 21.2328 13 20.9363V17.5446C13 17.2426 13.2426 17 13.5446 17H16.9363C17.2328 17 17.4755 17.2426 17.4755 17.5446V18.7255H30.5245V17.5446C30.5245 17.248 30.7672 17.0054 31.0637 17H34.4554C34.752 17 34.9946 17.2426 35 17.5446V20.9363C35 21.2328 34.7574 21.4755 34.4554 21.4755H33.2745V34.5245H34.4554C34.752 34.5245 34.9946 34.7672 35 35.0637V38.4554C35 38.752 34.7574 38.9946 34.4554 39H31.0637C30.7672 39 30.5245 38.7574 30.5245 38.4554V37.2745H17.4755V38.4554C17.4755 38.752 17.2328 38.9946 16.9363 39H13.5446C13.248 39 13.0054 38.7574 13 38.4554V35.0637C13 34.7672 13.2426 34.5245 13.5446 34.5245H14.7255V21.4755H13.5446ZM33.9216 20.3971V18.0784H31.6029V20.3971H33.9216ZM31.6029 37.9216H33.9216V35.6029H31.6029V37.9216ZM17.4755 35.0637V36.1961H30.5245V35.0637C30.5245 34.7672 30.7672 34.5245 31.0637 34.5245H32.1961V21.4755H31.0637C30.7672 21.4755 30.5245 21.2328 30.5245 20.9363V19.8039H17.4755V20.9363C17.4755 21.2328 17.2328 21.4755 16.9363 21.4755H15.8039V34.5245H16.9363C17.2328 34.5245 17.4755 34.7672 17.4755 35.0637ZM14.0784 35.6029V37.9216H16.3971V35.6029H14.0784ZM16.3971 20.3971V18.0784H14.0784V20.3971H16.3971Z" fill="white"/>
<path d="M68.528 10.368C68.528 13.728 70.864 16.08 74.176 16.08C76.848 16.08 78.864 14.592 79.504 12.16H76.496C76.032 13.12 75.184 13.6 74.144 13.6C72.464 13.6 71.312 12.352 71.312 10.368C71.312 8.384 72.464 7.136 74.144 7.136C75.184 7.136 76.032 7.616 76.496 8.576H79.504C78.864 6.144 76.848 4.64 74.176 4.64C70.864 4.64 68.528 7.008 68.528 10.368ZM81.1795 16H83.9155V11.152C83.9155 9.936 84.5875 9.264 85.6275 9.264C86.6675 9.264 87.3395 9.936 87.3395 11.152V16H90.0595V10.784C90.0595 8.384 88.6995 6.976 86.6675 6.976C85.4355 6.976 84.4595 7.504 83.9155 8.272V4.16H81.1795V16ZM100.697 11.536C100.697 8.704 98.6808 6.944 96.0568 6.944C93.4488 6.944 91.4168 8.704 91.4168 11.536C91.4168 14.368 93.4008 16.128 96.0248 16.128C98.6488 16.128 100.697 14.368 100.697 11.536ZM94.2008 11.536C94.2008 10.016 95.0648 9.312 96.0568 9.312C97.0168 9.312 97.9128 10.016 97.9128 11.536C97.9128 13.04 97.0008 13.76 96.0248 13.76C95.0328 13.76 94.2008 13.04 94.2008 11.536ZM110.884 11.536C110.884 8.704 108.868 6.944 106.244 6.944C103.636 6.944 101.604 8.704 101.604 11.536C101.604 14.368 103.588 16.128 106.212 16.128C108.836 16.128 110.884 14.368 110.884 11.536ZM104.388 11.536C104.388 10.016 105.252 9.312 106.244 9.312C107.204 9.312 108.1 10.016 108.1 11.536C108.1 13.04 107.188 13.76 106.212 13.76C105.22 13.76 104.388 13.04 104.388 11.536ZM119.584 13.408C119.536 10.08 114.704 11.088 114.704 9.664C114.704 9.232 115.056 8.976 115.696 8.976C116.464 8.976 116.928 9.376 117.008 9.984H119.536C119.36 8.224 118.08 6.944 115.776 6.944C113.44 6.944 112.144 8.192 112.144 9.712C112.144 12.992 117.008 11.952 117.008 13.392C117.008 13.792 116.64 14.112 115.936 14.112C115.184 14.112 114.624 13.696 114.56 13.072H111.856C111.984 14.8 113.584 16.128 115.968 16.128C118.208 16.128 119.584 14.96 119.584 13.408ZM125.194 9.136C126.106 9.136 126.874 9.696 126.874 10.672H123.45C123.61 9.68 124.298 9.136 125.194 9.136ZM129.466 13.04H126.554C126.33 13.52 125.898 13.904 125.13 13.904C124.25 13.904 123.53 13.36 123.434 12.192H129.626C129.658 11.92 129.674 11.648 129.674 11.392C129.674 8.672 127.834 6.944 125.226 6.944C122.57 6.944 120.714 8.704 120.714 11.536C120.714 14.368 122.602 16.128 125.226 16.128C127.45 16.128 129.034 14.784 129.466 13.04ZM138.716 4.768H134.508V16H138.716C142.3 16 144.604 13.712 144.604 10.384C144.604 7.04 142.3 4.768 138.716 4.768ZM137.244 13.632V7.104H138.54C140.604 7.104 141.82 8.32 141.82 10.384C141.82 12.448 140.604 13.632 138.54 13.632H137.244ZM150.069 9.136C150.981 9.136 151.749 9.696 151.749 10.672H148.325C148.485 9.68 149.173 9.136 150.069 9.136ZM154.341 13.04H151.429C151.205 13.52 150.773 13.904 150.005 13.904C149.125 13.904 148.405 13.36 148.309 12.192H154.501C154.533 11.92 154.549 11.648 154.549 11.392C154.549 8.672 152.709 6.944 150.101 6.944C147.445 6.944 145.589 8.704 145.589 11.536C145.589 14.368 147.477 16.128 150.101 16.128C152.325 16.128 153.909 14.784 154.341 13.04ZM163.24 13.408C163.192 10.08 158.36 11.088 158.36 9.664C158.36 9.232 158.712 8.976 159.352 8.976C160.12 8.976 160.584 9.376 160.664 9.984H163.192C163.016 8.224 161.736 6.944 159.432 6.944C157.096 6.944 155.8 8.192 155.8 9.712C155.8 12.992 160.664 11.952 160.664 13.392C160.664 13.792 160.296 14.112 159.592 14.112C158.84 14.112 158.28 13.696 158.216 13.072H155.512C155.64 14.8 157.24 16.128 159.624 16.128C161.864 16.128 163.24 14.96 163.24 13.408ZM165.346 12.896C165.346 15.216 166.642 16 168.498 16H169.89V13.68H168.914C168.306 13.68 168.082 13.456 168.082 12.928V9.344H169.874V7.072H168.082V4.896H165.346V7.072H164.258V9.344H165.346V12.896ZM171.414 16H174.15V7.072H171.414V16ZM172.79 6.144C173.75 6.144 174.406 5.488 174.406 4.672C174.406 3.84 173.75 3.184 172.79 3.184C171.814 3.184 171.158 3.84 171.158 4.672C171.158 5.488 171.814 6.144 172.79 6.144ZM182.293 16H185.013V10.784C185.013 8.384 183.637 6.976 181.573 6.976C180.373 6.976 179.413 7.504 178.869 8.256V7.072H176.133V16H178.869V11.152C178.869 9.936 179.541 9.264 180.581 9.264C181.621 9.264 182.293 9.936 182.293 11.152V16ZM186.37 11.52C186.37 14.336 188.114 16.128 190.29 16.128C191.618 16.128 192.562 15.52 193.058 14.736V16H195.794V7.072H193.058V8.336C192.578 7.552 191.634 6.944 190.306 6.944C188.114 6.944 186.37 8.704 186.37 11.52ZM193.058 11.536C193.058 12.96 192.146 13.744 191.106 13.744C190.082 13.744 189.154 12.944 189.154 11.52C189.154 10.096 190.082 9.328 191.106 9.328C192.146 9.328 193.058 10.112 193.058 11.536ZM198.205 12.896C198.205 15.216 199.501 16 201.357 16H202.749V13.68H201.773C201.165 13.68 200.941 13.456 200.941 12.928V9.344H202.733V7.072H200.941V4.896H198.205V7.072H197.117V9.344H198.205V12.896ZM204.273 16H207.009V7.072H204.273V16ZM205.649 6.144C206.609 6.144 207.265 5.488 207.265 4.672C207.265 3.84 206.609 3.184 205.649 3.184C204.673 3.184 204.017 3.84 204.017 4.672C204.017 5.488 204.673 6.144 205.649 6.144ZM217.728 11.536C217.728 8.704 215.712 6.944 213.088 6.944C210.48 6.944 208.448 8.704 208.448 11.536C208.448 14.368 210.432 16.128 213.056 16.128C215.68 16.128 217.728 14.368 217.728 11.536ZM211.232 11.536C211.232 10.016 212.096 9.312 213.088 9.312C214.048 9.312 214.944 10.016 214.944 11.536C214.944 13.04 214.032 13.76 213.056 13.76C212.064 13.76 211.232 13.04 211.232 11.536ZM225.34 16H228.06V10.784C228.06 8.384 226.684 6.976 224.62 6.976C223.42 6.976 222.46 7.504 221.916 8.256V7.072H219.18V16H221.916V11.152C221.916 9.936 222.588 9.264 223.628 9.264C224.668 9.264 225.34 9.936 225.34 11.152V16Z" fill="#5E6282"/>
<path d="M69.232 28.848V40H74.592V38.816H70.688V28.848H69.232ZM84.4583 35.6C84.4583 32.832 82.5223 31.088 80.0263 31.088C77.5463 31.088 75.5943 32.832 75.5943 35.6C75.5943 38.384 77.4823 40.144 79.9623 40.144C82.4583 40.144 84.4583 38.384 84.4583 35.6ZM77.0823 35.6C77.0823 33.392 78.4743 32.352 80.0103 32.352C81.5143 32.352 82.9703 33.392 82.9703 35.6C82.9703 37.824 81.4823 38.864 79.9623 38.864C78.4423 38.864 77.0823 37.824 77.0823 35.6ZM87.8286 35.232C87.8286 33.2 88.8846 32.576 90.2766 32.576H90.6606V31.072C89.2686 31.072 88.3246 31.68 87.8286 32.656V31.232H86.3726V40H87.8286V35.232ZM96.0694 32.32C97.5734 32.32 98.8534 33.264 98.8374 34.976H93.3014C93.4614 33.264 94.6454 32.32 96.0694 32.32ZM100.165 37.296H98.5974C98.2774 38.24 97.4454 38.912 96.1334 38.912C94.6454 38.912 93.3974 37.936 93.2854 36.16H100.293C100.325 35.856 100.341 35.6 100.341 35.28C100.341 32.88 98.6774 31.088 96.1334 31.088C93.5734 31.088 91.7974 32.832 91.7974 35.6C91.7974 38.384 93.6374 40.144 96.1334 40.144C98.3094 40.144 99.7174 38.896 100.165 37.296ZM114.919 40H116.359V34.832C116.359 32.32 114.807 31.072 112.807 31.072C111.463 31.072 110.215 31.76 109.703 33.024C109.127 31.712 107.927 31.072 106.487 31.072C105.335 31.072 104.295 31.568 103.719 32.496V31.232H102.263V40H103.719V35.168C103.719 33.28 104.727 32.336 106.199 32.336C107.639 32.336 108.599 33.248 108.599 35.04V40H110.039V35.168C110.039 33.28 111.047 32.336 112.519 32.336C113.959 32.336 114.919 33.248 114.919 35.04V40ZM123.013 40H124.469V31.232H123.013V40ZM123.765 29.808C124.293 29.808 124.725 29.376 124.725 28.816C124.725 28.256 124.293 27.824 123.765 27.824C123.205 27.824 122.773 28.256 122.773 28.816C122.773 29.376 123.205 29.808 123.765 29.808ZM128.407 32.848V31.232H126.951V44.16H128.407V38.384C128.951 39.28 130.087 40.144 131.687 40.144C134.039 40.144 135.847 38.304 135.847 35.584C135.847 32.848 134.039 31.088 131.687 31.088C130.087 31.088 128.935 31.92 128.407 32.848ZM134.359 35.584C134.359 37.648 132.999 38.864 131.383 38.864C129.799 38.864 128.407 37.664 128.407 35.6C128.407 33.568 129.799 32.352 131.383 32.352C132.999 32.352 134.359 33.52 134.359 35.584ZM144.067 37.616C144.003 34.48 138.915 35.616 138.915 33.536C138.915 32.832 139.555 32.32 140.627 32.32C141.795 32.32 142.467 32.96 142.531 33.84H143.987C143.891 32.128 142.611 31.088 140.675 31.088C138.723 31.088 137.459 32.192 137.459 33.536C137.459 36.8 142.643 35.664 142.643 37.616C142.643 38.336 142.003 38.912 140.851 38.912C139.619 38.912 138.867 38.272 138.787 37.424H137.283C137.379 39.024 138.819 40.144 140.867 40.144C142.803 40.144 144.067 39.056 144.067 37.616ZM153.899 31.232H152.443V36.048C152.443 37.936 151.435 38.864 149.931 38.864C148.459 38.864 147.483 37.952 147.483 36.176V31.232H146.043V36.368C146.043 38.88 147.627 40.128 149.643 40.128C150.811 40.128 151.883 39.616 152.443 38.704V40H153.899V31.232ZM169.013 40H170.453V34.832C170.453 32.32 168.901 31.072 166.901 31.072C165.557 31.072 164.309 31.76 163.797 33.024C163.221 31.712 162.021 31.072 160.581 31.072C159.429 31.072 158.389 31.568 157.813 32.496V31.232H156.357V40H157.813V35.168C157.813 33.28 158.821 32.336 160.293 32.336C161.733 32.336 162.693 33.248 162.693 35.04V40H164.133V35.168C164.133 33.28 165.141 32.336 166.613 32.336C168.053 32.336 169.013 33.248 169.013 35.04V40ZM176.563 35.584C176.563 38.304 178.371 40.144 180.723 40.144C182.323 40.144 183.459 39.328 183.987 38.352V40H185.459V28.16H183.987V32.8C183.379 31.792 182.115 31.088 180.739 31.088C178.371 31.088 176.563 32.848 176.563 35.584ZM183.987 35.6C183.987 37.664 182.611 38.864 181.011 38.864C179.411 38.864 178.051 37.648 178.051 35.584C178.051 33.52 179.411 32.352 181.011 32.352C182.611 32.352 183.987 33.568 183.987 35.6ZM196.24 35.6C196.24 32.832 194.304 31.088 191.808 31.088C189.328 31.088 187.376 32.832 187.376 35.6C187.376 38.384 189.264 40.144 191.744 40.144C194.24 40.144 196.24 38.384 196.24 35.6ZM188.864 35.6C188.864 33.392 190.256 32.352 191.792 32.352C193.296 32.352 194.752 33.392 194.752 35.6C194.752 37.824 193.264 38.864 191.744 38.864C190.224 38.864 188.864 37.824 188.864 35.6ZM198.154 40H199.61V28.16H198.154V40ZM210.411 35.6C210.411 32.832 208.475 31.088 205.979 31.088C203.499 31.088 201.547 32.832 201.547 35.6C201.547 38.384 203.435 40.144 205.915 40.144C208.411 40.144 210.411 38.384 210.411 35.6ZM203.035 35.6C203.035 33.392 204.427 32.352 205.963 32.352C207.467 32.352 208.923 33.392 208.923 35.6C208.923 37.824 207.435 38.864 205.915 38.864C204.395 38.864 203.035 37.824 203.035 35.6ZM213.782 35.232C213.782 33.2 214.838 32.576 216.23 32.576H216.614V31.072C215.222 31.072 214.278 31.68 213.782 32.656V31.232H212.326V40H213.782V35.232ZM228.864 37.616C228.8 34.48 223.712 35.616 223.712 33.536C223.712 32.832 224.352 32.32 225.424 32.32C226.592 32.32 227.264 32.96 227.328 33.84H228.784C228.688 32.128 227.408 31.088 225.472 31.088C223.52 31.088 222.256 32.192 222.256 33.536C222.256 36.8 227.44 35.664 227.44 37.616C227.44 38.336 226.8 38.912 225.648 38.912C224.416 38.912 223.664 38.272 223.584 37.424H222.08C222.176 39.024 223.616 40.144 225.664 40.144C227.6 40.144 228.864 39.056 228.864 37.616ZM230.92 40H232.376V31.232H230.92V40ZM231.672 29.808C232.2 29.808 232.632 29.376 232.632 28.816C232.632 28.256 232.2 27.824 231.672 27.824C231.112 27.824 230.68 28.256 230.68 28.816C230.68 29.376 231.112 29.808 231.672 29.808ZM235.177 37.6C235.177 39.36 236.057 40 237.609 40H238.921V38.768H237.849C236.953 38.768 236.633 38.464 236.633 37.6V32.432H238.921V31.232H236.633V29.024H235.177V31.232H234.041V32.432H235.177V37.6ZM244.407 35.584C244.407 38.304 246.215 40.144 248.551 40.144C250.167 40.144 251.303 39.312 251.831 38.368V40H253.303V31.232H251.831V32.832C251.319 31.92 250.199 31.088 248.567 31.088C246.215 31.088 244.407 32.848 244.407 35.584ZM251.831 35.6C251.831 37.664 250.455 38.864 248.855 38.864C247.255 38.864 245.895 37.648 245.895 35.584C245.895 33.52 247.255 32.352 248.855 32.352C250.455 32.352 251.831 33.568 251.831 35.6ZM268.419 40H269.859V34.832C269.859 32.32 268.307 31.072 266.307 31.072C264.963 31.072 263.715 31.76 263.203 33.024C262.627 31.712 261.427 31.072 259.987 31.072C258.835 31.072 257.795 31.568 257.219 32.496V31.232H255.763V40H257.219V35.168C257.219 33.28 258.227 32.336 259.699 32.336C261.139 32.336 262.099 33.248 262.099 35.04V40H263.539V35.168C263.539 33.28 264.547 32.336 266.019 32.336C267.459 32.336 268.419 33.248 268.419 35.04V40ZM275.976 32.32C277.48 32.32 278.76 33.264 278.744 34.976H273.208C273.368 33.264 274.552 32.32 275.976 32.32ZM280.072 37.296H278.504C278.184 38.24 277.352 38.912 276.04 38.912C274.552 38.912 273.304 37.936 273.192 36.16H280.2C280.232 35.856 280.248 35.6 280.248 35.28C280.248 32.88 278.584 31.088 276.04 31.088C273.48 31.088 271.704 32.832 271.704 35.6C271.704 38.384 273.544 40.144 276.04 40.144C278.216 40.144 279.624 38.896 280.072 37.296ZM282.49 37.6C282.49 39.36 283.37 40 284.922 40H286.234V38.768H285.161C284.266 38.768 283.946 38.464 283.946 37.6V32.432H286.234V31.232H283.946V29.024H282.49V31.232H281.354V32.432H282.49V37.6ZM286.734 42.288H287.71L289.502 37.984H287.902L286.734 42.288ZM294.891 35.6C294.891 38.384 296.667 40.144 299.163 40.144C301.339 40.144 302.763 38.928 303.211 37.184H301.643C301.323 38.288 300.459 38.912 299.163 38.912C297.563 38.912 296.379 37.776 296.379 35.6C296.379 33.456 297.563 32.32 299.163 32.32C300.459 32.32 301.339 32.992 301.643 34.048H303.211C302.763 32.208 301.339 31.088 299.163 31.088C296.667 31.088 294.891 32.848 294.891 35.6ZM313.474 35.6C313.474 32.832 311.538 31.088 309.042 31.088C306.562 31.088 304.61 32.832 304.61 35.6C304.61 38.384 306.498 40.144 308.978 40.144C311.474 40.144 313.474 38.384 313.474 35.6ZM306.098 35.6C306.098 33.392 307.49 32.352 309.026 32.352C310.53 32.352 311.986 33.392 311.986 35.6C311.986 37.824 310.498 38.864 308.978 38.864C307.458 38.864 306.098 37.824 306.098 35.6ZM321.804 40H323.244V34.832C323.244 32.32 321.692 31.072 319.66 31.072C318.476 31.072 317.42 31.568 316.844 32.48V31.232H315.388V40H316.844V35.152C316.844 33.264 317.868 32.336 319.356 32.336C320.828 32.336 321.804 33.248 321.804 35.04V40ZM331.927 37.616C331.863 34.48 326.775 35.616 326.775 33.536C326.775 32.832 327.415 32.32 328.487 32.32C329.655 32.32 330.327 32.96 330.391 33.84H331.847C331.751 32.128 330.471 31.088 328.535 31.088C326.583 31.088 325.319 32.192 325.319 33.536C325.319 36.8 330.503 35.664 330.503 37.616C330.503 38.336 329.863 38.912 328.711 38.912C327.479 38.912 326.727 38.272 326.647 37.424H325.143C325.239 39.024 326.679 40.144 328.727 40.144C330.663 40.144 331.927 39.056 331.927 37.616ZM337.71 32.32C339.214 32.32 340.494 33.264 340.478 34.976H334.942C335.102 33.264 336.286 32.32 337.71 32.32ZM341.806 37.296H340.238C339.918 38.24 339.086 38.912 337.774 38.912C336.286 38.912 335.038 37.936 334.926 36.16H341.934C341.966 35.856 341.982 35.6 341.982 35.28C341.982 32.88 340.318 31.088 337.774 31.088C335.214 31.088 333.438 32.832 333.438 35.6C333.438 38.384 335.278 40.144 337.774 40.144C339.95 40.144 341.358 38.896 341.806 37.296ZM343.36 35.6C343.36 38.384 345.136 40.144 347.632 40.144C349.808 40.144 351.232 38.928 351.68 37.184H350.112C349.792 38.288 348.928 38.912 347.632 38.912C346.032 38.912 344.848 37.776 344.848 35.6C344.848 33.456 346.032 32.32 347.632 32.32C348.928 32.32 349.808 32.992 350.112 34.048H351.68C351.232 32.208 349.808 31.088 347.632 31.088C345.136 31.088 343.36 32.848 343.36 35.6ZM353.943 37.6C353.943 39.36 354.823 40 356.375 40H357.687V38.768H356.615C355.719 38.768 355.399 38.464 355.399 37.6V32.432H357.687V31.232H355.399V29.024H353.943V31.232H352.807V32.432H353.943V37.6ZM363.179 32.32C364.683 32.32 365.963 33.264 365.947 34.976H360.411C360.571 33.264 361.755 32.32 363.179 32.32ZM367.275 37.296H365.707C365.387 38.24 364.555 38.912 363.243 38.912C361.755 38.912 360.507 37.936 360.395 36.16H367.403C367.435 35.856 367.451 35.6 367.451 35.28C367.451 32.88 365.787 31.088 363.243 31.088C360.683 31.088 358.907 32.832 358.907 35.6C358.907 38.384 360.747 40.144 363.243 40.144C365.419 40.144 366.827 38.896 367.275 37.296ZM369.693 37.6C369.693 39.36 370.573 40 372.125 40H373.437V38.768H372.365C371.469 38.768 371.149 38.464 371.149 37.6V32.432H373.437V31.232H371.149V29.024H369.693V31.232H368.557V32.432H369.693V37.6ZM382.977 31.232H381.521V36.048C381.521 37.936 380.513 38.864 379.009 38.864C377.537 38.864 376.561 37.952 376.561 36.176V31.232H375.121V36.368C375.121 38.88 376.705 40.128 378.721 40.128C379.889 40.128 380.961 39.616 381.521 38.704V40H382.977V31.232ZM386.891 35.232C386.891 33.2 387.947 32.576 389.339 32.576H389.723V31.072C388.331 31.072 387.387 31.68 386.891 32.656V31.232H385.435V40H386.891V35.232ZM68.688 55.584C68.688 58.304 70.496 60.144 72.832 60.144C74.448 60.144 75.584 59.312 76.112 58.368V60H77.584V51.232H76.112V52.832C75.6 51.92 74.48 51.088 72.848 51.088C70.496 51.088 68.688 52.848 68.688 55.584ZM76.112 55.6C76.112 57.664 74.736 58.864 73.136 58.864C71.536 58.864 70.176 57.648 70.176 55.584C70.176 53.52 71.536 52.352 73.136 52.352C74.736 52.352 76.112 53.568 76.112 55.6ZM79.5005 55.584C79.5005 58.304 81.3085 60.144 83.6605 60.144C85.2605 60.144 86.3965 59.328 86.9245 58.352V60H88.3965V48.16H86.9245V52.8C86.3165 51.792 85.0525 51.088 83.6765 51.088C81.3085 51.088 79.5005 52.848 79.5005 55.584ZM86.9245 55.6C86.9245 57.664 85.5485 58.864 83.9485 58.864C82.3485 58.864 80.9885 57.648 80.9885 55.584C80.9885 53.52 82.3485 52.352 83.9485 52.352C85.5485 52.352 86.9245 53.568 86.9245 55.6ZM90.857 60H92.313V51.232H90.857V60ZM91.609 49.808C92.137 49.808 92.569 49.376 92.569 48.816C92.569 48.256 92.137 47.824 91.609 47.824C91.049 47.824 90.617 48.256 90.617 48.816C90.617 49.376 91.049 49.808 91.609 49.808ZM96.2505 52.848V51.232H94.7945V64.16H96.2505V58.384C96.7945 59.28 97.9305 60.144 99.5305 60.144C101.883 60.144 103.691 58.304 103.691 55.584C103.691 52.848 101.883 51.088 99.5305 51.088C97.9305 51.088 96.7785 51.92 96.2505 52.848ZM102.203 55.584C102.203 57.648 100.843 58.864 99.2265 58.864C97.6425 58.864 96.2505 57.664 96.2505 55.6C96.2505 53.568 97.6425 52.352 99.2265 52.352C100.843 52.352 102.203 53.52 102.203 55.584ZM105.607 60H107.063V51.232H105.607V60ZM106.359 49.808C106.887 49.808 107.319 49.376 107.319 48.816C107.319 48.256 106.887 47.824 106.359 47.824C105.799 47.824 105.367 48.256 105.367 48.816C105.367 49.376 105.799 49.808 106.359 49.808ZM115.849 57.616C115.785 54.48 110.697 55.616 110.697 53.536C110.697 52.832 111.337 52.32 112.409 52.32C113.577 52.32 114.249 52.96 114.313 53.84H115.769C115.673 52.128 114.393 51.088 112.457 51.088C110.505 51.088 109.241 52.192 109.241 53.536C109.241 56.8 114.425 55.664 114.425 57.616C114.425 58.336 113.785 58.912 112.633 58.912C111.401 58.912 110.649 58.272 110.569 57.424H109.065C109.161 59.024 110.601 60.144 112.649 60.144C114.585 60.144 115.849 59.056 115.849 57.616ZM117.36 55.6C117.36 58.384 119.136 60.144 121.632 60.144C123.808 60.144 125.232 58.928 125.68 57.184H124.112C123.792 58.288 122.928 58.912 121.632 58.912C120.032 58.912 118.848 57.776 118.848 55.6C118.848 53.456 120.032 52.32 121.632 52.32C122.928 52.32 123.808 52.992 124.112 54.048H125.68C125.232 52.208 123.808 51.088 121.632 51.088C119.136 51.088 117.36 52.848 117.36 55.6ZM127.623 60H129.079V51.232H127.623V60ZM128.375 49.808C128.903 49.808 129.335 49.376 129.335 48.816C129.335 48.256 128.903 47.824 128.375 47.824C127.815 47.824 127.383 48.256 127.383 48.816C127.383 49.376 127.815 49.808 128.375 49.808ZM137.976 60H139.416V54.832C139.416 52.32 137.864 51.072 135.832 51.072C134.648 51.072 133.592 51.568 133.016 52.48V51.232H131.56V60H133.016V55.152C133.016 53.264 134.04 52.336 135.528 52.336C137 52.336 137.976 53.248 137.976 55.04V60ZM141.251 55.584C141.251 58.304 143.059 60.144 145.411 60.144C147.011 60.144 148.147 59.296 148.675 58.352V60.192C148.675 62.064 147.507 63.056 145.955 63.056C144.515 63.056 143.475 62.336 143.155 61.28H141.715C142.003 63.152 143.651 64.32 145.955 64.32C148.531 64.32 150.147 62.608 150.147 60.192V51.232H148.675V52.832C148.163 51.888 147.011 51.088 145.411 51.088C143.059 51.088 141.251 52.848 141.251 55.584ZM148.675 55.6C148.675 57.664 147.299 58.864 145.699 58.864C144.099 58.864 142.739 57.648 142.739 55.584C142.739 53.52 144.099 52.352 145.699 52.352C147.299 52.352 148.675 53.568 148.675 55.6ZM160.601 52.32C162.105 52.32 163.385 53.264 163.369 54.976H157.833C157.993 53.264 159.177 52.32 160.601 52.32ZM164.697 57.296H163.129C162.809 58.24 161.977 58.912 160.665 58.912C159.177 58.912 157.929 57.936 157.817 56.16H164.825C164.857 55.856 164.873 55.6 164.873 55.28C164.873 52.88 163.209 51.088 160.665 51.088C158.105 51.088 156.329 52.832 156.329 55.6C156.329 58.384 158.169 60.144 160.665 60.144C162.841 60.144 164.249 58.896 164.697 57.296ZM166.795 60H168.251V48.16H166.795V60ZM170.732 60H172.188V51.232H170.732V60ZM171.484 49.808C172.012 49.808 172.444 49.376 172.444 48.816C172.444 48.256 172.012 47.824 171.484 47.824C170.924 47.824 170.492 48.256 170.492 48.816C170.492 49.376 170.924 49.808 171.484 49.808ZM174.99 57.6C174.99 59.36 175.87 60 177.422 60H178.734V58.768H177.661C176.766 58.768 176.446 58.464 176.446 57.6V52.432H178.734V51.232H176.446V49.024H174.99V51.232H173.854V52.432H174.99V57.6ZM181.922 59.104C181.922 58.544 181.49 58.112 180.962 58.112C180.402 58.112 179.97 58.544 179.97 59.104C179.97 59.664 180.402 60.096 180.962 60.096C181.49 60.096 181.922 59.664 181.922 59.104ZM188.091 55.888C188.091 58.784 189.979 60.112 192.283 60.112C194.587 60.112 196.491 58.784 196.491 55.888V48.848H195.035V55.904C195.035 57.952 193.947 58.832 192.299 58.832C190.651 58.832 189.547 57.952 189.547 55.904V48.848H188.091V55.888ZM200.376 55.232C200.376 53.2 201.432 52.576 202.824 52.576H203.208V51.072C201.816 51.072 200.872 51.68 200.376 52.656V51.232H198.92V60H200.376V55.232ZM211.304 60H212.744V54.832C212.744 52.32 211.192 51.072 209.16 51.072C207.976 51.072 206.92 51.568 206.344 52.48V51.232H204.888V60H206.344V55.152C206.344 53.264 207.368 52.336 208.856 52.336C210.328 52.336 211.304 53.248 211.304 55.04V60ZM214.579 55.584C214.579 58.304 216.387 60.144 218.723 60.144C220.339 60.144 221.475 59.312 222.003 58.368V60H223.475V51.232H222.003V52.832C221.491 51.92 220.371 51.088 218.739 51.088C216.387 51.088 214.579 52.848 214.579 55.584ZM222.003 55.6C222.003 57.664 220.627 58.864 219.027 58.864C217.427 58.864 216.067 57.648 216.067 55.584C216.067 53.52 217.427 52.352 219.027 52.352C220.627 52.352 222.003 53.568 222.003 55.6ZM224.671 62.288H225.647L227.439 57.984H225.839L224.671 62.288ZM233.693 57.6C233.693 59.36 234.573 60 236.125 60H237.437V58.768H236.365C235.469 58.768 235.149 58.464 235.149 57.6V52.432H237.437V51.232H235.149V49.024H233.693V51.232H232.557V52.432H233.693V57.6ZM247.521 55.6C247.521 52.832 245.585 51.088 243.089 51.088C240.609 51.088 238.657 52.832 238.657 55.6C238.657 58.384 240.545 60.144 243.025 60.144C245.521 60.144 247.521 58.384 247.521 55.6ZM240.145 55.6C240.145 53.392 241.537 52.352 243.073 52.352C244.577 52.352 246.033 53.392 246.033 55.6C246.033 57.824 244.545 58.864 243.025 58.864C241.505 58.864 240.145 57.824 240.145 55.6ZM250.891 55.232C250.891 53.2 251.947 52.576 253.339 52.576H253.723V51.072C252.331 51.072 251.387 51.68 250.891 52.656V51.232H249.435V60H250.891V55.232ZM255.724 57.6C255.724 59.36 256.604 60 258.156 60H259.468V58.768H258.396C257.5 58.768 257.18 58.464 257.18 57.6V52.432H259.468V51.232H257.18V49.024H255.724V51.232H254.588V52.432H255.724V57.6ZM269.552 55.6C269.552 52.832 267.616 51.088 265.12 51.088C262.64 51.088 260.688 52.832 260.688 55.6C260.688 58.384 262.576 60.144 265.056 60.144C267.552 60.144 269.552 58.384 269.552 55.6ZM262.176 55.6C262.176 53.392 263.568 52.352 265.104 52.352C266.608 52.352 268.064 53.392 268.064 55.6C268.064 57.824 266.576 58.864 265.056 58.864C263.536 58.864 262.176 57.824 262.176 55.6ZM272.922 55.232C272.922 53.2 273.978 52.576 275.37 52.576H275.754V51.072C274.362 51.072 273.418 51.68 272.922 52.656V51.232H271.466V60H272.922V55.232ZM282.021 57.6C282.021 59.36 282.901 60 284.453 60H285.765V58.768H284.693C283.797 58.768 283.477 58.464 283.477 57.6V52.432H285.765V51.232H283.477V49.024H282.021V51.232H280.885V52.432H282.021V57.6ZM291.257 52.32C292.761 52.32 294.041 53.264 294.025 54.976H288.489C288.649 53.264 289.833 52.32 291.257 52.32ZM295.353 57.296H293.785C293.465 58.24 292.633 58.912 291.321 58.912C289.833 58.912 288.585 57.936 288.473 56.16H295.481C295.513 55.856 295.529 55.6 295.529 55.28C295.529 52.88 293.865 51.088 291.321 51.088C288.761 51.088 286.985 52.832 286.985 55.6C286.985 58.384 288.825 60.144 291.321 60.144C293.497 60.144 294.905 58.896 295.353 57.296ZM310.107 60H311.547V54.832C311.547 52.32 309.995 51.072 307.995 51.072C306.651 51.072 305.403 51.76 304.891 53.024C304.315 51.712 303.115 51.072 301.675 51.072C300.523 51.072 299.483 51.568 298.907 52.496V51.232H297.451V60H298.907V55.168C298.907 53.28 299.915 52.336 301.387 52.336C302.827 52.336 303.787 53.248 303.787 55.04V60H305.227V55.168C305.227 53.28 306.235 52.336 307.707 52.336C309.147 52.336 310.107 53.248 310.107 55.04V60ZM315.391 52.848V51.232H313.935V64.16H315.391V58.384C315.935 59.28 317.071 60.144 318.671 60.144C321.023 60.144 322.831 58.304 322.831 55.584C322.831 52.848 321.023 51.088 318.671 51.088C317.071 51.088 315.919 51.92 315.391 52.848ZM321.343 55.584C321.343 57.648 319.983 58.864 318.367 58.864C316.783 58.864 315.391 57.664 315.391 55.6C315.391 53.568 316.783 52.352 318.367 52.352C319.983 52.352 321.343 53.52 321.343 55.584ZM332.524 51.232H331.068V56.048C331.068 57.936 330.06 58.864 328.556 58.864C327.084 58.864 326.108 57.952 326.108 56.176V51.232H324.668V56.368C324.668 58.88 326.252 60.128 328.268 60.128C329.436 60.128 330.508 59.616 331.068 58.704V60H332.524V51.232ZM341.286 57.616C341.222 54.48 336.134 55.616 336.134 53.536C336.134 52.832 336.774 52.32 337.846 52.32C339.014 52.32 339.686 52.96 339.75 53.84H341.206C341.11 52.128 339.83 51.088 337.894 51.088C335.942 51.088 334.678 52.192 334.678 53.536C334.678 56.8 339.862 55.664 339.862 57.616C339.862 58.336 339.222 58.912 338.07 58.912C336.838 58.912 336.086 58.272 336.006 57.424H334.502C334.598 59.024 336.038 60.144 338.086 60.144C340.022 60.144 341.286 59.056 341.286 57.616ZM344.765 59.104C344.765 58.544 344.333 58.112 343.805 58.112C343.245 58.112 342.813 58.544 342.813 59.104C342.813 59.664 343.245 60.096 343.805 60.096C344.333 60.096 344.765 59.664 344.765 59.104Z" fill="#5E6282"/>
<rect y="228" width="47" height="48" rx="13" fill="#006380"/>
<path d="M16.5 254.125C16.2033 254.125 15.9133 254.213 15.6666 254.378C15.42 254.543 15.2277 254.777 15.1142 255.051C15.0006 255.325 14.9709 255.627 15.0288 255.918C15.0867 256.209 15.2296 256.476 15.4393 256.686C15.6491 256.895 15.9164 257.038 16.2074 257.096C16.4983 257.154 16.7999 257.124 17.074 257.011C17.3481 256.897 17.5824 256.705 17.7472 256.458C17.912 256.212 18 255.922 18 255.625C18 255.227 17.842 254.846 17.5607 254.564C17.2794 254.283 16.8978 254.125 16.5 254.125ZM16.5 256.375C16.3517 256.375 16.2067 256.331 16.0833 256.249C15.96 256.166 15.8639 256.049 15.8071 255.912C15.7503 255.775 15.7355 255.624 15.7644 255.479C15.7934 255.333 15.8648 255.2 15.9697 255.095C16.0746 254.99 16.2082 254.918 16.3537 254.889C16.4992 254.86 16.65 254.875 16.787 254.932C16.9241 254.989 17.0412 255.085 17.1236 255.208C17.206 255.332 17.25 255.477 17.25 255.625C17.25 255.824 17.171 256.015 17.0303 256.155C16.8897 256.296 16.6989 256.375 16.5 256.375Z" fill="white"/>
<path d="M31.5 254.125C31.2033 254.125 30.9133 254.213 30.6666 254.378C30.42 254.543 30.2277 254.777 30.1142 255.051C30.0006 255.325 29.9709 255.627 30.0288 255.918C30.0867 256.209 30.2296 256.476 30.4393 256.686C30.6491 256.895 30.9164 257.038 31.2074 257.096C31.4983 257.154 31.7999 257.124 32.074 257.011C32.3481 256.897 32.5824 256.705 32.7472 256.458C32.912 256.212 33 255.922 33 255.625C33 255.227 32.842 254.846 32.5607 254.564C32.2793 254.283 31.8978 254.125 31.5 254.125ZM31.5 256.375C31.3517 256.375 31.2067 256.331 31.0833 256.249C30.96 256.166 30.8639 256.049 30.8071 255.912C30.7503 255.775 30.7355 255.624 30.7644 255.479C30.7933 255.333 30.8648 255.2 30.9697 255.095C31.0746 254.99 31.2082 254.918 31.3537 254.889C31.4992 254.86 31.65 254.875 31.787 254.932C31.9241 254.989 32.0412 255.085 32.1236 255.208C32.206 255.332 32.25 255.477 32.25 255.625C32.25 255.824 32.171 256.015 32.0303 256.155C31.8897 256.296 31.6989 256.375 31.5 256.375Z" fill="white"/>
<path d="M20.625 256H27.375V256.75H20.625V256Z" fill="white"/>
<path d="M20.625 254.5H27.375V255.25H20.625V254.5Z" fill="white"/>
<path d="M22.875 248.875H25.125V249.625H22.875V248.875Z" fill="white"/>
<path d="M35.25 252.25V251.5C35.2491 251.202 35.1303 250.916 34.9195 250.705C34.7087 250.495 34.4231 250.376 34.125 250.375H32.64L31.8638 247.653L31.6312 246.726C31.5702 246.483 31.4297 246.267 31.232 246.113C31.0343 245.959 30.7907 245.875 30.54 245.875H27.375V244.375C27.3744 244.176 27.2952 243.986 27.1547 243.845C27.0142 243.705 26.8237 243.626 26.625 243.625H21.375C21.1763 243.626 20.9858 243.705 20.8453 243.845C20.7048 243.986 20.6256 244.176 20.625 244.375V245.875H17.46C17.2093 245.875 16.9657 245.959 16.768 246.113C16.5703 246.267 16.4298 246.483 16.3687 246.726L16.14 247.649L15.36 250.375H13.875C13.5769 250.376 13.2913 250.495 13.0805 250.705C12.8697 250.916 12.7509 251.202 12.75 251.5V252.25C12.7506 252.44 12.7994 252.627 12.8919 252.793C12.9844 252.959 13.1175 253.098 13.2788 253.199C12.9398 253.547 12.75 254.014 12.75 254.5V259C12.7505 259.157 12.7842 259.313 12.8488 259.456C12.9134 259.6 13.0075 259.728 13.125 259.833V261.25C13.1259 261.548 13.2447 261.834 13.4555 262.045C13.6663 262.255 13.9519 262.374 14.25 262.375H17.25C17.5481 262.374 17.8337 262.255 18.0445 262.045C18.2553 261.834 18.3741 261.548 18.375 261.25V260.125H29.625V261.25C29.6259 261.548 29.7447 261.834 29.9555 262.045C30.1663 262.255 30.4519 262.374 30.75 262.375H33.75C34.0481 262.374 34.3337 262.255 34.5445 262.045C34.7553 261.834 34.8741 261.548 34.875 261.25V259.833C34.9925 259.728 35.0866 259.6 35.1512 259.456C35.2158 259.313 35.2495 259.157 35.25 259V254.5C35.25 254.014 35.0602 253.547 34.7213 253.199C34.8825 253.098 35.0156 252.959 35.1081 252.793C35.2006 252.627 35.2494 252.44 35.25 252.25ZM21.375 244.375H26.625V245.875H21.375V244.375ZM17.0963 246.91C17.1163 246.829 17.1631 246.756 17.229 246.705C17.2949 246.653 17.3763 246.625 17.46 246.625H30.54C30.6237 246.625 30.7051 246.653 30.771 246.705C30.8369 246.756 30.8836 246.829 30.9037 246.91L31.02 247.375H16.98L17.0963 246.91ZM16.7812 248.125H31.2188L32.5012 252.625H21.7162C21.6281 252.101 21.3571 251.625 20.9514 251.282C20.5456 250.939 20.0314 250.75 19.5 250.75C18.9686 250.75 18.4544 250.939 18.0486 251.282C17.6429 251.625 17.3719 252.101 17.2838 252.625H15.4987L16.7812 248.125ZM20.9475 252.625H18.0525C18.1344 252.303 18.3211 252.018 18.5833 251.814C18.8454 251.61 19.168 251.5 19.5 251.5C19.832 251.5 20.1546 251.61 20.4167 251.814C20.6789 252.018 20.8656 252.303 20.9475 252.625ZM13.5 251.5C13.5 251.401 13.5395 251.305 13.6098 251.235C13.6802 251.165 13.7755 251.125 13.875 251.125H15.1463L14.7188 252.625H13.875C13.7755 252.625 13.6802 252.585 13.6098 252.515C13.5395 252.445 13.5 252.349 13.5 252.25V251.5ZM17.625 261.25C17.625 261.349 17.5855 261.445 17.5152 261.515C17.4448 261.585 17.3495 261.625 17.25 261.625H14.25C14.1505 261.625 14.0552 261.585 13.9848 261.515C13.9145 261.445 13.875 261.349 13.875 261.25V260.125H17.625V261.25ZM34.125 261.25C34.125 261.349 34.0855 261.445 34.0152 261.515C33.9448 261.585 33.8495 261.625 33.75 261.625H30.75C30.6505 261.625 30.5552 261.585 30.4848 261.515C30.4145 261.445 30.375 261.349 30.375 261.25V260.125H34.125V261.25ZM34.5 259C34.5 259.099 34.4605 259.195 34.3902 259.265C34.3198 259.335 34.2245 259.375 34.125 259.375H13.875C13.7755 259.375 13.6802 259.335 13.6098 259.265C13.5395 259.195 13.5 259.099 13.5 259V258.625H34.5V259ZM34.5 257.875H13.5V254.5C13.5009 254.202 13.6197 253.916 13.8305 253.705C14.0413 253.495 14.3269 253.376 14.625 253.375H33.375C33.6731 253.376 33.9587 253.495 34.1695 253.705C34.3803 253.916 34.4991 254.202 34.5 254.5V257.875ZM34.5 252.25C34.5 252.349 34.4605 252.445 34.3902 252.515C34.3198 252.585 34.2245 252.625 34.125 252.625H33.2812L32.8538 251.125H34.125C34.2245 251.125 34.3198 251.165 34.3902 251.235C34.4605 251.305 34.5 251.401 34.5 251.5V252.25Z" fill="white"/>
<path d="M69.232 253.848V265H74.592V263.816H70.688V253.848H69.232ZM84.4583 260.6C84.4583 257.832 82.5223 256.088 80.0263 256.088C77.5463 256.088 75.5943 257.832 75.5943 260.6C75.5943 263.384 77.4823 265.144 79.9623 265.144C82.4583 265.144 84.4583 263.384 84.4583 260.6ZM77.0823 260.6C77.0823 258.392 78.4743 257.352 80.0103 257.352C81.5143 257.352 82.9703 258.392 82.9703 260.6C82.9703 262.824 81.4823 263.864 79.9623 263.864C78.4423 263.864 77.0823 262.824 77.0823 260.6ZM87.8286 260.232C87.8286 258.2 88.8846 257.576 90.2766 257.576H90.6606V256.072C89.2686 256.072 88.3246 256.68 87.8286 257.656V256.232H86.3726V265H87.8286V260.232ZM96.0694 257.32C97.5734 257.32 98.8534 258.264 98.8374 259.976H93.3014C93.4614 258.264 94.6454 257.32 96.0694 257.32ZM100.165 262.296H98.5974C98.2774 263.24 97.4454 263.912 96.1334 263.912C94.6454 263.912 93.3974 262.936 93.2854 261.16H100.293C100.325 260.856 100.341 260.6 100.341 260.28C100.341 257.88 98.6774 256.088 96.1334 256.088C93.5734 256.088 91.7974 257.832 91.7974 260.6C91.7974 263.384 93.6374 265.144 96.1334 265.144C98.3094 265.144 99.7174 263.896 100.165 262.296ZM114.919 265H116.359V259.832C116.359 257.32 114.807 256.072 112.807 256.072C111.463 256.072 110.215 256.76 109.703 258.024C109.127 256.712 107.927 256.072 106.487 256.072C105.335 256.072 104.295 256.568 103.719 257.496V256.232H102.263V265H103.719V260.168C103.719 258.28 104.727 257.336 106.199 257.336C107.639 257.336 108.599 258.248 108.599 260.04V265H110.039V260.168C110.039 258.28 111.047 257.336 112.519 257.336C113.959 257.336 114.919 258.248 114.919 260.04V265ZM123.013 265H124.469V256.232H123.013V265ZM123.765 254.808C124.293 254.808 124.725 254.376 124.725 253.816C124.725 253.256 124.293 252.824 123.765 252.824C123.205 252.824 122.773 253.256 122.773 253.816C122.773 254.376 123.205 254.808 123.765 254.808ZM128.407 257.848V256.232H126.951V269.16H128.407V263.384C128.951 264.28 130.087 265.144 131.687 265.144C134.039 265.144 135.847 263.304 135.847 260.584C135.847 257.848 134.039 256.088 131.687 256.088C130.087 256.088 128.935 256.92 128.407 257.848ZM134.359 260.584C134.359 262.648 132.999 263.864 131.383 263.864C129.799 263.864 128.407 262.664 128.407 260.6C128.407 258.568 129.799 257.352 131.383 257.352C132.999 257.352 134.359 258.52 134.359 260.584ZM144.067 262.616C144.003 259.48 138.915 260.616 138.915 258.536C138.915 257.832 139.555 257.32 140.627 257.32C141.795 257.32 142.467 257.96 142.531 258.84H143.987C143.891 257.128 142.611 256.088 140.675 256.088C138.723 256.088 137.459 257.192 137.459 258.536C137.459 261.8 142.643 260.664 142.643 262.616C142.643 263.336 142.003 263.912 140.851 263.912C139.619 263.912 138.867 263.272 138.787 262.424H137.283C137.379 264.024 138.819 265.144 140.867 265.144C142.803 265.144 144.067 264.056 144.067 262.616ZM153.899 256.232H152.443V261.048C152.443 262.936 151.435 263.864 149.931 263.864C148.459 263.864 147.483 262.952 147.483 261.176V256.232H146.043V261.368C146.043 263.88 147.627 265.128 149.643 265.128C150.811 265.128 151.883 264.616 152.443 263.704V265H153.899V256.232ZM169.013 265H170.453V259.832C170.453 257.32 168.901 256.072 166.901 256.072C165.557 256.072 164.309 256.76 163.797 258.024C163.221 256.712 162.021 256.072 160.581 256.072C159.429 256.072 158.389 256.568 157.813 257.496V256.232H156.357V265H157.813V260.168C157.813 258.28 158.821 257.336 160.293 257.336C161.733 257.336 162.693 258.248 162.693 260.04V265H164.133V260.168C164.133 258.28 165.141 257.336 166.613 257.336C168.053 257.336 169.013 258.248 169.013 260.04V265ZM176.563 260.584C176.563 263.304 178.371 265.144 180.723 265.144C182.323 265.144 183.459 264.328 183.987 263.352V265H185.459V253.16H183.987V257.8C183.379 256.792 182.115 256.088 180.739 256.088C178.371 256.088 176.563 257.848 176.563 260.584ZM183.987 260.6C183.987 262.664 182.611 263.864 181.011 263.864C179.411 263.864 178.051 262.648 178.051 260.584C178.051 258.52 179.411 257.352 181.011 257.352C182.611 257.352 183.987 258.568 183.987 260.6ZM196.24 260.6C196.24 257.832 194.304 256.088 191.808 256.088C189.328 256.088 187.376 257.832 187.376 260.6C187.376 263.384 189.264 265.144 191.744 265.144C194.24 265.144 196.24 263.384 196.24 260.6ZM188.864 260.6C188.864 258.392 190.256 257.352 191.792 257.352C193.296 257.352 194.752 258.392 194.752 260.6C194.752 262.824 193.264 263.864 191.744 263.864C190.224 263.864 188.864 262.824 188.864 260.6ZM198.154 265H199.61V253.16H198.154V265ZM210.411 260.6C210.411 257.832 208.475 256.088 205.979 256.088C203.499 256.088 201.547 257.832 201.547 260.6C201.547 263.384 203.435 265.144 205.915 265.144C208.411 265.144 210.411 263.384 210.411 260.6ZM203.035 260.6C203.035 258.392 204.427 257.352 205.963 257.352C207.467 257.352 208.923 258.392 208.923 260.6C208.923 262.824 207.435 263.864 205.915 263.864C204.395 263.864 203.035 262.824 203.035 260.6ZM213.782 260.232C213.782 258.2 214.838 257.576 216.23 257.576H216.614V256.072C215.222 256.072 214.278 256.68 213.782 257.656V256.232H212.326V265H213.782V260.232ZM228.864 262.616C228.8 259.48 223.712 260.616 223.712 258.536C223.712 257.832 224.352 257.32 225.424 257.32C226.592 257.32 227.264 257.96 227.328 258.84H228.784C228.688 257.128 227.408 256.088 225.472 256.088C223.52 256.088 222.256 257.192 222.256 258.536C222.256 261.8 227.44 260.664 227.44 262.616C227.44 263.336 226.8 263.912 225.648 263.912C224.416 263.912 223.664 263.272 223.584 262.424H222.08C222.176 264.024 223.616 265.144 225.664 265.144C227.6 265.144 228.864 264.056 228.864 262.616ZM230.92 265H232.376V256.232H230.92V265ZM231.672 254.808C232.2 254.808 232.632 254.376 232.632 253.816C232.632 253.256 232.2 252.824 231.672 252.824C231.112 252.824 230.68 253.256 230.68 253.816C230.68 254.376 231.112 254.808 231.672 254.808ZM235.177 262.6C235.177 264.36 236.057 265 237.609 265H238.921V263.768H237.849C236.953 263.768 236.633 263.464 236.633 262.6V257.432H238.921V256.232H236.633V254.024H235.177V256.232H234.041V257.432H235.177V262.6ZM244.407 260.584C244.407 263.304 246.215 265.144 248.551 265.144C250.167 265.144 251.303 264.312 251.831 263.368V265H253.303V256.232H251.831V257.832C251.319 256.92 250.199 256.088 248.567 256.088C246.215 256.088 244.407 257.848 244.407 260.584ZM251.831 260.6C251.831 262.664 250.455 263.864 248.855 263.864C247.255 263.864 245.895 262.648 245.895 260.584C245.895 258.52 247.255 257.352 248.855 257.352C250.455 257.352 251.831 258.568 251.831 260.6ZM268.419 265H269.859V259.832C269.859 257.32 268.307 256.072 266.307 256.072C264.963 256.072 263.715 256.76 263.203 258.024C262.627 256.712 261.427 256.072 259.987 256.072C258.835 256.072 257.795 256.568 257.219 257.496V256.232H255.763V265H257.219V260.168C257.219 258.28 258.227 257.336 259.699 257.336C261.139 257.336 262.099 258.248 262.099 260.04V265H263.539V260.168C263.539 258.28 264.547 257.336 266.019 257.336C267.459 257.336 268.419 258.248 268.419 260.04V265ZM275.976 257.32C277.48 257.32 278.76 258.264 278.744 259.976H273.208C273.368 258.264 274.552 257.32 275.976 257.32ZM280.072 262.296H278.504C278.184 263.24 277.352 263.912 276.04 263.912C274.552 263.912 273.304 262.936 273.192 261.16H280.2C280.232 260.856 280.248 260.6 280.248 260.28C280.248 257.88 278.584 256.088 276.04 256.088C273.48 256.088 271.704 257.832 271.704 260.6C271.704 263.384 273.544 265.144 276.04 265.144C278.216 265.144 279.624 263.896 280.072 262.296ZM282.49 262.6C282.49 264.36 283.37 265 284.922 265H286.234V263.768H285.161C284.266 263.768 283.946 263.464 283.946 262.6V257.432H286.234V256.232H283.946V254.024H282.49V256.232H281.354V257.432H282.49V262.6ZM286.734 267.288H287.71L289.502 262.984H287.902L286.734 267.288ZM294.891 260.6C294.891 263.384 296.667 265.144 299.163 265.144C301.339 265.144 302.763 263.928 303.211 262.184H301.643C301.323 263.288 300.459 263.912 299.163 263.912C297.563 263.912 296.379 262.776 296.379 260.6C296.379 258.456 297.563 257.32 299.163 257.32C300.459 257.32 301.339 257.992 301.643 259.048H303.211C302.763 257.208 301.339 256.088 299.163 256.088C296.667 256.088 294.891 257.848 294.891 260.6ZM313.474 260.6C313.474 257.832 311.538 256.088 309.042 256.088C306.562 256.088 304.61 257.832 304.61 260.6C304.61 263.384 306.498 265.144 308.978 265.144C311.474 265.144 313.474 263.384 313.474 260.6ZM306.098 260.6C306.098 258.392 307.49 257.352 309.026 257.352C310.53 257.352 311.986 258.392 311.986 260.6C311.986 262.824 310.498 263.864 308.978 263.864C307.458 263.864 306.098 262.824 306.098 260.6ZM321.804 265H323.244V259.832C323.244 257.32 321.692 256.072 319.66 256.072C318.476 256.072 317.42 256.568 316.844 257.48V256.232H315.388V265H316.844V260.152C316.844 258.264 317.868 257.336 319.356 257.336C320.828 257.336 321.804 258.248 321.804 260.04V265ZM331.927 262.616C331.863 259.48 326.775 260.616 326.775 258.536C326.775 257.832 327.415 257.32 328.487 257.32C329.655 257.32 330.327 257.96 330.391 258.84H331.847C331.751 257.128 330.471 256.088 328.535 256.088C326.583 256.088 325.319 257.192 325.319 258.536C325.319 261.8 330.503 260.664 330.503 262.616C330.503 263.336 329.863 263.912 328.711 263.912C327.479 263.912 326.727 263.272 326.647 262.424H325.143C325.239 264.024 326.679 265.144 328.727 265.144C330.663 265.144 331.927 264.056 331.927 262.616ZM337.71 257.32C339.214 257.32 340.494 258.264 340.478 259.976H334.942C335.102 258.264 336.286 257.32 337.71 257.32ZM341.806 262.296H340.238C339.918 263.24 339.086 263.912 337.774 263.912C336.286 263.912 335.038 262.936 334.926 261.16H341.934C341.966 260.856 341.982 260.6 341.982 260.28C341.982 257.88 340.318 256.088 337.774 256.088C335.214 256.088 333.438 257.832 333.438 260.6C333.438 263.384 335.278 265.144 337.774 265.144C339.95 265.144 341.358 263.896 341.806 262.296ZM343.36 260.6C343.36 263.384 345.136 265.144 347.632 265.144C349.808 265.144 351.232 263.928 351.68 262.184H350.112C349.792 263.288 348.928 263.912 347.632 263.912C346.032 263.912 344.848 262.776 344.848 260.6C344.848 258.456 346.032 257.32 347.632 257.32C348.928 257.32 349.808 257.992 350.112 259.048H351.68C351.232 257.208 349.808 256.088 347.632 256.088C345.136 256.088 343.36 257.848 343.36 260.6ZM353.943 262.6C353.943 264.36 354.823 265 356.375 265H357.687V263.768H356.615C355.719 263.768 355.399 263.464 355.399 262.6V257.432H357.687V256.232H355.399V254.024H353.943V256.232H352.807V257.432H353.943V262.6ZM363.179 257.32C364.683 257.32 365.963 258.264 365.947 259.976H360.411C360.571 258.264 361.755 257.32 363.179 257.32ZM367.275 262.296H365.707C365.387 263.24 364.555 263.912 363.243 263.912C361.755 263.912 360.507 262.936 360.395 261.16H367.403C367.435 260.856 367.451 260.6 367.451 260.28C367.451 257.88 365.787 256.088 363.243 256.088C360.683 256.088 358.907 257.832 358.907 260.6C358.907 263.384 360.747 265.144 363.243 265.144C365.419 265.144 366.827 263.896 367.275 262.296ZM369.693 262.6C369.693 264.36 370.573 265 372.125 265H373.437V263.768H372.365C371.469 263.768 371.149 263.464 371.149 262.6V257.432H373.437V256.232H371.149V254.024H369.693V256.232H368.557V257.432H369.693V262.6ZM382.977 256.232H381.521V261.048C381.521 262.936 380.513 263.864 379.009 263.864C377.537 263.864 376.561 262.952 376.561 261.176V256.232H375.121V261.368C375.121 263.88 376.705 265.128 378.721 265.128C379.889 265.128 380.961 264.616 381.521 263.704V265H382.977V256.232ZM386.891 260.232C386.891 258.2 387.947 257.576 389.339 257.576H389.723V256.072C388.331 256.072 387.387 256.68 386.891 257.656V256.232H385.435V265H386.891V260.232ZM68.688 280.584C68.688 283.304 70.496 285.144 72.832 285.144C74.448 285.144 75.584 284.312 76.112 283.368V285H77.584V276.232H76.112V277.832C75.6 276.92 74.48 276.088 72.848 276.088C70.496 276.088 68.688 277.848 68.688 280.584ZM76.112 280.6C76.112 282.664 74.736 283.864 73.136 283.864C71.536 283.864 70.176 282.648 70.176 280.584C70.176 278.52 71.536 277.352 73.136 277.352C74.736 277.352 76.112 278.568 76.112 280.6ZM79.5005 280.584C79.5005 283.304 81.3085 285.144 83.6605 285.144C85.2605 285.144 86.3965 284.328 86.9245 283.352V285H88.3965V273.16H86.9245V277.8C86.3165 276.792 85.0525 276.088 83.6765 276.088C81.3085 276.088 79.5005 277.848 79.5005 280.584ZM86.9245 280.6C86.9245 282.664 85.5485 283.864 83.9485 283.864C82.3485 283.864 80.9885 282.648 80.9885 280.584C80.9885 278.52 82.3485 277.352 83.9485 277.352C85.5485 277.352 86.9245 278.568 86.9245 280.6ZM90.857 285H92.313V276.232H90.857V285ZM91.609 274.808C92.137 274.808 92.569 274.376 92.569 273.816C92.569 273.256 92.137 272.824 91.609 272.824C91.049 272.824 90.617 273.256 90.617 273.816C90.617 274.376 91.049 274.808 91.609 274.808ZM96.2505 277.848V276.232H94.7945V289.16H96.2505V283.384C96.7945 284.28 97.9305 285.144 99.5305 285.144C101.883 285.144 103.691 283.304 103.691 280.584C103.691 277.848 101.883 276.088 99.5305 276.088C97.9305 276.088 96.7785 276.92 96.2505 277.848ZM102.203 280.584C102.203 282.648 100.843 283.864 99.2265 283.864C97.6425 283.864 96.2505 282.664 96.2505 280.6C96.2505 278.568 97.6425 277.352 99.2265 277.352C100.843 277.352 102.203 278.52 102.203 280.584ZM105.607 285H107.063V276.232H105.607V285ZM106.359 274.808C106.887 274.808 107.319 274.376 107.319 273.816C107.319 273.256 106.887 272.824 106.359 272.824C105.799 272.824 105.367 273.256 105.367 273.816C105.367 274.376 105.799 274.808 106.359 274.808ZM115.849 282.616C115.785 279.48 110.697 280.616 110.697 278.536C110.697 277.832 111.337 277.32 112.409 277.32C113.577 277.32 114.249 277.96 114.313 278.84H115.769C115.673 277.128 114.393 276.088 112.457 276.088C110.505 276.088 109.241 277.192 109.241 278.536C109.241 281.8 114.425 280.664 114.425 282.616C114.425 283.336 113.785 283.912 112.633 283.912C111.401 283.912 110.649 283.272 110.569 282.424H109.065C109.161 284.024 110.601 285.144 112.649 285.144C114.585 285.144 115.849 284.056 115.849 282.616ZM117.36 280.6C117.36 283.384 119.136 285.144 121.632 285.144C123.808 285.144 125.232 283.928 125.68 282.184H124.112C123.792 283.288 122.928 283.912 121.632 283.912C120.032 283.912 118.848 282.776 118.848 280.6C118.848 278.456 120.032 277.32 121.632 277.32C122.928 277.32 123.808 277.992 124.112 279.048H125.68C125.232 277.208 123.808 276.088 121.632 276.088C119.136 276.088 117.36 277.848 117.36 280.6ZM127.623 285H129.079V276.232H127.623V285ZM128.375 274.808C128.903 274.808 129.335 274.376 129.335 273.816C129.335 273.256 128.903 272.824 128.375 272.824C127.815 272.824 127.383 273.256 127.383 273.816C127.383 274.376 127.815 274.808 128.375 274.808ZM137.976 285H139.416V279.832C139.416 277.32 137.864 276.072 135.832 276.072C134.648 276.072 133.592 276.568 133.016 277.48V276.232H131.56V285H133.016V280.152C133.016 278.264 134.04 277.336 135.528 277.336C137 277.336 137.976 278.248 137.976 280.04V285ZM141.251 280.584C141.251 283.304 143.059 285.144 145.411 285.144C147.011 285.144 148.147 284.296 148.675 283.352V285.192C148.675 287.064 147.507 288.056 145.955 288.056C144.515 288.056 143.475 287.336 143.155 286.28H141.715C142.003 288.152 143.651 289.32 145.955 289.32C148.531 289.32 150.147 287.608 150.147 285.192V276.232H148.675V277.832C148.163 276.888 147.011 276.088 145.411 276.088C143.059 276.088 141.251 277.848 141.251 280.584ZM148.675 280.6C148.675 282.664 147.299 283.864 145.699 283.864C144.099 283.864 142.739 282.648 142.739 280.584C142.739 278.52 144.099 277.352 145.699 277.352C147.299 277.352 148.675 278.568 148.675 280.6ZM160.601 277.32C162.105 277.32 163.385 278.264 163.369 279.976H157.833C157.993 278.264 159.177 277.32 160.601 277.32ZM164.697 282.296H163.129C162.809 283.24 161.977 283.912 160.665 283.912C159.177 283.912 157.929 282.936 157.817 281.16H164.825C164.857 280.856 164.873 280.6 164.873 280.28C164.873 277.88 163.209 276.088 160.665 276.088C158.105 276.088 156.329 277.832 156.329 280.6C156.329 283.384 158.169 285.144 160.665 285.144C162.841 285.144 164.249 283.896 164.697 282.296ZM166.795 285H168.251V273.16H166.795V285ZM170.732 285H172.188V276.232H170.732V285ZM171.484 274.808C172.012 274.808 172.444 274.376 172.444 273.816C172.444 273.256 172.012 272.824 171.484 272.824C170.924 272.824 170.492 273.256 170.492 273.816C170.492 274.376 170.924 274.808 171.484 274.808ZM174.99 282.6C174.99 284.36 175.87 285 177.422 285H178.734V283.768H177.661C176.766 283.768 176.446 283.464 176.446 282.6V277.432H178.734V276.232H176.446V274.024H174.99V276.232H173.854V277.432H174.99V282.6ZM181.922 284.104C181.922 283.544 181.49 283.112 180.962 283.112C180.402 283.112 179.97 283.544 179.97 284.104C179.97 284.664 180.402 285.096 180.962 285.096C181.49 285.096 181.922 284.664 181.922 284.104ZM188.091 280.888C188.091 283.784 189.979 285.112 192.283 285.112C194.587 285.112 196.491 283.784 196.491 280.888V273.848H195.035V280.904C195.035 282.952 193.947 283.832 192.299 283.832C190.651 283.832 189.547 282.952 189.547 280.904V273.848H188.091V280.888ZM200.376 280.232C200.376 278.2 201.432 277.576 202.824 277.576H203.208V276.072C201.816 276.072 200.872 276.68 200.376 277.656V276.232H198.92V285H200.376V280.232ZM211.304 285H212.744V279.832C212.744 277.32 211.192 276.072 209.16 276.072C207.976 276.072 206.92 276.568 206.344 277.48V276.232H204.888V285H206.344V280.152C206.344 278.264 207.368 277.336 208.856 277.336C210.328 277.336 211.304 278.248 211.304 280.04V285ZM214.579 280.584C214.579 283.304 216.387 285.144 218.723 285.144C220.339 285.144 221.475 284.312 222.003 283.368V285H223.475V276.232H222.003V277.832C221.491 276.92 220.371 276.088 218.739 276.088C216.387 276.088 214.579 277.848 214.579 280.584ZM222.003 280.6C222.003 282.664 220.627 283.864 219.027 283.864C217.427 283.864 216.067 282.648 216.067 280.584C216.067 278.52 217.427 277.352 219.027 277.352C220.627 277.352 222.003 278.568 222.003 280.6ZM224.671 287.288H225.647L227.439 282.984H225.839L224.671 287.288ZM233.693 282.6C233.693 284.36 234.573 285 236.125 285H237.437V283.768H236.365C235.469 283.768 235.149 283.464 235.149 282.6V277.432H237.437V276.232H235.149V274.024H233.693V276.232H232.557V277.432H233.693V282.6ZM247.521 280.6C247.521 277.832 245.585 276.088 243.089 276.088C240.609 276.088 238.657 277.832 238.657 280.6C238.657 283.384 240.545 285.144 243.025 285.144C245.521 285.144 247.521 283.384 247.521 280.6ZM240.145 280.6C240.145 278.392 241.537 277.352 243.073 277.352C244.577 277.352 246.033 278.392 246.033 280.6C246.033 282.824 244.545 283.864 243.025 283.864C241.505 283.864 240.145 282.824 240.145 280.6ZM250.891 280.232C250.891 278.2 251.947 277.576 253.339 277.576H253.723V276.072C252.331 276.072 251.387 276.68 250.891 277.656V276.232H249.435V285H250.891V280.232ZM255.724 282.6C255.724 284.36 256.604 285 258.156 285H259.468V283.768H258.396C257.5 283.768 257.18 283.464 257.18 282.6V277.432H259.468V276.232H257.18V274.024H255.724V276.232H254.588V277.432H255.724V282.6ZM269.552 280.6C269.552 277.832 267.616 276.088 265.12 276.088C262.64 276.088 260.688 277.832 260.688 280.6C260.688 283.384 262.576 285.144 265.056 285.144C267.552 285.144 269.552 283.384 269.552 280.6ZM262.176 280.6C262.176 278.392 263.568 277.352 265.104 277.352C266.608 277.352 268.064 278.392 268.064 280.6C268.064 282.824 266.576 283.864 265.056 283.864C263.536 283.864 262.176 282.824 262.176 280.6ZM272.922 280.232C272.922 278.2 273.978 277.576 275.37 277.576H275.754V276.072C274.362 276.072 273.418 276.68 272.922 277.656V276.232H271.466V285H272.922V280.232ZM282.021 282.6C282.021 284.36 282.901 285 284.453 285H285.765V283.768H284.693C283.797 283.768 283.477 283.464 283.477 282.6V277.432H285.765V276.232H283.477V274.024H282.021V276.232H280.885V277.432H282.021V282.6ZM291.257 277.32C292.761 277.32 294.041 278.264 294.025 279.976H288.489C288.649 278.264 289.833 277.32 291.257 277.32ZM295.353 282.296H293.785C293.465 283.24 292.633 283.912 291.321 283.912C289.833 283.912 288.585 282.936 288.473 281.16H295.481C295.513 280.856 295.529 280.6 295.529 280.28C295.529 277.88 293.865 276.088 291.321 276.088C288.761 276.088 286.985 277.832 286.985 280.6C286.985 283.384 288.825 285.144 291.321 285.144C293.497 285.144 294.905 283.896 295.353 282.296ZM310.107 285H311.547V279.832C311.547 277.32 309.995 276.072 307.995 276.072C306.651 276.072 305.403 276.76 304.891 278.024C304.315 276.712 303.115 276.072 301.675 276.072C300.523 276.072 299.483 276.568 298.907 277.496V276.232H297.451V285H298.907V280.168C298.907 278.28 299.915 277.336 301.387 277.336C302.827 277.336 303.787 278.248 303.787 280.04V285H305.227V280.168C305.227 278.28 306.235 277.336 307.707 277.336C309.147 277.336 310.107 278.248 310.107 280.04V285ZM315.391 277.848V276.232H313.935V289.16H315.391V283.384C315.935 284.28 317.071 285.144 318.671 285.144C321.023 285.144 322.831 283.304 322.831 280.584C322.831 277.848 321.023 276.088 318.671 276.088C317.071 276.088 315.919 276.92 315.391 277.848ZM321.343 280.584C321.343 282.648 319.983 283.864 318.367 283.864C316.783 283.864 315.391 282.664 315.391 280.6C315.391 278.568 316.783 277.352 318.367 277.352C319.983 277.352 321.343 278.52 321.343 280.584ZM332.524 276.232H331.068V281.048C331.068 282.936 330.06 283.864 328.556 283.864C327.084 283.864 326.108 282.952 326.108 281.176V276.232H324.668V281.368C324.668 283.88 326.252 285.128 328.268 285.128C329.436 285.128 330.508 284.616 331.068 283.704V285H332.524V276.232ZM341.286 282.616C341.222 279.48 336.134 280.616 336.134 278.536C336.134 277.832 336.774 277.32 337.846 277.32C339.014 277.32 339.686 277.96 339.75 278.84H341.206C341.11 277.128 339.83 276.088 337.894 276.088C335.942 276.088 334.678 277.192 334.678 278.536C334.678 281.8 339.862 280.664 339.862 282.616C339.862 283.336 339.222 283.912 338.07 283.912C336.838 283.912 336.086 283.272 336.006 282.424H334.502C334.598 284.024 336.038 285.144 338.086 285.144C340.022 285.144 341.286 284.056 341.286 282.616ZM344.765 284.104C344.765 283.544 344.333 283.112 343.805 283.112C343.245 283.112 342.813 283.544 342.813 284.104C342.813 284.664 343.245 285.096 343.805 285.096C344.333 285.096 344.765 284.664 344.765 284.104Z" fill="#5E6282"/>
<path d="M74.928 232.416C74.928 233.296 74.448 233.824 73.424 233.824H71.728V231.04H73.424C74.448 231.04 74.928 231.584 74.928 232.416ZM68.992 228.768V240H71.728V235.76H72.384L74.72 240H77.808L75.216 235.552C76.944 235.04 77.712 233.712 77.712 232.304C77.712 230.352 76.336 228.768 73.584 228.768H68.992ZM83.3655 233.136C84.2775 233.136 85.0455 233.696 85.0455 234.672H81.6215C81.7815 233.68 82.4695 233.136 83.3655 233.136ZM87.6375 237.04H84.7255C84.5015 237.52 84.0695 237.904 83.3015 237.904C82.4215 237.904 81.7015 237.36 81.6055 236.192H87.7975C87.8295 235.92 87.8455 235.648 87.8455 235.392C87.8455 232.672 86.0055 230.944 83.3975 230.944C80.7415 230.944 78.8855 232.704 78.8855 235.536C78.8855 238.368 80.7735 240.128 83.3975 240.128C85.6215 240.128 87.2055 238.784 87.6375 237.04ZM88.7449 235.52C88.7449 238.336 90.4889 240.128 92.6649 240.128C93.9929 240.128 94.9369 239.52 95.4329 238.736V240H98.1689V231.072H95.4329V232.336C94.9529 231.552 94.0089 230.944 92.6809 230.944C90.4889 230.944 88.7449 232.704 88.7449 235.52ZM95.4329 235.536C95.4329 236.96 94.5209 237.744 93.4809 237.744C92.4569 237.744 91.5289 236.944 91.5289 235.52C91.5289 234.096 92.4569 233.328 93.4809 233.328C94.5209 233.328 95.4329 234.112 95.4329 235.536ZM99.6043 235.536C99.6043 238.368 101.46 240.128 104.084 240.128C106.324 240.128 107.908 238.832 108.372 236.768H105.46C105.22 237.424 104.788 237.792 104.036 237.792C103.06 237.792 102.388 237.024 102.388 235.536C102.388 234.048 103.06 233.28 104.036 233.28C104.788 233.28 105.236 233.68 105.46 234.304H108.372C107.908 232.176 106.324 230.944 104.084 230.944C101.46 230.944 99.6043 232.72 99.6043 235.536ZM109.836 240H112.572V235.152C112.572 233.936 113.244 233.264 114.284 233.264C115.324 233.264 115.996 233.936 115.996 235.152V240H118.716V234.784C118.716 232.384 117.356 230.976 115.324 230.976C114.092 230.976 113.116 231.504 112.572 232.272V228.16H109.836V240ZM131.672 240H134.568L130.504 228.768H127.336L123.272 240H126.136L126.808 238.016H131L131.672 240ZM130.296 235.904H127.528L128.904 231.792L130.296 235.904ZM135.805 240H138.541V231.072H135.805V240ZM137.181 230.144C138.141 230.144 138.797 229.488 138.797 228.672C138.797 227.84 138.141 227.184 137.181 227.184C136.205 227.184 135.549 227.84 135.549 228.672C135.549 229.488 136.205 230.144 137.181 230.144ZM143.259 235.856C143.259 234.32 144.011 233.872 145.307 233.872H146.059V230.976C144.859 230.976 143.883 231.616 143.259 232.56V231.072H140.523V240H143.259V235.856ZM150.103 232.336V231.072H147.367V244.256H150.103V238.752C150.599 239.504 151.543 240.128 152.855 240.128C155.047 240.128 156.791 238.336 156.791 235.52C156.791 232.704 155.047 230.944 152.855 230.944C151.543 230.944 150.599 231.552 150.103 232.336ZM154.007 235.52C154.007 236.944 153.079 237.744 152.039 237.744C151.015 237.744 150.087 236.96 150.087 235.536C150.087 234.112 151.015 233.328 152.039 233.328C153.079 233.328 154.007 234.096 154.007 235.52ZM166.962 235.536C166.962 232.704 164.946 230.944 162.322 230.944C159.714 230.944 157.682 232.704 157.682 235.536C157.682 238.368 159.666 240.128 162.29 240.128C164.914 240.128 166.962 238.368 166.962 235.536ZM160.466 235.536C160.466 234.016 161.33 233.312 162.322 233.312C163.282 233.312 164.178 234.016 164.178 235.536C164.178 237.04 163.266 237.76 162.29 237.76C161.298 237.76 160.466 237.04 160.466 235.536ZM171.15 235.856C171.15 234.32 171.902 233.872 173.198 233.872H173.95V230.976C172.75 230.976 171.774 231.616 171.15 232.56V231.072H168.414V240H171.15V235.856ZM175.69 236.896C175.69 239.216 176.986 240 178.842 240H180.234V237.68H179.258C178.65 237.68 178.426 237.456 178.426 236.928V233.344H180.218V231.072H178.426V228.896H175.69V231.072H174.602V233.344H175.69V236.896ZM193.884 235.536C193.884 232.704 191.868 230.944 189.244 230.944C186.636 230.944 184.604 232.704 184.604 235.536C184.604 238.368 186.588 240.128 189.212 240.128C191.836 240.128 193.884 238.368 193.884 235.536ZM187.388 235.536C187.388 234.016 188.252 233.312 189.244 233.312C190.204 233.312 191.1 234.016 191.1 235.536C191.1 237.04 190.188 237.76 189.212 237.76C188.22 237.76 187.388 237.04 187.388 235.536ZM201.496 240H204.216V234.784C204.216 232.384 202.84 230.976 200.776 230.976C199.576 230.976 198.616 231.504 198.072 232.256V231.072H195.336V240H198.072V235.152C198.072 233.936 198.744 233.264 199.784 233.264C200.824 233.264 201.496 233.936 201.496 235.152V240ZM217.668 236.656C217.668 232.896 212.116 233.776 212.116 231.824C212.116 231.12 212.612 230.784 213.268 230.8C214.004 230.816 214.516 231.248 214.564 231.968H217.524C217.412 229.824 215.764 228.608 213.316 228.608C210.964 228.608 209.22 229.792 209.22 231.92C209.188 235.904 214.804 234.784 214.804 236.864C214.804 237.52 214.292 237.92 213.492 237.92C212.724 237.92 212.18 237.504 212.1 236.64H209.188C209.268 238.912 211.156 240.112 213.572 240.112C216.196 240.112 217.668 238.544 217.668 236.656ZM223.287 233.136C224.199 233.136 224.967 233.696 224.967 234.672H221.543C221.703 233.68 222.391 233.136 223.287 233.136ZM227.559 237.04H224.647C224.423 237.52 223.991 237.904 223.223 237.904C222.343 237.904 221.623 237.36 221.527 236.192H227.719C227.751 235.92 227.767 235.648 227.767 235.392C227.767 232.672 225.927 230.944 223.319 230.944C220.663 230.944 218.807 232.704 218.807 235.536C218.807 238.368 220.695 240.128 223.319 240.128C225.543 240.128 227.127 238.784 227.559 237.04ZM229.211 240H231.947V228.16H229.211V240ZM237.866 233.136C238.778 233.136 239.546 233.696 239.546 234.672H236.122C236.282 233.68 236.97 233.136 237.866 233.136ZM242.138 237.04H239.226C239.002 237.52 238.57 237.904 237.802 237.904C236.922 237.904 236.202 237.36 236.106 236.192H242.298C242.33 235.92 242.345 235.648 242.345 235.392C242.345 232.672 240.506 230.944 237.898 230.944C235.242 230.944 233.386 232.704 233.386 235.536C233.386 238.368 235.274 240.128 237.898 240.128C240.122 240.128 241.706 238.784 242.138 237.04ZM243.245 235.536C243.245 238.368 245.101 240.128 247.725 240.128C249.965 240.128 251.549 238.832 252.013 236.768H249.101C248.861 237.424 248.429 237.792 247.677 237.792C246.701 237.792 246.029 237.024 246.029 235.536C246.029 234.048 246.701 233.28 247.677 233.28C248.429 233.28 248.877 233.68 249.101 234.304H252.013C251.549 232.176 249.965 230.944 247.725 230.944C245.101 230.944 243.245 232.72 243.245 235.536ZM253.908 236.896C253.908 239.216 255.204 240 257.06 240H258.452V237.68H257.476C256.868 237.68 256.644 237.456 256.644 236.928V233.344H258.436V231.072H256.644V228.896H253.908V231.072H252.82V233.344H253.908V236.896ZM263.912 233.136C264.824 233.136 265.592 233.696 265.592 234.672H262.168C262.328 233.68 263.016 233.136 263.912 233.136ZM268.184 237.04H265.272C265.048 237.52 264.616 237.904 263.848 237.904C262.968 237.904 262.248 237.36 262.152 236.192H268.344C268.376 235.92 268.392 235.648 268.392 235.392C268.392 232.672 266.552 230.944 263.944 230.944C261.288 230.944 259.432 232.704 259.432 235.536C259.432 238.368 261.32 240.128 263.944 240.128C266.168 240.128 267.752 238.784 268.184 237.04ZM269.292 235.52C269.292 238.336 271.036 240.128 273.228 240.128C274.54 240.128 275.484 239.536 275.98 238.72V240H278.716V228.16H275.98V232.304C275.436 231.488 274.412 230.944 273.228 230.944C271.036 230.944 269.292 232.704 269.292 235.52ZM275.98 235.536C275.98 236.96 275.068 237.744 274.028 237.744C273.004 237.744 272.076 236.944 272.076 235.52C272.076 234.096 273.004 233.328 274.028 233.328C275.068 233.328 275.98 234.112 275.98 235.536ZM288.294 228.768H284.086V240H288.294C291.878 240 294.182 237.712 294.182 234.384C294.182 231.04 291.878 228.768 288.294 228.768ZM286.822 237.632V231.104H288.118C290.182 231.104 291.398 232.32 291.398 234.384C291.398 236.448 290.182 237.632 288.118 237.632H286.822ZM295.167 235.52C295.167 238.336 296.911 240.128 299.087 240.128C300.415 240.128 301.359 239.52 301.855 238.736V240H304.591V231.072H301.855V232.336C301.375 231.552 300.431 230.944 299.103 230.944C296.911 230.944 295.167 232.704 295.167 235.52ZM301.855 235.536C301.855 236.96 300.943 237.744 299.903 237.744C298.879 237.744 297.951 236.944 297.951 235.52C297.951 234.096 298.879 233.328 299.903 233.328C300.943 233.328 301.855 234.112 301.855 235.536ZM307.002 236.896C307.002 239.216 308.298 240 310.154 240H311.546V237.68H310.57C309.962 237.68 309.738 237.456 309.738 236.928V233.344H311.53V231.072H309.738V228.896H307.002V231.072H305.914V233.344H307.002V236.896ZM317.006 233.136C317.918 233.136 318.686 233.696 318.686 234.672H315.262C315.422 233.68 316.11 233.136 317.006 233.136ZM321.278 237.04H318.366C318.142 237.52 317.71 237.904 316.942 237.904C316.062 237.904 315.342 237.36 315.246 236.192H321.438C321.47 235.92 321.486 235.648 321.486 235.392C321.486 232.672 319.646 230.944 317.038 230.944C314.382 230.944 312.526 232.704 312.526 235.536C312.526 238.368 314.414 240.128 317.038 240.128C319.262 240.128 320.846 238.784 321.278 237.04Z" fill="#5E6282"/>
<path d="M69.232 140.848V152H74.592V150.816H70.688V140.848H69.232ZM84.4583 147.6C84.4583 144.832 82.5223 143.088 80.0263 143.088C77.5463 143.088 75.5943 144.832 75.5943 147.6C75.5943 150.384 77.4823 152.144 79.9623 152.144C82.4583 152.144 84.4583 150.384 84.4583 147.6ZM77.0823 147.6C77.0823 145.392 78.4743 144.352 80.0103 144.352C81.5143 144.352 82.9703 145.392 82.9703 147.6C82.9703 149.824 81.4823 150.864 79.9623 150.864C78.4423 150.864 77.0823 149.824 77.0823 147.6ZM87.8286 147.232C87.8286 145.2 88.8846 144.576 90.2766 144.576H90.6606V143.072C89.2686 143.072 88.3246 143.68 87.8286 144.656V143.232H86.3726V152H87.8286V147.232ZM96.0694 144.32C97.5734 144.32 98.8534 145.264 98.8374 146.976H93.3014C93.4614 145.264 94.6454 144.32 96.0694 144.32ZM100.165 149.296H98.5974C98.2774 150.24 97.4454 150.912 96.1334 150.912C94.6454 150.912 93.3974 149.936 93.2854 148.16H100.293C100.325 147.856 100.341 147.6 100.341 147.28C100.341 144.88 98.6774 143.088 96.1334 143.088C93.5734 143.088 91.7974 144.832 91.7974 147.6C91.7974 150.384 93.6374 152.144 96.1334 152.144C98.3094 152.144 99.7174 150.896 100.165 149.296ZM114.919 152H116.359V146.832C116.359 144.32 114.807 143.072 112.807 143.072C111.463 143.072 110.215 143.76 109.703 145.024C109.127 143.712 107.927 143.072 106.487 143.072C105.335 143.072 104.295 143.568 103.719 144.496V143.232H102.263V152H103.719V147.168C103.719 145.28 104.727 144.336 106.199 144.336C107.639 144.336 108.599 145.248 108.599 147.04V152H110.039V147.168C110.039 145.28 111.047 144.336 112.519 144.336C113.959 144.336 114.919 145.248 114.919 147.04V152ZM123.013 152H124.469V143.232H123.013V152ZM123.765 141.808C124.293 141.808 124.725 141.376 124.725 140.816C124.725 140.256 124.293 139.824 123.765 139.824C123.205 139.824 122.773 140.256 122.773 140.816C122.773 141.376 123.205 141.808 123.765 141.808ZM128.407 144.848V143.232H126.951V156.16H128.407V150.384C128.951 151.28 130.087 152.144 131.687 152.144C134.039 152.144 135.847 150.304 135.847 147.584C135.847 144.848 134.039 143.088 131.687 143.088C130.087 143.088 128.935 143.92 128.407 144.848ZM134.359 147.584C134.359 149.648 132.999 150.864 131.383 150.864C129.799 150.864 128.407 149.664 128.407 147.6C128.407 145.568 129.799 144.352 131.383 144.352C132.999 144.352 134.359 145.52 134.359 147.584ZM144.067 149.616C144.003 146.48 138.915 147.616 138.915 145.536C138.915 144.832 139.555 144.32 140.627 144.32C141.795 144.32 142.467 144.96 142.531 145.84H143.987C143.891 144.128 142.611 143.088 140.675 143.088C138.723 143.088 137.459 144.192 137.459 145.536C137.459 148.8 142.643 147.664 142.643 149.616C142.643 150.336 142.003 150.912 140.851 150.912C139.619 150.912 138.867 150.272 138.787 149.424H137.283C137.379 151.024 138.819 152.144 140.867 152.144C142.803 152.144 144.067 151.056 144.067 149.616ZM153.899 143.232H152.443V148.048C152.443 149.936 151.435 150.864 149.931 150.864C148.459 150.864 147.483 149.952 147.483 148.176V143.232H146.043V148.368C146.043 150.88 147.627 152.128 149.643 152.128C150.811 152.128 151.883 151.616 152.443 150.704V152H153.899V143.232ZM169.013 152H170.453V146.832C170.453 144.32 168.901 143.072 166.901 143.072C165.557 143.072 164.309 143.76 163.797 145.024C163.221 143.712 162.021 143.072 160.581 143.072C159.429 143.072 158.389 143.568 157.813 144.496V143.232H156.357V152H157.813V147.168C157.813 145.28 158.821 144.336 160.293 144.336C161.733 144.336 162.693 145.248 162.693 147.04V152H164.133V147.168C164.133 145.28 165.141 144.336 166.613 144.336C168.053 144.336 169.013 145.248 169.013 147.04V152ZM176.563 147.584C176.563 150.304 178.371 152.144 180.723 152.144C182.323 152.144 183.459 151.328 183.987 150.352V152H185.459V140.16H183.987V144.8C183.379 143.792 182.115 143.088 180.739 143.088C178.371 143.088 176.563 144.848 176.563 147.584ZM183.987 147.6C183.987 149.664 182.611 150.864 181.011 150.864C179.411 150.864 178.051 149.648 178.051 147.584C178.051 145.52 179.411 144.352 181.011 144.352C182.611 144.352 183.987 145.568 183.987 147.6ZM196.24 147.6C196.24 144.832 194.304 143.088 191.808 143.088C189.328 143.088 187.376 144.832 187.376 147.6C187.376 150.384 189.264 152.144 191.744 152.144C194.24 152.144 196.24 150.384 196.24 147.6ZM188.864 147.6C188.864 145.392 190.256 144.352 191.792 144.352C193.296 144.352 194.752 145.392 194.752 147.6C194.752 149.824 193.264 150.864 191.744 150.864C190.224 150.864 188.864 149.824 188.864 147.6ZM198.154 152H199.61V140.16H198.154V152ZM210.411 147.6C210.411 144.832 208.475 143.088 205.979 143.088C203.499 143.088 201.547 144.832 201.547 147.6C201.547 150.384 203.435 152.144 205.915 152.144C208.411 152.144 210.411 150.384 210.411 147.6ZM203.035 147.6C203.035 145.392 204.427 144.352 205.963 144.352C207.467 144.352 208.923 145.392 208.923 147.6C208.923 149.824 207.435 150.864 205.915 150.864C204.395 150.864 203.035 149.824 203.035 147.6ZM213.782 147.232C213.782 145.2 214.838 144.576 216.23 144.576H216.614V143.072C215.222 143.072 214.278 143.68 213.782 144.656V143.232H212.326V152H213.782V147.232ZM228.864 149.616C228.8 146.48 223.712 147.616 223.712 145.536C223.712 144.832 224.352 144.32 225.424 144.32C226.592 144.32 227.264 144.96 227.328 145.84H228.784C228.688 144.128 227.408 143.088 225.472 143.088C223.52 143.088 222.256 144.192 222.256 145.536C222.256 148.8 227.44 147.664 227.44 149.616C227.44 150.336 226.8 150.912 225.648 150.912C224.416 150.912 223.664 150.272 223.584 149.424H222.08C222.176 151.024 223.616 152.144 225.664 152.144C227.6 152.144 228.864 151.056 228.864 149.616ZM230.92 152H232.376V143.232H230.92V152ZM231.672 141.808C232.2 141.808 232.632 141.376 232.632 140.816C232.632 140.256 232.2 139.824 231.672 139.824C231.112 139.824 230.68 140.256 230.68 140.816C230.68 141.376 231.112 141.808 231.672 141.808ZM235.177 149.6C235.177 151.36 236.057 152 237.609 152H238.921V150.768H237.849C236.953 150.768 236.633 150.464 236.633 149.6V144.432H238.921V143.232H236.633V141.024H235.177V143.232H234.041V144.432H235.177V149.6ZM244.407 147.584C244.407 150.304 246.215 152.144 248.551 152.144C250.167 152.144 251.303 151.312 251.831 150.368V152H253.303V143.232H251.831V144.832C251.319 143.92 250.199 143.088 248.567 143.088C246.215 143.088 244.407 144.848 244.407 147.584ZM251.831 147.6C251.831 149.664 250.455 150.864 248.855 150.864C247.255 150.864 245.895 149.648 245.895 147.584C245.895 145.52 247.255 144.352 248.855 144.352C250.455 144.352 251.831 145.568 251.831 147.6ZM268.419 152H269.859V146.832C269.859 144.32 268.307 143.072 266.307 143.072C264.963 143.072 263.715 143.76 263.203 145.024C262.627 143.712 261.427 143.072 259.987 143.072C258.835 143.072 257.795 143.568 257.219 144.496V143.232H255.763V152H257.219V147.168C257.219 145.28 258.227 144.336 259.699 144.336C261.139 144.336 262.099 145.248 262.099 147.04V152H263.539V147.168C263.539 145.28 264.547 144.336 266.019 144.336C267.459 144.336 268.419 145.248 268.419 147.04V152ZM275.976 144.32C277.48 144.32 278.76 145.264 278.744 146.976H273.208C273.368 145.264 274.552 144.32 275.976 144.32ZM280.072 149.296H278.504C278.184 150.24 277.352 150.912 276.04 150.912C274.552 150.912 273.304 149.936 273.192 148.16H280.2C280.232 147.856 280.248 147.6 280.248 147.28C280.248 144.88 278.584 143.088 276.04 143.088C273.48 143.088 271.704 144.832 271.704 147.6C271.704 150.384 273.544 152.144 276.04 152.144C278.216 152.144 279.624 150.896 280.072 149.296ZM282.49 149.6C282.49 151.36 283.37 152 284.922 152H286.234V150.768H285.161C284.266 150.768 283.946 150.464 283.946 149.6V144.432H286.234V143.232H283.946V141.024H282.49V143.232H281.354V144.432H282.49V149.6ZM286.734 154.288H287.71L289.502 149.984H287.902L286.734 154.288ZM294.891 147.6C294.891 150.384 296.667 152.144 299.163 152.144C301.339 152.144 302.763 150.928 303.211 149.184H301.643C301.323 150.288 300.459 150.912 299.163 150.912C297.563 150.912 296.379 149.776 296.379 147.6C296.379 145.456 297.563 144.32 299.163 144.32C300.459 144.32 301.339 144.992 301.643 146.048H303.211C302.763 144.208 301.339 143.088 299.163 143.088C296.667 143.088 294.891 144.848 294.891 147.6ZM313.474 147.6C313.474 144.832 311.538 143.088 309.042 143.088C306.562 143.088 304.61 144.832 304.61 147.6C304.61 150.384 306.498 152.144 308.978 152.144C311.474 152.144 313.474 150.384 313.474 147.6ZM306.098 147.6C306.098 145.392 307.49 144.352 309.026 144.352C310.53 144.352 311.986 145.392 311.986 147.6C311.986 149.824 310.498 150.864 308.978 150.864C307.458 150.864 306.098 149.824 306.098 147.6ZM321.804 152H323.244V146.832C323.244 144.32 321.692 143.072 319.66 143.072C318.476 143.072 317.42 143.568 316.844 144.48V143.232H315.388V152H316.844V147.152C316.844 145.264 317.868 144.336 319.356 144.336C320.828 144.336 321.804 145.248 321.804 147.04V152ZM331.927 149.616C331.863 146.48 326.775 147.616 326.775 145.536C326.775 144.832 327.415 144.32 328.487 144.32C329.655 144.32 330.327 144.96 330.391 145.84H331.847C331.751 144.128 330.471 143.088 328.535 143.088C326.583 143.088 325.319 144.192 325.319 145.536C325.319 148.8 330.503 147.664 330.503 149.616C330.503 150.336 329.863 150.912 328.711 150.912C327.479 150.912 326.727 150.272 326.647 149.424H325.143C325.239 151.024 326.679 152.144 328.727 152.144C330.663 152.144 331.927 151.056 331.927 149.616ZM337.71 144.32C339.214 144.32 340.494 145.264 340.478 146.976H334.942C335.102 145.264 336.286 144.32 337.71 144.32ZM341.806 149.296H340.238C339.918 150.24 339.086 150.912 337.774 150.912C336.286 150.912 335.038 149.936 334.926 148.16H341.934C341.966 147.856 341.982 147.6 341.982 147.28C341.982 144.88 340.318 143.088 337.774 143.088C335.214 143.088 333.438 144.832 333.438 147.6C333.438 150.384 335.278 152.144 337.774 152.144C339.95 152.144 341.358 150.896 341.806 149.296ZM343.36 147.6C343.36 150.384 345.136 152.144 347.632 152.144C349.808 152.144 351.232 150.928 351.68 149.184H350.112C349.792 150.288 348.928 150.912 347.632 150.912C346.032 150.912 344.848 149.776 344.848 147.6C344.848 145.456 346.032 144.32 347.632 144.32C348.928 144.32 349.808 144.992 350.112 146.048H351.68C351.232 144.208 349.808 143.088 347.632 143.088C345.136 143.088 343.36 144.848 343.36 147.6ZM353.943 149.6C353.943 151.36 354.823 152 356.375 152H357.687V150.768H356.615C355.719 150.768 355.399 150.464 355.399 149.6V144.432H357.687V143.232H355.399V141.024H353.943V143.232H352.807V144.432H353.943V149.6ZM363.179 144.32C364.683 144.32 365.963 145.264 365.947 146.976H360.411C360.571 145.264 361.755 144.32 363.179 144.32ZM367.275 149.296H365.707C365.387 150.24 364.555 150.912 363.243 150.912C361.755 150.912 360.507 149.936 360.395 148.16H367.403C367.435 147.856 367.451 147.6 367.451 147.28C367.451 144.88 365.787 143.088 363.243 143.088C360.683 143.088 358.907 144.832 358.907 147.6C358.907 150.384 360.747 152.144 363.243 152.144C365.419 152.144 366.827 150.896 367.275 149.296ZM369.693 149.6C369.693 151.36 370.573 152 372.125 152H373.437V150.768H372.365C371.469 150.768 371.149 150.464 371.149 149.6V144.432H373.437V143.232H371.149V141.024H369.693V143.232H368.557V144.432H369.693V149.6ZM382.977 143.232H381.521V148.048C381.521 149.936 380.513 150.864 379.009 150.864C377.537 150.864 376.561 149.952 376.561 148.176V143.232H375.121V148.368C375.121 150.88 376.705 152.128 378.721 152.128C379.889 152.128 380.961 151.616 381.521 150.704V152H382.977V143.232ZM386.891 147.232C386.891 145.2 387.947 144.576 389.339 144.576H389.723V143.072C388.331 143.072 387.387 143.68 386.891 144.656V143.232H385.435V152H386.891V147.232ZM68.688 167.584C68.688 170.304 70.496 172.144 72.832 172.144C74.448 172.144 75.584 171.312 76.112 170.368V172H77.584V163.232H76.112V164.832C75.6 163.92 74.48 163.088 72.848 163.088C70.496 163.088 68.688 164.848 68.688 167.584ZM76.112 167.6C76.112 169.664 74.736 170.864 73.136 170.864C71.536 170.864 70.176 169.648 70.176 167.584C70.176 165.52 71.536 164.352 73.136 164.352C74.736 164.352 76.112 165.568 76.112 167.6ZM79.5005 167.584C79.5005 170.304 81.3085 172.144 83.6605 172.144C85.2605 172.144 86.3965 171.328 86.9245 170.352V172H88.3965V160.16H86.9245V164.8C86.3165 163.792 85.0525 163.088 83.6765 163.088C81.3085 163.088 79.5005 164.848 79.5005 167.584ZM86.9245 167.6C86.9245 169.664 85.5485 170.864 83.9485 170.864C82.3485 170.864 80.9885 169.648 80.9885 167.584C80.9885 165.52 82.3485 164.352 83.9485 164.352C85.5485 164.352 86.9245 165.568 86.9245 167.6ZM90.857 172H92.313V163.232H90.857V172ZM91.609 161.808C92.137 161.808 92.569 161.376 92.569 160.816C92.569 160.256 92.137 159.824 91.609 159.824C91.049 159.824 90.617 160.256 90.617 160.816C90.617 161.376 91.049 161.808 91.609 161.808ZM96.2505 164.848V163.232H94.7945V176.16H96.2505V170.384C96.7945 171.28 97.9305 172.144 99.5305 172.144C101.883 172.144 103.691 170.304 103.691 167.584C103.691 164.848 101.883 163.088 99.5305 163.088C97.9305 163.088 96.7785 163.92 96.2505 164.848ZM102.203 167.584C102.203 169.648 100.843 170.864 99.2265 170.864C97.6425 170.864 96.2505 169.664 96.2505 167.6C96.2505 165.568 97.6425 164.352 99.2265 164.352C100.843 164.352 102.203 165.52 102.203 167.584ZM105.607 172H107.063V163.232H105.607V172ZM106.359 161.808C106.887 161.808 107.319 161.376 107.319 160.816C107.319 160.256 106.887 159.824 106.359 159.824C105.799 159.824 105.367 160.256 105.367 160.816C105.367 161.376 105.799 161.808 106.359 161.808ZM115.849 169.616C115.785 166.48 110.697 167.616 110.697 165.536C110.697 164.832 111.337 164.32 112.409 164.32C113.577 164.32 114.249 164.96 114.313 165.84H115.769C115.673 164.128 114.393 163.088 112.457 163.088C110.505 163.088 109.241 164.192 109.241 165.536C109.241 168.8 114.425 167.664 114.425 169.616C114.425 170.336 113.785 170.912 112.633 170.912C111.401 170.912 110.649 170.272 110.569 169.424H109.065C109.161 171.024 110.601 172.144 112.649 172.144C114.585 172.144 115.849 171.056 115.849 169.616ZM117.36 167.6C117.36 170.384 119.136 172.144 121.632 172.144C123.808 172.144 125.232 170.928 125.68 169.184H124.112C123.792 170.288 122.928 170.912 121.632 170.912C120.032 170.912 118.848 169.776 118.848 167.6C118.848 165.456 120.032 164.32 121.632 164.32C122.928 164.32 123.808 164.992 124.112 166.048H125.68C125.232 164.208 123.808 163.088 121.632 163.088C119.136 163.088 117.36 164.848 117.36 167.6ZM127.623 172H129.079V163.232H127.623V172ZM128.375 161.808C128.903 161.808 129.335 161.376 129.335 160.816C129.335 160.256 128.903 159.824 128.375 159.824C127.815 159.824 127.383 160.256 127.383 160.816C127.383 161.376 127.815 161.808 128.375 161.808ZM137.976 172H139.416V166.832C139.416 164.32 137.864 163.072 135.832 163.072C134.648 163.072 133.592 163.568 133.016 164.48V163.232H131.56V172H133.016V167.152C133.016 165.264 134.04 164.336 135.528 164.336C137 164.336 137.976 165.248 137.976 167.04V172ZM141.251 167.584C141.251 170.304 143.059 172.144 145.411 172.144C147.011 172.144 148.147 171.296 148.675 170.352V172.192C148.675 174.064 147.507 175.056 145.955 175.056C144.515 175.056 143.475 174.336 143.155 173.28H141.715C142.003 175.152 143.651 176.32 145.955 176.32C148.531 176.32 150.147 174.608 150.147 172.192V163.232H148.675V164.832C148.163 163.888 147.011 163.088 145.411 163.088C143.059 163.088 141.251 164.848 141.251 167.584ZM148.675 167.6C148.675 169.664 147.299 170.864 145.699 170.864C144.099 170.864 142.739 169.648 142.739 167.584C142.739 165.52 144.099 164.352 145.699 164.352C147.299 164.352 148.675 165.568 148.675 167.6ZM160.601 164.32C162.105 164.32 163.385 165.264 163.369 166.976H157.833C157.993 165.264 159.177 164.32 160.601 164.32ZM164.697 169.296H163.129C162.809 170.24 161.977 170.912 160.665 170.912C159.177 170.912 157.929 169.936 157.817 168.16H164.825C164.857 167.856 164.873 167.6 164.873 167.28C164.873 164.88 163.209 163.088 160.665 163.088C158.105 163.088 156.329 164.832 156.329 167.6C156.329 170.384 158.169 172.144 160.665 172.144C162.841 172.144 164.249 170.896 164.697 169.296ZM166.795 172H168.251V160.16H166.795V172ZM170.732 172H172.188V163.232H170.732V172ZM171.484 161.808C172.012 161.808 172.444 161.376 172.444 160.816C172.444 160.256 172.012 159.824 171.484 159.824C170.924 159.824 170.492 160.256 170.492 160.816C170.492 161.376 170.924 161.808 171.484 161.808ZM174.99 169.6C174.99 171.36 175.87 172 177.422 172H178.734V170.768H177.661C176.766 170.768 176.446 170.464 176.446 169.6V164.432H178.734V163.232H176.446V161.024H174.99V163.232H173.854V164.432H174.99V169.6ZM181.922 171.104C181.922 170.544 181.49 170.112 180.962 170.112C180.402 170.112 179.97 170.544 179.97 171.104C179.97 171.664 180.402 172.096 180.962 172.096C181.49 172.096 181.922 171.664 181.922 171.104ZM188.091 167.888C188.091 170.784 189.979 172.112 192.283 172.112C194.587 172.112 196.491 170.784 196.491 167.888V160.848H195.035V167.904C195.035 169.952 193.947 170.832 192.299 170.832C190.651 170.832 189.547 169.952 189.547 167.904V160.848H188.091V167.888ZM200.376 167.232C200.376 165.2 201.432 164.576 202.824 164.576H203.208V163.072C201.816 163.072 200.872 163.68 200.376 164.656V163.232H198.92V172H200.376V167.232ZM211.304 172H212.744V166.832C212.744 164.32 211.192 163.072 209.16 163.072C207.976 163.072 206.92 163.568 206.344 164.48V163.232H204.888V172H206.344V167.152C206.344 165.264 207.368 164.336 208.856 164.336C210.328 164.336 211.304 165.248 211.304 167.04V172ZM214.579 167.584C214.579 170.304 216.387 172.144 218.723 172.144C220.339 172.144 221.475 171.312 222.003 170.368V172H223.475V163.232H222.003V164.832C221.491 163.92 220.371 163.088 218.739 163.088C216.387 163.088 214.579 164.848 214.579 167.584ZM222.003 167.6C222.003 169.664 220.627 170.864 219.027 170.864C217.427 170.864 216.067 169.648 216.067 167.584C216.067 165.52 217.427 164.352 219.027 164.352C220.627 164.352 222.003 165.568 222.003 167.6ZM224.671 174.288H225.647L227.439 169.984H225.839L224.671 174.288ZM233.693 169.6C233.693 171.36 234.573 172 236.125 172H237.437V170.768H236.365C235.469 170.768 235.149 170.464 235.149 169.6V164.432H237.437V163.232H235.149V161.024H233.693V163.232H232.557V164.432H233.693V169.6ZM247.521 167.6C247.521 164.832 245.585 163.088 243.089 163.088C240.609 163.088 238.657 164.832 238.657 167.6C238.657 170.384 240.545 172.144 243.025 172.144C245.521 172.144 247.521 170.384 247.521 167.6ZM240.145 167.6C240.145 165.392 241.537 164.352 243.073 164.352C244.577 164.352 246.033 165.392 246.033 167.6C246.033 169.824 244.545 170.864 243.025 170.864C241.505 170.864 240.145 169.824 240.145 167.6ZM250.891 167.232C250.891 165.2 251.947 164.576 253.339 164.576H253.723V163.072C252.331 163.072 251.387 163.68 250.891 164.656V163.232H249.435V172H250.891V167.232ZM255.724 169.6C255.724 171.36 256.604 172 258.156 172H259.468V170.768H258.396C257.5 170.768 257.18 170.464 257.18 169.6V164.432H259.468V163.232H257.18V161.024H255.724V163.232H254.588V164.432H255.724V169.6ZM269.552 167.6C269.552 164.832 267.616 163.088 265.12 163.088C262.64 163.088 260.688 164.832 260.688 167.6C260.688 170.384 262.576 172.144 265.056 172.144C267.552 172.144 269.552 170.384 269.552 167.6ZM262.176 167.6C262.176 165.392 263.568 164.352 265.104 164.352C266.608 164.352 268.064 165.392 268.064 167.6C268.064 169.824 266.576 170.864 265.056 170.864C263.536 170.864 262.176 169.824 262.176 167.6ZM272.922 167.232C272.922 165.2 273.978 164.576 275.37 164.576H275.754V163.072C274.362 163.072 273.418 163.68 272.922 164.656V163.232H271.466V172H272.922V167.232ZM282.021 169.6C282.021 171.36 282.901 172 284.453 172H285.765V170.768H284.693C283.797 170.768 283.477 170.464 283.477 169.6V164.432H285.765V163.232H283.477V161.024H282.021V163.232H280.885V164.432H282.021V169.6ZM291.257 164.32C292.761 164.32 294.041 165.264 294.025 166.976H288.489C288.649 165.264 289.833 164.32 291.257 164.32ZM295.353 169.296H293.785C293.465 170.24 292.633 170.912 291.321 170.912C289.833 170.912 288.585 169.936 288.473 168.16H295.481C295.513 167.856 295.529 167.6 295.529 167.28C295.529 164.88 293.865 163.088 291.321 163.088C288.761 163.088 286.985 164.832 286.985 167.6C286.985 170.384 288.825 172.144 291.321 172.144C293.497 172.144 294.905 170.896 295.353 169.296ZM310.107 172H311.547V166.832C311.547 164.32 309.995 163.072 307.995 163.072C306.651 163.072 305.403 163.76 304.891 165.024C304.315 163.712 303.115 163.072 301.675 163.072C300.523 163.072 299.483 163.568 298.907 164.496V163.232H297.451V172H298.907V167.168C298.907 165.28 299.915 164.336 301.387 164.336C302.827 164.336 303.787 165.248 303.787 167.04V172H305.227V167.168C305.227 165.28 306.235 164.336 307.707 164.336C309.147 164.336 310.107 165.248 310.107 167.04V172ZM315.391 164.848V163.232H313.935V176.16H315.391V170.384C315.935 171.28 317.071 172.144 318.671 172.144C321.023 172.144 322.831 170.304 322.831 167.584C322.831 164.848 321.023 163.088 318.671 163.088C317.071 163.088 315.919 163.92 315.391 164.848ZM321.343 167.584C321.343 169.648 319.983 170.864 318.367 170.864C316.783 170.864 315.391 169.664 315.391 167.6C315.391 165.568 316.783 164.352 318.367 164.352C319.983 164.352 321.343 165.52 321.343 167.584ZM332.524 163.232H331.068V168.048C331.068 169.936 330.06 170.864 328.556 170.864C327.084 170.864 326.108 169.952 326.108 168.176V163.232H324.668V168.368C324.668 170.88 326.252 172.128 328.268 172.128C329.436 172.128 330.508 171.616 331.068 170.704V172H332.524V163.232ZM341.286 169.616C341.222 166.48 336.134 167.616 336.134 165.536C336.134 164.832 336.774 164.32 337.846 164.32C339.014 164.32 339.686 164.96 339.75 165.84H341.206C341.11 164.128 339.83 163.088 337.894 163.088C335.942 163.088 334.678 164.192 334.678 165.536C334.678 168.8 339.862 167.664 339.862 169.616C339.862 170.336 339.222 170.912 338.07 170.912C336.838 170.912 336.086 170.272 336.006 169.424H334.502C334.598 171.024 336.038 172.144 338.086 172.144C340.022 172.144 341.286 171.056 341.286 169.616ZM344.765 171.104C344.765 170.544 344.333 170.112 343.805 170.112C343.245 170.112 342.813 170.544 342.813 171.104C342.813 171.664 343.245 172.096 343.805 172.096C344.333 172.096 344.765 171.664 344.765 171.104Z" fill="#5E6282"/>
<path d="M68.992 128H71.728V121.248L74.256 128H76.464L78.976 121.264V128H81.712V116.768H78.496L75.376 124.544L72.224 116.768H68.992V128ZM83.1355 123.52C83.1355 126.336 84.8795 128.128 87.0555 128.128C88.3835 128.128 89.3275 127.52 89.8235 126.736V128H92.5595V119.072H89.8235V120.336C89.3435 119.552 88.3995 118.944 87.0715 118.944C84.8795 118.944 83.1355 120.704 83.1355 123.52ZM89.8235 123.536C89.8235 124.96 88.9115 125.744 87.8715 125.744C86.8475 125.744 85.9195 124.944 85.9195 123.52C85.9195 122.096 86.8475 121.328 87.8715 121.328C88.9115 121.328 89.8235 122.112 89.8235 123.536ZM94.5389 128H97.2749V124.256L99.9949 128H103.387L99.6429 123.552L103.355 119.072H99.9789L97.2749 122.704V116.16H94.5389V128ZM108.366 121.136C109.278 121.136 110.046 121.696 110.046 122.672H106.622C106.782 121.68 107.47 121.136 108.366 121.136ZM112.638 125.04H109.726C109.502 125.52 109.07 125.904 108.302 125.904C107.422 125.904 106.702 125.36 106.606 124.192H112.798C112.83 123.92 112.845 123.648 112.845 123.392C112.845 120.672 111.006 118.944 108.398 118.944C105.742 118.944 103.886 120.704 103.886 123.536C103.886 126.368 105.774 128.128 108.398 128.128C110.622 128.128 112.206 126.784 112.638 125.04ZM120.416 121.792V118.976H121.904C122.992 118.976 123.456 119.52 123.456 120.384C123.456 121.248 122.992 121.792 121.904 121.792H120.416ZM126.24 120.384C126.24 118.32 124.864 116.768 122.112 116.768H117.68V128H120.416V123.968H122.112C124.976 123.968 126.24 122.24 126.24 120.384ZM127.12 123.52C127.12 126.336 128.864 128.128 131.04 128.128C132.368 128.128 133.312 127.52 133.808 126.736V128H136.544V119.072H133.808V120.336C133.328 119.552 132.384 118.944 131.056 118.944C128.864 118.944 127.12 120.704 127.12 123.52ZM133.808 123.536C133.808 124.96 132.896 125.744 131.856 125.744C130.832 125.744 129.904 124.944 129.904 123.52C129.904 122.096 130.832 121.328 131.856 121.328C132.896 121.328 133.808 122.112 133.808 123.536ZM142.635 124.656L140.571 119.072H137.515L141.147 127.696L139.099 132.24H142.043L147.643 119.072H144.683L142.635 124.656ZM160.937 128H163.657V122.784C163.657 120.384 162.233 118.976 160.025 118.976C158.729 118.976 157.609 119.696 157.017 120.64C156.409 119.568 155.321 118.976 153.977 118.976C152.809 118.976 151.897 119.472 151.369 120.192V119.072H148.633V128H151.369V123.152C151.369 121.984 152.041 121.344 153.081 121.344C154.121 121.344 154.793 121.984 154.793 123.152V128H157.513V123.152C157.513 121.984 158.185 121.344 159.225 121.344C160.265 121.344 160.937 121.984 160.937 123.152V128ZM169.506 121.136C170.418 121.136 171.186 121.696 171.186 122.672H167.762C167.922 121.68 168.61 121.136 169.506 121.136ZM173.778 125.04H170.866C170.642 125.52 170.21 125.904 169.442 125.904C168.562 125.904 167.842 125.36 167.746 124.192H173.938C173.97 123.92 173.986 123.648 173.986 123.392C173.986 120.672 172.146 118.944 169.538 118.944C166.882 118.944 165.026 120.704 165.026 123.536C165.026 126.368 166.914 128.128 169.538 128.128C171.762 128.128 173.346 126.784 173.778 125.04ZM181.59 128H184.31V122.784C184.31 120.384 182.934 118.976 180.87 118.976C179.67 118.976 178.71 119.504 178.166 120.256V119.072H175.43V128H178.166V123.152C178.166 121.936 178.838 121.264 179.878 121.264C180.918 121.264 181.59 121.936 181.59 123.152V128ZM186.643 124.896C186.643 127.216 187.939 128 189.795 128H191.187V125.68H190.211C189.603 125.68 189.379 125.456 189.379 124.928V121.344H191.171V119.072H189.379V116.896H186.643V119.072H185.555V121.344H186.643V124.896Z" fill="#5E6282"/>
<rect y="116" width="47" height="48" rx="13" fill="#F15A2B"/>
<path d="M32.8184 147.929C32.3682 147.938 31.926 147.809 31.5512 147.56C31.2723 147.377 30.9462 147.28 30.613 147.28C30.2797 147.28 29.9537 147.377 29.6747 147.56C29.2961 147.801 28.8566 147.929 28.4077 147.929C27.9589 147.929 27.5194 147.801 27.1408 147.56C26.8618 147.377 26.5357 147.28 26.2023 147.28C25.869 147.28 25.5429 147.377 25.2639 147.56C24.8853 147.801 24.4458 147.929 23.9969 147.929C23.5481 147.929 23.1086 147.801 22.7299 147.56C22.4512 147.377 22.1253 147.28 21.7922 147.28C21.459 147.28 21.1331 147.377 20.8544 147.56C20.5111 147.788 20.1105 147.914 19.6985 147.925L19.6758 147.277C19.9801 147.269 20.2757 147.173 20.5258 147C20.9044 146.759 21.3438 146.631 21.7925 146.631C22.2412 146.631 22.6806 146.759 23.0591 147C23.3381 147.182 23.6641 147.279 23.9974 147.279C24.3307 147.279 24.6567 147.182 24.9357 147C25.3143 146.759 25.754 146.63 26.203 146.63C26.6519 146.63 27.0916 146.759 27.4703 147C27.7492 147.182 28.0753 147.279 28.4085 147.279C28.7418 147.279 29.0679 147.182 29.3468 147C29.7255 146.759 30.165 146.631 30.6138 146.631C31.0626 146.631 31.5021 146.759 31.8808 147C32.1604 147.183 32.4872 147.28 32.8213 147.28C33.1554 147.28 33.4822 147.183 33.7618 147C34.1362 146.751 34.5776 146.622 35.027 146.631V147.28C34.6924 147.271 34.3636 147.369 34.0884 147.559C33.7127 147.809 33.2695 147.938 32.8184 147.929Z" fill="white"/>
<path d="M15.1784 147.928C14.7284 147.938 14.2863 147.809 13.9116 147.559C13.6365 147.369 13.3077 147.271 12.973 147.28V146.631C13.4232 146.622 13.8654 146.751 14.2402 147C14.5151 147.191 14.8439 147.289 15.1784 147.28C15.5131 147.289 15.842 147.191 16.117 147C16.491 146.75 16.9325 146.622 17.3819 146.631C17.8204 146.621 18.2517 146.744 18.6192 146.984L18.2919 147.543C18.0235 147.363 17.7053 147.271 17.3819 147.28C17.0486 147.271 16.7211 147.369 16.4472 147.559C16.0721 147.809 15.6292 147.938 15.1784 147.928Z" fill="white"/>
<path d="M32.8194 145.658C32.3689 145.667 31.9265 145.538 31.5513 145.289C31.2721 145.106 30.9458 145.009 30.6122 145.009C30.2787 145.009 29.9523 145.106 29.6731 145.289C29.2946 145.53 28.8551 145.658 28.4063 145.658C27.9576 145.658 27.5181 145.53 27.1395 145.289C26.8607 145.106 26.5347 145.009 26.2016 145.009C25.8684 145.009 25.5425 145.106 25.2636 145.289C24.8851 145.53 24.4456 145.658 23.9968 145.658C23.548 145.658 23.1085 145.53 22.73 145.289C22.4512 145.106 22.1252 145.009 21.7921 145.009C21.4589 145.009 21.1329 145.106 20.8541 145.289C20.4795 145.538 20.0374 145.667 19.5873 145.658C19.1372 145.667 18.6951 145.538 18.3205 145.289C18.0456 145.098 17.717 145 17.3825 145.009C17.0482 145 16.7197 145.098 16.4449 145.289C16.0709 145.538 15.6295 145.667 15.18 145.658C14.7299 145.667 14.2877 145.538 13.9129 145.289C13.6375 145.098 13.3081 145 12.973 145.009V144.361C13.4231 144.351 13.8652 144.48 14.2398 144.73C14.515 144.92 14.8438 145.018 15.1784 145.009C15.5128 145.018 15.8413 144.92 16.1161 144.73C16.4901 144.48 16.9315 144.352 17.3809 144.361C17.8313 144.351 18.2738 144.48 18.6487 144.73C18.9237 144.92 19.2524 145.018 19.587 145.009C19.9215 145.018 20.2503 144.92 20.5252 144.73C20.9038 144.489 21.3433 144.361 21.7921 144.361C22.2408 144.361 22.6803 144.489 23.0589 144.73C23.3377 144.912 23.6637 145.009 23.997 145.009C24.3302 145.009 24.6562 144.912 24.9351 144.73C25.3136 144.489 25.7531 144.361 26.2019 144.361C26.6507 144.361 27.0902 144.489 27.4687 144.73C27.7476 144.912 28.0736 145.009 28.4068 145.009C28.74 145.009 29.066 144.912 29.3449 144.73C29.7238 144.489 30.1636 144.361 30.6127 144.361C31.0618 144.361 31.5016 144.489 31.8805 144.73C32.1599 144.912 32.4863 145.009 32.8199 145.009C33.1535 145.009 33.4799 144.912 33.7593 144.73C34.1344 144.48 34.5767 144.351 35.0271 144.361V145.009C34.6918 145 34.3622 145.098 34.0865 145.289C33.7116 145.538 33.2695 145.667 32.8194 145.658Z" fill="white"/>
<path d="M32.8184 143.388C32.3683 143.397 31.9261 143.268 31.5513 143.019C31.2762 142.828 30.9473 142.73 30.6127 142.739C30.3671 142.731 30.1232 142.783 29.9028 142.892L29.6167 142.308C29.9263 142.156 30.268 142.081 30.6127 142.09C31.0634 142.081 31.5061 142.21 31.8811 142.46C32.1608 142.643 32.4876 142.74 32.8217 142.74C33.1558 142.74 33.4826 142.643 33.7622 142.46C34.1364 142.211 34.5777 142.082 35.0271 142.091V142.739C34.6925 142.73 34.3637 142.828 34.0885 143.019C33.7128 143.268 33.2696 143.397 32.8184 143.388Z" fill="white"/>
<path d="M28.4044 143.388C27.9549 143.397 27.5135 143.269 27.1395 143.019C26.8605 142.837 26.5344 142.739 26.2011 142.739C25.8677 142.739 25.5416 142.837 25.2626 143.019C24.884 143.26 24.4445 143.388 23.9957 143.388C23.5468 143.388 23.1073 143.26 22.7287 143.019C22.4497 142.837 22.1237 142.74 21.7904 142.74C21.4572 142.74 21.1311 142.837 20.8522 143.019C20.4776 143.268 20.0358 143.397 19.586 143.388C19.1359 143.397 18.6938 143.268 18.3192 143.019C18.0441 142.828 17.7152 142.73 17.3806 142.739C17.0473 142.73 16.7198 142.828 16.4459 143.018C16.0712 143.268 15.6288 143.397 15.1784 143.388C14.7284 143.397 14.2863 143.268 13.9116 143.019C13.6365 142.828 13.3077 142.73 12.973 142.739V142.091C13.4232 142.081 13.8654 142.21 14.2402 142.46C14.5151 142.65 14.8439 142.748 15.1784 142.739C15.5131 142.748 15.842 142.65 16.117 142.459C16.491 142.21 16.9325 142.081 17.3819 142.091C17.8319 142.081 18.2741 142.21 18.6487 142.46C18.9237 142.65 19.2524 142.748 19.587 142.739C19.9216 142.748 20.2504 142.65 20.5256 142.46C20.9042 142.219 21.3437 142.091 21.7925 142.091C22.2414 142.091 22.6809 142.219 23.0595 142.46C23.3385 142.642 23.6645 142.739 23.9978 142.739C24.3311 142.739 24.6571 142.642 24.9361 142.46C25.3147 142.218 25.7544 142.09 26.2033 142.09C26.6523 142.09 27.092 142.218 27.4706 142.46C27.7564 142.652 28.0952 142.75 28.4394 142.739C28.4644 142.739 28.4895 142.738 28.5143 142.735L28.6006 143.378C28.5355 143.385 28.4699 143.389 28.4044 143.388Z" fill="white"/>
<path d="M32.8194 141.117C32.3689 141.127 31.9265 140.998 31.5513 140.748C31.2721 140.566 30.9458 140.469 30.6122 140.469C30.2787 140.469 29.9523 140.566 29.6731 140.748C29.2946 140.989 28.8551 141.117 28.4063 141.117C27.9576 141.117 27.5181 140.989 27.1395 140.748C26.8607 140.566 26.5347 140.469 26.2016 140.469C25.8684 140.469 25.5425 140.566 25.2636 140.748C24.8851 140.989 24.4456 141.117 23.9968 141.117C23.548 141.117 23.1085 140.989 22.73 140.748C22.4512 140.566 22.1252 140.469 21.7921 140.469C21.4589 140.469 21.1329 140.566 20.8541 140.748C20.4795 140.998 20.0374 141.127 19.5873 141.117C19.1372 141.127 18.6951 140.998 18.3205 140.748C18.0456 140.558 17.717 140.46 17.3825 140.469C17.0482 140.46 16.7197 140.558 16.4449 140.748C16.0709 140.998 15.6295 141.126 15.18 141.117C14.7299 141.127 14.2877 140.998 13.9129 140.748C13.6375 140.557 13.3081 140.459 12.973 140.469V139.82C13.4231 139.811 13.8652 139.94 14.2398 140.189C14.515 140.38 14.8438 140.478 15.1784 140.469C15.5128 140.478 15.8413 140.38 16.1161 140.189C16.4901 139.94 16.9315 139.811 17.3809 139.82C17.8313 139.811 18.2738 139.939 18.6487 140.189C18.9237 140.38 19.2524 140.478 19.587 140.469C19.9215 140.478 20.2503 140.38 20.5252 140.189C20.9038 139.948 21.3433 139.82 21.7921 139.82C22.2408 139.82 22.6803 139.948 23.0589 140.189C23.3377 140.372 23.6637 140.469 23.997 140.469C24.3302 140.469 24.6562 140.372 24.9351 140.189C25.3136 139.948 25.7531 139.82 26.2019 139.82C26.6507 139.82 27.0902 139.948 27.4687 140.189C27.7476 140.372 28.0736 140.469 28.4068 140.469C28.74 140.469 29.066 140.372 29.3449 140.189C29.7238 139.948 30.1636 139.82 30.6127 139.82C31.0618 139.82 31.5016 139.948 31.8805 140.189C32.1599 140.371 32.4863 140.469 32.8199 140.469C33.1535 140.469 33.4799 140.371 33.7593 140.189C34.1344 139.94 34.5767 139.811 35.0271 139.82V140.469C34.6918 140.459 34.3622 140.557 34.0865 140.748C33.7116 140.998 33.2695 141.126 32.8194 141.117Z" fill="white"/>
<path d="M28.1978 140.842L27.5858 140.628C27.7434 140.175 27.8078 139.695 27.7751 139.216C27.7424 138.738 27.6133 138.271 27.3954 137.844L25.1677 133.481C25.1457 133.438 25.1336 133.391 25.1323 133.343C25.131 133.294 25.1406 133.246 25.1602 133.202C25.1799 133.158 25.2092 133.119 25.2461 133.087C25.2829 133.056 25.3262 133.033 25.373 133.021L29.8126 131.837C29.9573 131.799 30.0812 131.706 30.1573 131.577C30.2335 131.448 30.2557 131.295 30.2192 131.15C30.1827 131.005 30.0904 130.88 29.9624 130.802C29.8344 130.725 29.681 130.702 29.5357 130.737L24.1623 132.021C24.0474 132.048 23.9403 132.101 23.8493 132.177C23.7583 132.252 23.6858 132.347 23.6375 132.455C23.5892 132.562 23.5663 132.68 23.5706 132.798C23.575 132.916 23.6064 133.031 23.6625 133.135L25.2581 136.099C25.2986 136.174 25.3077 136.263 25.2834 136.345C25.2591 136.427 25.2034 136.496 25.1284 136.537L23.069 137.672L22.756 137.104L24.5339 136.124L23.092 133.442C22.9888 133.251 22.9311 133.038 22.9232 132.821C22.9153 132.604 22.9576 132.387 23.0466 132.189C23.1356 131.991 23.2691 131.815 23.4367 131.677C23.6043 131.538 23.8015 131.44 24.0131 131.39L29.3839 130.106C29.6965 130.027 30.0278 130.075 30.3047 130.241C30.5817 130.406 30.7817 130.674 30.8607 130.987C30.9397 131.3 30.8913 131.631 30.726 131.908C30.5608 132.185 30.2923 132.385 29.9797 132.464L25.9275 133.544L27.9734 137.548C28.231 138.054 28.3837 138.606 28.4223 139.172C28.4608 139.739 28.3845 140.307 28.1978 140.842Z" fill="white"/>
<path d="M21.6223 137.734L17.681 139.906L17.9939 140.473L21.9352 138.302L21.6223 137.734Z" fill="white"/>
<path d="M31.1352 138.685C30.6541 138.685 30.1838 138.542 29.7838 138.275C29.3838 138.008 29.072 137.628 28.8879 137.183C28.7038 136.739 28.6556 136.25 28.7495 135.778C28.8434 135.306 29.075 134.873 29.4152 134.533C29.7554 134.192 30.1888 133.961 30.6606 133.867C31.1325 133.773 31.6216 133.821 32.066 134.005C32.5105 134.189 32.8904 134.501 33.1577 134.901C33.425 135.301 33.5676 135.771 33.5676 136.252C33.5669 136.897 33.3104 137.516 32.8544 137.972C32.3984 138.428 31.7801 138.684 31.1352 138.685ZM31.1352 134.469C30.7824 134.469 30.4375 134.573 30.1442 134.769C29.8508 134.965 29.6222 135.244 29.4872 135.57C29.3522 135.896 29.3169 136.254 29.3857 136.6C29.4545 136.947 29.6244 137.264 29.8739 137.514C30.1233 137.763 30.4412 137.933 30.7872 138.002C31.1332 138.071 31.4919 138.036 31.8178 137.901C32.1438 137.765 32.4223 137.537 32.6183 137.244C32.8144 136.95 32.919 136.605 32.919 136.252C32.9184 135.78 32.7302 135.326 32.3959 134.992C32.0615 134.657 31.6081 134.469 31.1352 134.469Z" fill="white"/>
</svg>
