<svg width="14" height="13" viewBox="0 0 14 13" fill="none" xmlns="http://www.w3.org/2000/svg">
<path d="M4.78926 12.9998C2.40798 12.9861 0.438232 8.12513 0.438232 5.64954C0.438232 1.60566 3.47183 0.720348 4.64095 0.720348C5.16783 0.720348 5.73042 0.927254 6.22664 1.11035C6.57364 1.23807 6.93251 1.36991 7.13211 1.36991C7.25158 1.36991 7.53311 1.25775 7.78167 1.15935C8.31176 0.948317 8.97139 0.686035 9.73951 0.686035C9.74089 0.686035 9.74273 0.686035 9.74408 0.686035C10.3176 0.686035 12.0567 0.81191 13.1022 2.38204L13.3471 2.75007L12.9947 3.01604C12.4911 3.39597 11.5724 4.08904 11.5724 5.46188C11.5724 7.08785 12.6129 7.71316 13.1128 8.01391C13.3334 8.14666 13.5618 8.28353 13.5618 8.58291C13.5618 8.77838 12.0018 12.9756 9.7363 12.9756C9.18195 12.9756 8.79011 12.809 8.44448 12.662C8.09476 12.5133 7.79308 12.3851 7.29458 12.3851C7.04189 12.3851 6.72236 12.5046 6.38408 12.6314C5.9218 12.8039 5.39855 12.9998 4.80483 12.9998H4.78926Z" fill="white"/>
</svg>
